G04 Layer_Color=8388736*
%FSLAX25Y25*%
%MOIN*%
G70*
G01*
G75*
%ADD23R,0.04540X0.03950*%
%ADD24R,0.03950X0.04540*%
%ADD25R,0.04540X0.04343*%
%ADD26C,0.06706*%
%ADD27R,0.06706X0.06706*%
%ADD28O,0.04737X0.07493*%
D23*
X-85039Y81496D02*
D03*
Y88189D02*
D03*
X1378Y68110D02*
D03*
Y74803D02*
D03*
X88583Y78150D02*
D03*
Y84842D02*
D03*
X-1673Y132677D02*
D03*
Y125984D02*
D03*
X2165Y100984D02*
D03*
Y107677D02*
D03*
X6594Y132677D02*
D03*
Y125984D02*
D03*
X689Y30709D02*
D03*
Y37402D02*
D03*
D24*
X-50787Y86417D02*
D03*
X-44094D02*
D03*
X-13583Y90256D02*
D03*
X-20276D02*
D03*
X23720Y89370D02*
D03*
X17028D02*
D03*
X56595Y84547D02*
D03*
X49902D02*
D03*
X-66732Y124902D02*
D03*
X-73425D02*
D03*
X-39370Y116437D02*
D03*
X-46063D02*
D03*
X-14075Y111122D02*
D03*
X-20768D02*
D03*
X21260Y110138D02*
D03*
X27953D02*
D03*
X47047Y112894D02*
D03*
X53740D02*
D03*
X72244Y121161D02*
D03*
X78937D02*
D03*
D25*
X1772Y88583D02*
D03*
Y94882D02*
D03*
D26*
X34154Y76083D02*
D03*
X-29528D02*
D03*
D27*
X-87992Y132087D02*
D03*
X91929Y128445D02*
D03*
D28*
X98Y8366D02*
D03*
M02*
