M48
;Layer_Color=9474304
;FILE_FORMAT=2:4
INCH,LZ
;TYPE=PLATED
T1F00S00C0.0197
T2F00S00C0.0354
%
T01
X007549Y008878
X006063Y011713
X008484Y012913
X003425Y011594
X000669Y012136
X-000177Y012146
X-000689Y010157
X001447Y009479
X001152Y008416
X004193Y008278
X-002687Y008661
X-003435Y008484
X-002795Y011742
X-005266Y012126
X-007884Y013416
X-007047Y009232
X000098Y004252
T02
X009193Y012844
X003415Y007608
X-002953
X00001Y000837
X-008799Y013209
M30
