G04 Layer_Physical_Order=1*
G04 Layer_Color=255*
%FSLAX25Y25*%
%MOIN*%
G70*
G01*
G75*
%ADD10R,0.03740X0.03150*%
%ADD11R,0.03150X0.03740*%
%ADD12R,0.03740X0.03543*%
%ADD13C,0.01000*%
%ADD14C,0.05906*%
%ADD15R,0.05906X0.05906*%
%ADD16O,0.03937X0.06693*%
%ADD17C,0.03150*%
G36*
X-80034Y138060D02*
X-74348Y136767D01*
X-71129Y135766D01*
X-71114Y135747D01*
X-70918Y135640D01*
X-70726Y135526D01*
X-61079Y132077D01*
X-61071Y132076D01*
X-61064Y132072D01*
X-48507Y127757D01*
X-48440Y127748D01*
X-48379Y127720D01*
X-40520Y125908D01*
X-40499Y125899D01*
X-40428Y125842D01*
X-40273Y125798D01*
X-40126Y125733D01*
X-40036Y125731D01*
X-39949Y125706D01*
X-36184Y125404D01*
X-27757Y124613D01*
X-20512Y123405D01*
X-15435Y122042D01*
X-11740Y120342D01*
X-8514Y118549D01*
X-8032Y118279D01*
X-7881Y118230D01*
X-7739Y118160D01*
X-7456Y118085D01*
X-7379Y118079D01*
X-7305Y118054D01*
X-7132Y118063D01*
X-6959Y118052D01*
X-6886Y118077D01*
X-6808Y118081D01*
X-6652Y118156D01*
X-6487Y118212D01*
X-6429Y118263D01*
X-6359Y118297D01*
X-6199Y118416D01*
X-6062Y118570D01*
X-5914Y118714D01*
X-5896Y118754D01*
X-5867Y118787D01*
X-5799Y118982D01*
X-5717Y119172D01*
X-5594Y119749D01*
X-5593Y119823D01*
X-5572Y119894D01*
X-5509Y120562D01*
X-4955Y123027D01*
X-4615Y123359D01*
X-4604Y123363D01*
X-4169Y123289D01*
X-3966Y122827D01*
X-4021Y122755D01*
X-4280Y122129D01*
X-4369Y121457D01*
X-4280Y120784D01*
X-4021Y120158D01*
X-3608Y119620D01*
X-3070Y119208D01*
X-2444Y118948D01*
X-1772Y118860D01*
X-1099Y118948D01*
X-473Y119208D01*
X65Y119620D01*
X477Y120158D01*
X737Y120784D01*
X825Y121457D01*
X737Y122129D01*
X477Y122755D01*
X359Y122909D01*
X606Y123409D01*
X1197D01*
Y128559D01*
X-4543D01*
Y125825D01*
X-4675Y125734D01*
X-5043Y125637D01*
X-5262Y125859D01*
X-5446Y125984D01*
X-5625Y126117D01*
X-5651Y126123D01*
X-5674Y126138D01*
X-5841Y126173D01*
X-7598Y128111D01*
X-8352Y129100D01*
X-9308Y131916D01*
X-9266Y133014D01*
X-8970Y133782D01*
X-8053Y134940D01*
X-6918Y135634D01*
X-5192Y136315D01*
X-3572Y136252D01*
X-2178Y135907D01*
X-2048Y135901D01*
X-1921Y135871D01*
X-1556Y135856D01*
X-1410Y135880D01*
X-1263Y135879D01*
X-1167Y135918D01*
X-1064Y135934D01*
X-938Y136012D01*
X-802Y136068D01*
X-728Y136141D01*
X-640Y136195D01*
X-553Y136314D01*
X-448Y136418D01*
X-168Y136834D01*
X100Y137076D01*
X377Y137258D01*
X966Y137523D01*
X1498Y137639D01*
X2661Y137594D01*
X2686Y137598D01*
X2711Y137593D01*
X3876D01*
X4403Y137456D01*
X4980Y137168D01*
X5250Y136976D01*
X5513Y136719D01*
X5638Y136536D01*
X5945Y136336D01*
X6055Y136264D01*
X6055Y136264D01*
X6055Y136264D01*
X7027Y135874D01*
X7034Y135873D01*
X7041Y135869D01*
X7278Y135827D01*
X7516Y135782D01*
X7524Y135784D01*
X7531Y135783D01*
X9987Y135839D01*
X12632Y134803D01*
X13963Y133241D01*
X13655Y129795D01*
X11913Y127120D01*
X10730Y126007D01*
X10250Y125627D01*
X10216Y125586D01*
X10170Y125557D01*
X9965Y125365D01*
X9528Y125509D01*
X9465Y125560D01*
Y128559D01*
X3724D01*
Y123409D01*
X4391D01*
X4638Y122909D01*
X4444Y122657D01*
X4184Y122030D01*
X4096Y121358D01*
X4184Y120686D01*
X4444Y120060D01*
X4857Y119522D01*
X5394Y119109D01*
X6021Y118850D01*
X6693Y118761D01*
X7365Y118850D01*
X7991Y119109D01*
X8529Y119522D01*
X8942Y120060D01*
X9201Y120686D01*
X9290Y121358D01*
X9201Y122030D01*
X8942Y122657D01*
X8748Y122909D01*
X8995Y123409D01*
X9465D01*
X9700Y123007D01*
X9709Y122982D01*
X10210Y120255D01*
X10247Y119585D01*
X10266Y119513D01*
X10264Y119439D01*
X10364Y118858D01*
X10438Y118665D01*
X10498Y118467D01*
X10527Y118434D01*
X10542Y118393D01*
X10684Y118243D01*
X10816Y118084D01*
X10971Y117958D01*
X11040Y117921D01*
X11096Y117868D01*
X11258Y117806D01*
X11411Y117725D01*
X11489Y117718D01*
X11561Y117690D01*
X11734Y117694D01*
X11907Y117678D01*
X11981Y117701D01*
X12059Y117703D01*
X12345Y117768D01*
X12498Y117836D01*
X12637Y117875D01*
X16428Y119792D01*
X20187Y121346D01*
X25313Y122509D01*
X32600Y123434D01*
X41059Y123895D01*
X41069Y123897D01*
X41078Y123896D01*
X45042Y124169D01*
X45116Y124189D01*
X45192Y124189D01*
X53327Y125733D01*
X53389Y125758D01*
X53456Y125765D01*
X66597Y129713D01*
X67256D01*
X67745Y129811D01*
X68159Y130087D01*
X68483Y130412D01*
X75905Y132758D01*
X79629Y133758D01*
X85361Y134828D01*
X91678D01*
X95078Y133929D01*
X97376Y132693D01*
X98539Y131755D01*
X99572Y130466D01*
X99949Y129625D01*
X100048Y128764D01*
X99870Y127640D01*
X99435Y126680D01*
X97958Y125073D01*
X95662Y123154D01*
X93901Y121933D01*
X90946Y120337D01*
X86814Y118727D01*
X86814Y118727D01*
X86813Y118727D01*
X80882Y116413D01*
X80818Y116372D01*
X80745Y116350D01*
X76560Y114119D01*
X76533Y114097D01*
X76500Y114086D01*
X72048Y111399D01*
X72034Y111387D01*
X72018Y111380D01*
X71020Y110741D01*
X67246Y108507D01*
X62251Y106189D01*
X55927Y104572D01*
X46421Y103360D01*
X36122Y102715D01*
X29342Y102891D01*
X25549Y103330D01*
X23545Y103614D01*
X23434Y103607D01*
X23323Y103626D01*
X23228Y103622D01*
X23110Y103595D01*
X22987Y103591D01*
X22963Y103585D01*
X22900Y103557D01*
X22873Y103555D01*
X22817Y103526D01*
X22743Y103509D01*
X22682Y103464D01*
X22636Y103451D01*
X22606Y103426D01*
X22514Y103386D01*
X22498Y103375D01*
X22469Y103344D01*
X22431Y103325D01*
X22347Y103223D01*
X22339Y103218D01*
X22331Y103204D01*
X22328Y103202D01*
X22249Y103137D01*
X22219Y103083D01*
X22154Y103015D01*
X22139Y102975D01*
X22112Y102943D01*
X22068Y102804D01*
X22011Y102699D01*
X22003Y102626D01*
X21974Y102550D01*
X21975Y102508D01*
X21962Y102468D01*
X21961Y102459D01*
X21972Y102331D01*
X21959Y102204D01*
X21984Y102121D01*
X21985Y102052D01*
X22000Y102018D01*
X22005Y101963D01*
X22064Y101849D01*
X22095Y101738D01*
X22099Y101733D01*
X22101Y101726D01*
X22106Y101716D01*
X22166Y101642D01*
X22186Y101596D01*
X22206Y101578D01*
X22235Y101521D01*
X22254Y101506D01*
X22255Y101504D01*
X22323Y101445D01*
X22401Y101345D01*
X22428Y101321D01*
X22537Y101260D01*
X22631Y101178D01*
X22697Y101141D01*
X22768Y101117D01*
X22829Y101075D01*
X23099Y100961D01*
X23140Y100952D01*
X23176Y100931D01*
X24350Y100520D01*
X24374Y100517D01*
X24396Y100505D01*
X31573Y98300D01*
X31610Y98296D01*
X31643Y98281D01*
X39048Y96461D01*
X39122Y96457D01*
X39192Y96434D01*
X48613Y95239D01*
X48651Y95242D01*
X48689Y95232D01*
X61026Y94413D01*
X61066Y94403D01*
X67349Y94097D01*
X71289Y93764D01*
X74574Y93349D01*
X77963Y92787D01*
X80446Y92312D01*
X81566Y92042D01*
X84488Y91146D01*
X87011Y90128D01*
X90018Y88657D01*
X91008Y87917D01*
X90841Y87417D01*
X85713D01*
Y86372D01*
X80063D01*
X78039Y88396D01*
X78089Y88779D01*
X78001Y89452D01*
X77741Y90078D01*
X77328Y90616D01*
X76791Y91029D01*
X76164Y91288D01*
X75492Y91377D01*
X74820Y91288D01*
X74194Y91029D01*
X73656Y90616D01*
X73243Y90078D01*
X72984Y89452D01*
X72895Y88779D01*
X72984Y88107D01*
X73243Y87481D01*
X73656Y86943D01*
X74194Y86530D01*
X74820Y86271D01*
X75492Y86182D01*
X75876Y86233D01*
X78348Y83761D01*
X78844Y83429D01*
X79429Y83313D01*
X85713D01*
Y82268D01*
X91453D01*
Y86960D01*
X91953Y87211D01*
X93068Y86377D01*
X93970Y85550D01*
X94922Y84426D01*
X95709Y83306D01*
X96376Y82166D01*
X96819Y81249D01*
X97031Y80470D01*
Y80052D01*
X96874Y79237D01*
X96453Y78355D01*
X96042Y77754D01*
X95325Y77145D01*
X93820Y76304D01*
X93720Y76312D01*
X93609Y76276D01*
X93492Y76264D01*
X91855Y75759D01*
X91453Y76056D01*
Y77650D01*
X89083D01*
Y75575D01*
X89582D01*
X89657Y75080D01*
X88211Y74634D01*
X79812Y73951D01*
X75483Y73684D01*
X73234Y73554D01*
X73202Y73546D01*
X73170Y73549D01*
X71869Y73408D01*
X71818Y73392D01*
X71764Y73392D01*
X69647Y72984D01*
X69614Y72971D01*
X69579Y72969D01*
X67633Y72484D01*
X67572Y72455D01*
X67505Y72445D01*
X64542Y71367D01*
X64540Y71366D01*
X64538Y71365D01*
X61827Y70370D01*
X61826Y70369D01*
X61826Y70369D01*
X59801Y69624D01*
X58053Y69108D01*
X55653Y68632D01*
X53466Y68535D01*
X45826Y68870D01*
X39257Y69477D01*
X33099Y70315D01*
X26399Y71662D01*
X21465Y73037D01*
X17194Y74689D01*
X13111Y76770D01*
X10180Y78650D01*
X9608Y79173D01*
X9418Y79288D01*
X9235Y79410D01*
X9207Y79416D01*
X9182Y79431D01*
X8962Y79464D01*
X8747Y79507D01*
X7892D01*
X7529Y79823D01*
X7454Y80292D01*
X7271Y85200D01*
X7262Y85567D01*
X7259Y85695D01*
X7259Y85696D01*
X7357Y86184D01*
X8654Y92625D01*
X8674Y93253D01*
D01*
X8743Y95424D01*
X8758Y95907D01*
X8771Y96317D01*
X8019Y96470D01*
X8066Y96283D01*
X8066Y96282D01*
X8066Y96281D01*
X8070Y96268D01*
X8159Y95866D01*
X8242Y95392D01*
X8242D01*
X8278Y95163D01*
X8282Y94665D01*
Y94017D01*
X8279Y93958D01*
X8260Y93556D01*
X8260Y93554D01*
X8178Y93365D01*
X8178D01*
X8178Y93365D01*
Y93365D01*
X7989Y92932D01*
X7924Y92784D01*
X7729Y92355D01*
X7512Y92071D01*
X7365Y91840D01*
Y90633D01*
X7365D01*
X7365Y90627D01*
X7364Y90616D01*
X7363Y90605D01*
X7362Y90595D01*
X7361Y90589D01*
X7253Y89972D01*
X7253D01*
X7253Y89971D01*
X7253Y89968D01*
X7252Y89966D01*
X7251Y89963D01*
X7251Y89962D01*
X7140Y89455D01*
X7140D01*
X7139Y89451D01*
X7137Y89441D01*
X7134Y89432D01*
X7131Y89423D01*
X6604Y88058D01*
X6601Y88050D01*
X6598Y88043D01*
X6594Y88035D01*
X5862Y86693D01*
X5474Y85902D01*
X5257Y85460D01*
X5257D01*
X5257Y85460D01*
X5256Y85460D01*
X5256Y85460D01*
X5256Y85459D01*
X5115Y85202D01*
X5038Y85062D01*
X5019Y85021D01*
X4749Y84438D01*
X4553Y83697D01*
X4414Y82915D01*
Y81819D01*
X4536Y80846D01*
X4778Y79608D01*
X5016Y78773D01*
X4221Y78163D01*
X4221Y78163D01*
X4084Y77975D01*
X4040Y77873D01*
X3964Y77752D01*
X3955Y77738D01*
X3932Y77625D01*
X3886Y77518D01*
X3884Y77382D01*
X3883Y77378D01*
X3301D01*
Y85811D01*
X4642D01*
Y91354D01*
X-1098D01*
Y85811D01*
X242D01*
Y77378D01*
X-385D01*
X-688Y77776D01*
X-655Y77897D01*
X-643Y78067D01*
X-610Y78234D01*
X-625Y78313D01*
X-620Y78394D01*
X-673Y78555D01*
X-707Y78722D01*
X-752Y78789D01*
X-777Y78866D01*
X-889Y78995D01*
X-984Y79136D01*
X-973Y79147D01*
X-1683Y79692D01*
X-1669Y79734D01*
X-1379Y80961D01*
X-1218Y81929D01*
X-1175Y83024D01*
X-1284Y83811D01*
X-1451Y84559D01*
X-1715Y85194D01*
X-1917Y85598D01*
X-1918Y85600D01*
X-1920Y85603D01*
X-1921Y85606D01*
X-1922Y85609D01*
X-2475Y86855D01*
X-2954Y87822D01*
X-3158Y88238D01*
X-3304Y88659D01*
X-3485Y89191D01*
X-3635Y89629D01*
X-3715Y90065D01*
X-3736Y90182D01*
X-3798Y90637D01*
X-3821Y90808D01*
X-3804Y90908D01*
X-3795Y90957D01*
X-3865Y91290D01*
X-4197Y92879D01*
X-4197Y92879D01*
X-4239Y93362D01*
X-4443Y95854D01*
X-4443Y95854D01*
X-4358Y96318D01*
X-4307Y96511D01*
X-4307Y96511D01*
X-4305Y96516D01*
X-4303Y96524D01*
X-4303Y96525D01*
X-4117Y97167D01*
X-5023Y96902D01*
X-5164Y96100D01*
X-5214Y94822D01*
X-5111Y92860D01*
X-4667Y90308D01*
X-4429Y89212D01*
X-4323Y88722D01*
X-4235Y88241D01*
X-3812Y85929D01*
X-3807Y85899D01*
X-3729Y85455D01*
X-3729Y85455D01*
X-3717Y84978D01*
X-3658Y82809D01*
X-3658Y82806D01*
X-3658Y82803D01*
Y82798D01*
X-3659Y82789D01*
X-3659Y82780D01*
X-3660Y82772D01*
X-3661Y82767D01*
X-3842Y81409D01*
X-3843Y81402D01*
X-3846Y81388D01*
X-3849Y81374D01*
X-3853Y81361D01*
X-3856Y81354D01*
X-4169Y80492D01*
X-4244Y80502D01*
Y80487D01*
X-5099D01*
X-5152Y80477D01*
X-5205Y80483D01*
X-5395Y80428D01*
X-5587Y80390D01*
X-5632Y80360D01*
X-5684Y80345D01*
X-5838Y80222D01*
X-6001Y80113D01*
X-6031Y80068D01*
X-6074Y80035D01*
X-6594Y79419D01*
X-7104Y78988D01*
X-10106Y77223D01*
X-14267Y75304D01*
X-18600Y73820D01*
X-21193Y73205D01*
X-21215Y73213D01*
X-21404Y73206D01*
X-21592Y73217D01*
X-26897Y72488D01*
X-27097Y72966D01*
X-26708Y73264D01*
X-26075Y74089D01*
X-25677Y75051D01*
X-25607Y75583D01*
X-33449D01*
X-33379Y75051D01*
X-32980Y74089D01*
X-32347Y73264D01*
X-31521Y72630D01*
X-31027Y72426D01*
X-31093Y71912D01*
X-38083Y70951D01*
X-52536Y70847D01*
X-58195Y72408D01*
X-58196Y72411D01*
X-58231Y72425D01*
X-58700Y72598D01*
X-59042Y72734D01*
X-61705Y73832D01*
X-61707Y73832D01*
X-61709Y73834D01*
X-64628Y75027D01*
X-64694Y75040D01*
X-64754Y75071D01*
X-66680Y75632D01*
X-66715Y75635D01*
X-66747Y75649D01*
X-68847Y76140D01*
X-68900Y76142D01*
X-68951Y76159D01*
X-70900Y76448D01*
X-70932Y76446D01*
X-70964Y76456D01*
X-72544Y76609D01*
X-75696Y76951D01*
X-75720Y76949D01*
X-75742Y76955D01*
X-81559Y77373D01*
X-84058Y77647D01*
X-87248Y78397D01*
X-87308Y78421D01*
X-87209Y78921D01*
X-85539D01*
Y80996D01*
X-87910D01*
Y79210D01*
X-88386Y78866D01*
X-90457Y79719D01*
X-92243Y80810D01*
X-92935Y81446D01*
X-93323Y82063D01*
X-93709Y82960D01*
X-93835Y83782D01*
X-93818Y84200D01*
X-93576Y84969D01*
X-93097Y85868D01*
X-92386Y86981D01*
X-91556Y88070D01*
X-90561Y89156D01*
X-89627Y89947D01*
X-88397Y90794D01*
X-87910Y90522D01*
X-87910Y90409D01*
Y85614D01*
X-82169D01*
Y86660D01*
X-74606D01*
X-74021Y86776D01*
X-73525Y87107D01*
X-70856Y89776D01*
X-70472Y89726D01*
X-69800Y89814D01*
X-69174Y90074D01*
X-68636Y90487D01*
X-68223Y91024D01*
X-67964Y91651D01*
X-67875Y92323D01*
X-67964Y92995D01*
X-68223Y93621D01*
X-68636Y94159D01*
X-69174Y94572D01*
X-69800Y94831D01*
X-70472Y94920D01*
X-71145Y94831D01*
X-71771Y94572D01*
X-72309Y94159D01*
X-72721Y93621D01*
X-72981Y92995D01*
X-73070Y92323D01*
X-73019Y91939D01*
X-75240Y89718D01*
X-82169D01*
Y90764D01*
X-87510Y90764D01*
X-87511D01*
X-87511D01*
X-87559Y90764D01*
X-87599Y90894D01*
X-87714Y91264D01*
X-86491Y92106D01*
X-83428Y93459D01*
X-80867Y94377D01*
X-77912Y95158D01*
X-76783Y95384D01*
X-74283Y95762D01*
X-70875Y96191D01*
X-67577Y96477D01*
X-63627Y96656D01*
X-60731Y96684D01*
X-57498D01*
X-57291Y96725D01*
X-44936Y97061D01*
X-44898Y97070D01*
X-44859Y97065D01*
X-35399Y97891D01*
X-35328Y97912D01*
X-35254Y97912D01*
X-27784Y99442D01*
X-27750Y99456D01*
X-27713Y99458D01*
X-20456Y101381D01*
X-20433Y101392D01*
X-20409Y101395D01*
X-19220Y101759D01*
X-19183Y101779D01*
X-19142Y101786D01*
X-18868Y101890D01*
X-18805Y101929D01*
X-18733Y101950D01*
X-18666Y101985D01*
X-18568Y102063D01*
X-18458Y102120D01*
X-18430Y102142D01*
X-18348Y102239D01*
X-18277Y102296D01*
X-18276Y102298D01*
X-18257Y102313D01*
X-18225Y102368D01*
X-18205Y102386D01*
X-18183Y102430D01*
X-18120Y102502D01*
X-18114Y102512D01*
X-18112Y102518D01*
X-18108Y102523D01*
X-18073Y102634D01*
X-18009Y102745D01*
X-18002Y102800D01*
X-17986Y102833D01*
X-17982Y102902D01*
X-17954Y102983D01*
X-17963Y103112D01*
X-17946Y103239D01*
X-17947Y103248D01*
X-17958Y103288D01*
X-17955Y103330D01*
X-17982Y103408D01*
X-17987Y103481D01*
X-18039Y103588D01*
X-18078Y103728D01*
X-18103Y103762D01*
X-18117Y103802D01*
X-18180Y103872D01*
X-18207Y103927D01*
X-18284Y103995D01*
X-18286Y103998D01*
X-18294Y104012D01*
X-18302Y104018D01*
X-18383Y104122D01*
X-18419Y104143D01*
X-18447Y104175D01*
X-18462Y104187D01*
X-18552Y104231D01*
X-18581Y104256D01*
X-18627Y104271D01*
X-18687Y104318D01*
X-18760Y104338D01*
X-18815Y104370D01*
X-18842Y104373D01*
X-18903Y104403D01*
X-18927Y104410D01*
X-19049Y104418D01*
X-19167Y104451D01*
X-19261Y104458D01*
X-19373Y104444D01*
X-19484Y104455D01*
X-21513Y104248D01*
X-21566Y104232D01*
X-23820Y103984D01*
X-25420Y103914D01*
X-29659Y103887D01*
X-34364Y104071D01*
X-40283Y104739D01*
X-47863Y105860D01*
X-52168Y106674D01*
X-55129Y107426D01*
X-57316Y108172D01*
X-59174Y108966D01*
X-61518Y110180D01*
X-63412Y111274D01*
X-65369Y112565D01*
X-66264Y113165D01*
X-66829Y113560D01*
X-66896Y113589D01*
X-74186Y118152D01*
X-74755Y118555D01*
X-74819Y118584D01*
X-74873Y118629D01*
X-75319Y118877D01*
X-75340Y118884D01*
X-75358Y118898D01*
X-77491Y119989D01*
X-77538Y120003D01*
X-77578Y120030D01*
X-80037Y121063D01*
X-82102Y122020D01*
X-82114Y122028D01*
X-86180Y123798D01*
X-89070Y125508D01*
X-90782Y126797D01*
X-91707Y127634D01*
X-91515Y128134D01*
X-84039D01*
Y136039D01*
X-91713D01*
X-91829Y136539D01*
X-89778Y137541D01*
X-86345Y138307D01*
X-80034Y138060D01*
D02*
G37*
G36*
X1878Y65535D02*
X3897D01*
Y64154D01*
X3825Y63899D01*
X3824Y63892D01*
X3741Y63662D01*
X3763Y63164D01*
X3857Y62784D01*
X3888Y62718D01*
X3899Y62646D01*
X4045Y62253D01*
X4189Y61412D01*
X4334Y60490D01*
X4386Y59153D01*
X4355Y55823D01*
X4199Y52502D01*
X4207Y52447D01*
X4198Y52392D01*
X4313Y49446D01*
X4323Y49406D01*
X4319Y49365D01*
X4648Y46172D01*
X4813Y44182D01*
X4813Y42150D01*
X4817Y42128D01*
X4817Y40269D01*
X4652Y38278D01*
X4323Y35085D01*
X4327Y35045D01*
X4318Y35004D01*
X4202Y32059D01*
X4211Y32004D01*
X4203Y31949D01*
X4340Y29039D01*
X4285Y28562D01*
Y28562D01*
X4187Y28103D01*
X3989Y27176D01*
X3730Y25223D01*
X3699Y21214D01*
X2300Y18380D01*
X2292Y18348D01*
X2273Y18322D01*
X2228Y18109D01*
X2171Y17899D01*
X2175Y17866D01*
X2169Y17835D01*
X2115Y14413D01*
X2118Y14397D01*
X2115Y14380D01*
X2134Y12490D01*
X1687Y12267D01*
X1595Y12337D01*
X873Y12636D01*
X598Y12672D01*
Y8366D01*
X-402D01*
Y12672D01*
X-677Y12636D01*
X-1181Y12427D01*
X-1661Y12728D01*
X-1413Y16135D01*
X-1416Y16156D01*
X-1411Y16177D01*
X-1242Y20494D01*
X-1243Y20501D01*
X-1242Y20507D01*
X-1281Y20740D01*
X-1320Y20986D01*
X-1324Y20991D01*
X-1325Y20998D01*
X-1518Y21506D01*
X-1593Y21810D01*
X-1624Y21877D01*
X-1636Y21949D01*
X-1781Y22342D01*
X-1925Y23183D01*
X-2070Y24104D01*
X-2122Y25442D01*
X-2097Y28134D01*
X189D01*
Y30709D01*
Y33283D01*
X-1977D01*
X-2023Y34466D01*
X-1676Y34827D01*
X3559D01*
Y39976D01*
X3301D01*
Y41385D01*
X3493Y41848D01*
X3581Y42520D01*
X3493Y43192D01*
X3233Y43818D01*
X2821Y44356D01*
X2283Y44769D01*
X1656Y45028D01*
X984Y45117D01*
X312Y45028D01*
X-314Y44769D01*
X-852Y44356D01*
X-1265Y43818D01*
X-1524Y43192D01*
X-1613Y42520D01*
X-1524Y41848D01*
X-1265Y41221D01*
X-852Y40683D01*
X-582Y40476D01*
X-752Y39976D01*
X-2181D01*
X-2541Y40315D01*
X-2549Y40413D01*
X-2549Y42445D01*
X-2549Y44477D01*
X-2384Y46467D01*
X-2055Y49661D01*
X-2059Y49701D01*
X-2049Y49741D01*
X-1934Y52687D01*
X-1943Y52742D01*
X-1935Y52797D01*
X-2091Y56119D01*
X-2122Y59448D01*
X-2070Y60786D01*
X-1925Y61707D01*
X-1781Y62548D01*
X-1681Y62819D01*
X-1482Y63035D01*
X-1310Y63502D01*
X-1330Y64000D01*
X-1392Y64257D01*
X-1365Y64944D01*
X-1369Y64969D01*
X-1364Y64994D01*
Y65535D01*
X878D01*
Y68110D01*
X1878D01*
Y65535D01*
D02*
G37*
%LPC*%
G36*
X-51287Y89287D02*
X-53362D01*
Y86917D01*
X-51287D01*
Y89287D01*
D02*
G37*
G36*
X5035Y110252D02*
X-705D01*
Y105102D01*
X2577D01*
X3659Y104021D01*
X3467Y103559D01*
X2665D01*
Y101484D01*
X5035D01*
Y101991D01*
X5497Y102182D01*
X10085Y97595D01*
Y96653D01*
X10201Y96068D01*
X10533Y95572D01*
X11956Y94148D01*
X11961Y94116D01*
X12220Y93490D01*
X12633Y92952D01*
X13171Y92539D01*
X13797Y92280D01*
X14356Y92206D01*
X14453Y92193D01*
X14453Y91991D01*
Y89257D01*
X11900Y86704D01*
X11516Y86755D01*
X10844Y86666D01*
X10218Y86407D01*
X9680Y85994D01*
X9267Y85456D01*
X9008Y84830D01*
X8919Y84158D01*
X9008Y83486D01*
X9267Y82859D01*
X9680Y82321D01*
X10218Y81909D01*
X10844Y81649D01*
X11516Y81561D01*
X12189Y81649D01*
X12815Y81909D01*
X13353Y82321D01*
X13765Y82859D01*
X14025Y83486D01*
X14113Y84158D01*
X14063Y84541D01*
X16022Y86500D01*
X19602D01*
Y92240D01*
X16200D01*
X16030Y92740D01*
X16306Y92952D01*
X16718Y93490D01*
X16978Y94116D01*
X17066Y94788D01*
X16978Y95460D01*
X16718Y96087D01*
X16306Y96624D01*
X15768Y97037D01*
X15141Y97297D01*
X14469Y97385D01*
X13797Y97297D01*
X13617Y97222D01*
X13144Y97567D01*
Y98228D01*
X13027Y98814D01*
X12696Y99310D01*
X5035Y106970D01*
Y110252D01*
D02*
G37*
G36*
X-14083Y89756D02*
X-16158D01*
Y87386D01*
X-14083D01*
Y89756D01*
D02*
G37*
G36*
X-48213Y89287D02*
X-50287D01*
Y86917D01*
X-48213D01*
Y89287D01*
D02*
G37*
G36*
X26295Y88870D02*
X24220D01*
Y86500D01*
X26295D01*
Y88870D01*
D02*
G37*
G36*
X59169Y87417D02*
X57095D01*
Y85047D01*
X59169D01*
Y87417D01*
D02*
G37*
G36*
X56094D02*
X54020D01*
Y85047D01*
X56094D01*
Y87417D01*
D02*
G37*
G36*
X23220Y88870D02*
X21146D01*
Y86500D01*
X23220D01*
Y88870D01*
D02*
G37*
G36*
X52476Y87417D02*
X47327D01*
Y86077D01*
X43701D01*
X43115Y85960D01*
X42619Y85629D01*
X42313Y85322D01*
X41929Y85373D01*
X41257Y85284D01*
X40631Y85025D01*
X40093Y84612D01*
X39680Y84074D01*
X39421Y83448D01*
X39332Y82776D01*
X39421Y82103D01*
X39680Y81477D01*
X40093Y80939D01*
X40631Y80527D01*
X41257Y80267D01*
X41929Y80179D01*
X42601Y80267D01*
X43228Y80527D01*
X43766Y80939D01*
X44178Y81477D01*
X44438Y82103D01*
X44526Y82776D01*
X44739Y83018D01*
X47327D01*
Y81677D01*
X52476D01*
Y87417D01*
D02*
G37*
G36*
X-6890Y104172D02*
X-7562Y104083D01*
X-8188Y103824D01*
X-8726Y103411D01*
X-9139Y102873D01*
X-9398Y102247D01*
X-9487Y101575D01*
X-9398Y100903D01*
X-9139Y100276D01*
X-8726Y99738D01*
X-8188Y99326D01*
X-7562Y99066D01*
X-6890Y98978D01*
X-6218Y99066D01*
X-5591Y99326D01*
X-5163Y99654D01*
X-1098Y95589D01*
Y92110D01*
X4642D01*
Y97654D01*
X1228D01*
X1005Y97932D01*
X1215Y98409D01*
X1665D01*
Y100484D01*
X-705D01*
Y100174D01*
X-1167Y99983D01*
X-3840Y102656D01*
X-4336Y102988D01*
X-4799Y103080D01*
X-5053Y103411D01*
X-5591Y103824D01*
X-6218Y104083D01*
X-6890Y104172D01*
D02*
G37*
G36*
X-11008Y93126D02*
X-13083D01*
Y90756D01*
X-11008D01*
Y93126D01*
D02*
G37*
G36*
X1665Y103559D02*
X-705D01*
Y101484D01*
X1665D01*
Y103559D01*
D02*
G37*
G36*
X5035Y100484D02*
X2665D01*
Y98409D01*
X5035D01*
Y100484D01*
D02*
G37*
G36*
X-14083Y93126D02*
X-16158D01*
Y90756D01*
X-14083D01*
Y93126D01*
D02*
G37*
G36*
X-17701D02*
X-22850D01*
Y91785D01*
X-23228D01*
X-23814Y91669D01*
X-24310Y91337D01*
X-26487Y89161D01*
X-26870Y89211D01*
X-27542Y89123D01*
X-28169Y88863D01*
X-28706Y88450D01*
X-29119Y87913D01*
X-29379Y87286D01*
X-29467Y86614D01*
X-29379Y85942D01*
X-29119Y85316D01*
X-28706Y84778D01*
X-28169Y84365D01*
X-27542Y84106D01*
X-26870Y84017D01*
X-26198Y84106D01*
X-25572Y84365D01*
X-25034Y84778D01*
X-24621Y85316D01*
X-24362Y85942D01*
X-24273Y86614D01*
X-24324Y86998D01*
X-23312Y88009D01*
X-22850Y87818D01*
Y87386D01*
X-17701D01*
Y93126D01*
D02*
G37*
G36*
X-11008Y89756D02*
X-13083D01*
Y87386D01*
X-11008D01*
Y89756D01*
D02*
G37*
G36*
X26295Y92240D02*
X24220D01*
Y89870D01*
X26295D01*
Y92240D01*
D02*
G37*
G36*
X23220D02*
X21146D01*
Y89870D01*
X23220D01*
Y92240D01*
D02*
G37*
G36*
X-29028Y80004D02*
Y76583D01*
X-25607D01*
X-25677Y77115D01*
X-26075Y78076D01*
X-26708Y78902D01*
X-27534Y79535D01*
X-28496Y79934D01*
X-29028Y80004D01*
D02*
G37*
G36*
X-30028D02*
X-30559Y79934D01*
X-31521Y79535D01*
X-32347Y78902D01*
X-32980Y78076D01*
X-33379Y77115D01*
X-33449Y76583D01*
X-30028D01*
Y80004D01*
D02*
G37*
G36*
X34653D02*
Y76583D01*
X38075D01*
X38005Y77115D01*
X37606Y78076D01*
X36973Y78902D01*
X36147Y79535D01*
X35185Y79934D01*
X34653Y80004D01*
D02*
G37*
G36*
X33654D02*
X33122Y79934D01*
X32160Y79535D01*
X31334Y78902D01*
X30701Y78076D01*
X30303Y77115D01*
X30233Y76583D01*
X33654D01*
Y80004D01*
D02*
G37*
G36*
X88083Y77650D02*
X85713D01*
Y75575D01*
X88083D01*
Y77650D01*
D02*
G37*
G36*
X38075Y75583D02*
X34653D01*
Y72162D01*
X35185Y72232D01*
X36147Y72630D01*
X36973Y73264D01*
X37606Y74089D01*
X38005Y75051D01*
X38075Y75583D01*
D02*
G37*
G36*
X33654D02*
X30233D01*
X30303Y75051D01*
X30701Y74089D01*
X31334Y73264D01*
X32160Y72630D01*
X33122Y72232D01*
X33654Y72162D01*
Y75583D01*
D02*
G37*
G36*
X88083Y80724D02*
X85713D01*
Y78650D01*
X88083D01*
Y80724D01*
D02*
G37*
G36*
X-41520Y89287D02*
X-46669D01*
Y83547D01*
X-41520D01*
Y84888D01*
X-36987D01*
X-36947Y84842D01*
X-36859Y84170D01*
X-36599Y83544D01*
X-36187Y83006D01*
X-35649Y82593D01*
X-35023Y82334D01*
X-34350Y82245D01*
X-33678Y82334D01*
X-33052Y82593D01*
X-32514Y83006D01*
X-32101Y83544D01*
X-31842Y84170D01*
X-31753Y84842D01*
X-31842Y85515D01*
X-32101Y86141D01*
X-32514Y86679D01*
X-33052Y87092D01*
X-33678Y87351D01*
X-34350Y87440D01*
X-34473Y87423D01*
X-34549Y87499D01*
X-35045Y87830D01*
X-35630Y87947D01*
X-41520D01*
Y89287D01*
D02*
G37*
G36*
X-82169Y84071D02*
X-84539D01*
Y81996D01*
X-82169D01*
Y84071D01*
D02*
G37*
G36*
X-48213Y85917D02*
X-50287D01*
Y83547D01*
X-48213D01*
Y85917D01*
D02*
G37*
G36*
X-51287D02*
X-53362D01*
Y83547D01*
X-51287D01*
Y85917D01*
D02*
G37*
G36*
X-85539Y84071D02*
X-87910D01*
Y81996D01*
X-85539D01*
Y84071D01*
D02*
G37*
G36*
X-82169Y80996D02*
X-84539D01*
Y78921D01*
X-82169D01*
Y80996D01*
D02*
G37*
G36*
X91453Y80724D02*
X89083D01*
Y78650D01*
X91453D01*
Y80724D01*
D02*
G37*
G36*
X59169Y84047D02*
X57095D01*
Y81677D01*
X59169D01*
Y84047D01*
D02*
G37*
G36*
X56094D02*
X54020D01*
Y81677D01*
X56094D01*
Y84047D01*
D02*
G37*
G36*
X-67232Y124401D02*
X-69307D01*
Y122031D01*
X-67232D01*
Y124401D01*
D02*
G37*
G36*
X-78842Y136757D02*
X-79515Y136669D01*
X-80141Y136409D01*
X-80679Y135996D01*
X-81091Y135459D01*
X-81351Y134832D01*
X-81439Y134160D01*
X-81351Y133488D01*
X-81091Y132862D01*
X-80679Y132324D01*
X-80372Y132088D01*
Y130319D01*
X-80255Y129734D01*
X-79924Y129237D01*
X-76000Y125313D01*
Y122031D01*
X-70850D01*
Y127772D01*
X-74132D01*
X-77313Y130952D01*
Y132088D01*
X-77006Y132324D01*
X-76593Y132862D01*
X-76334Y133488D01*
X-76245Y134160D01*
X-76334Y134832D01*
X-76593Y135459D01*
X-77006Y135996D01*
X-77544Y136409D01*
X-78170Y136669D01*
X-78842Y136757D01*
D02*
G37*
G36*
X95882Y132398D02*
X87976D01*
Y124492D01*
X95882D01*
Y132398D01*
D02*
G37*
G36*
X-64157Y124401D02*
X-66232D01*
Y122031D01*
X-64157D01*
Y124401D01*
D02*
G37*
G36*
X74819Y124031D02*
X72744D01*
Y121661D01*
X74819D01*
Y124031D01*
D02*
G37*
G36*
Y120661D02*
X72744D01*
Y118291D01*
X74819D01*
Y120661D01*
D02*
G37*
G36*
X71744D02*
X69669D01*
Y118291D01*
X71744D01*
Y120661D01*
D02*
G37*
G36*
Y124031D02*
X69669D01*
Y121661D01*
X71744D01*
Y124031D01*
D02*
G37*
G36*
X84842Y131731D02*
X84170Y131642D01*
X83544Y131383D01*
X83006Y130970D01*
X82593Y130432D01*
X82334Y129806D01*
X82245Y129134D01*
X82334Y128462D01*
X82593Y127835D01*
X82964Y127352D01*
X79644Y124031D01*
X76362D01*
Y118291D01*
X81512D01*
Y121573D01*
X85924Y125986D01*
X86256Y126482D01*
X86371Y127061D01*
X86679Y127297D01*
X87092Y127835D01*
X87351Y128462D01*
X87440Y129134D01*
X87351Y129806D01*
X87092Y130432D01*
X86679Y130970D01*
X86141Y131383D01*
X85515Y131642D01*
X84842Y131731D01*
D02*
G37*
G36*
X-67232Y127772D02*
X-69307D01*
Y125401D01*
X-67232D01*
Y127772D01*
D02*
G37*
G36*
X1197Y135252D02*
X-1173D01*
Y133177D01*
X1197D01*
Y135252D01*
D02*
G37*
G36*
X-2173D02*
X-4543D01*
Y133177D01*
X-2173D01*
Y135252D01*
D02*
G37*
G36*
X9465D02*
X7095D01*
Y133177D01*
X9465D01*
Y135252D01*
D02*
G37*
G36*
X6095D02*
X3724D01*
Y133177D01*
X6095D01*
Y135252D01*
D02*
G37*
G36*
X9465Y132177D02*
X7095D01*
Y130102D01*
X9465D01*
Y132177D01*
D02*
G37*
G36*
X-2173D02*
X-4543D01*
Y130102D01*
X-2173D01*
Y132177D01*
D02*
G37*
G36*
X-64157Y127772D02*
X-66232D01*
Y125401D01*
X-64157D01*
Y127772D01*
D02*
G37*
G36*
X6095Y132177D02*
X3724D01*
Y130102D01*
X6095D01*
Y132177D01*
D02*
G37*
G36*
X1197D02*
X-1173D01*
Y130102D01*
X1197D01*
Y132177D01*
D02*
G37*
G36*
X-36795Y119307D02*
X-38870D01*
Y116937D01*
X-36795D01*
Y119307D01*
D02*
G37*
G36*
X46547Y112394D02*
X44472D01*
Y110024D01*
X46547D01*
Y112394D01*
D02*
G37*
G36*
X-11500Y110622D02*
X-13575D01*
Y108252D01*
X-11500D01*
Y110622D01*
D02*
G37*
G36*
X20760Y113008D02*
X18685D01*
Y110638D01*
X20760D01*
Y113008D01*
D02*
G37*
G36*
X49622Y112394D02*
X47547D01*
Y110024D01*
X49622D01*
Y112394D01*
D02*
G37*
G36*
X-14575Y110622D02*
X-16650D01*
Y108252D01*
X-14575D01*
Y110622D01*
D02*
G37*
G36*
X23835Y109638D02*
X21760D01*
Y107268D01*
X23835D01*
Y109638D01*
D02*
G37*
G36*
X20760D02*
X18685D01*
Y107268D01*
X20760D01*
Y109638D01*
D02*
G37*
G36*
X-27953Y120018D02*
X-28625Y119930D01*
X-29251Y119670D01*
X-29789Y119258D01*
X-30202Y118720D01*
X-30461Y118093D01*
X-30550Y117421D01*
X-30461Y116749D01*
X-30202Y116123D01*
X-29789Y115585D01*
X-29251Y115172D01*
X-28625Y114913D01*
X-27953Y114824D01*
X-27281Y114913D01*
X-26885Y115076D01*
X-23343Y111534D01*
Y108252D01*
X-18193D01*
Y113992D01*
X-21475D01*
X-25424Y117941D01*
X-25444Y118093D01*
X-25704Y118720D01*
X-26116Y119258D01*
X-26654Y119670D01*
X-27281Y119930D01*
X-27953Y120018D01*
D02*
G37*
G36*
X34252Y118542D02*
X33580Y118453D01*
X32954Y118194D01*
X32416Y117781D01*
X32003Y117243D01*
X31743Y116617D01*
X31655Y115945D01*
X31743Y115273D01*
X31907Y114877D01*
X30038Y113008D01*
X25378D01*
Y107268D01*
X30528D01*
Y109172D01*
X34743Y113387D01*
X34762Y113415D01*
X34924Y113436D01*
X35550Y113696D01*
X36088Y114109D01*
X36501Y114646D01*
X36761Y115273D01*
X36849Y115945D01*
X36761Y116617D01*
X36501Y117243D01*
X36088Y117781D01*
X35550Y118194D01*
X34924Y118453D01*
X34252Y118542D01*
D02*
G37*
G36*
X23835Y113008D02*
X21760D01*
Y110638D01*
X23835D01*
Y113008D01*
D02*
G37*
G36*
X-36795Y115937D02*
X-38870D01*
Y113567D01*
X-36795D01*
Y115937D01*
D02*
G37*
G36*
X-39870D02*
X-41945D01*
Y113567D01*
X-39870D01*
Y115937D01*
D02*
G37*
G36*
Y119307D02*
X-41945D01*
Y116937D01*
X-39870D01*
Y119307D01*
D02*
G37*
G36*
X60630Y119723D02*
X59958Y119634D01*
X59331Y119375D01*
X58794Y118962D01*
X58381Y118424D01*
X58121Y117798D01*
X58033Y117126D01*
X58083Y116742D01*
X56777Y115436D01*
X56315Y115627D01*
Y115764D01*
X51165D01*
Y110024D01*
X56315D01*
Y111364D01*
X56398D01*
X56983Y111481D01*
X57479Y111812D01*
X60246Y114579D01*
X60630Y114529D01*
X61302Y114618D01*
X61928Y114877D01*
X62466Y115290D01*
X62879Y115828D01*
X63139Y116454D01*
X63227Y117126D01*
X63139Y117798D01*
X62879Y118424D01*
X62466Y118962D01*
X61928Y119375D01*
X61302Y119634D01*
X60630Y119723D01*
D02*
G37*
G36*
X-52658Y123857D02*
X-53330Y123768D01*
X-53956Y123509D01*
X-54494Y123096D01*
X-54907Y122558D01*
X-55166Y121932D01*
X-55255Y121260D01*
X-55166Y120588D01*
X-54907Y119961D01*
X-54494Y119423D01*
X-53956Y119011D01*
X-53330Y118751D01*
X-52838Y118686D01*
X-49507Y115356D01*
X-49011Y115024D01*
X-48638Y114950D01*
Y113567D01*
X-43488D01*
Y119307D01*
X-48638D01*
Y119307D01*
X-48987Y119162D01*
X-50226Y120401D01*
X-50149Y120588D01*
X-50060Y121260D01*
X-50149Y121932D01*
X-50408Y122558D01*
X-50821Y123096D01*
X-51359Y123509D01*
X-51985Y123768D01*
X-52658Y123857D01*
D02*
G37*
G36*
X-11500Y113992D02*
X-13575D01*
Y111622D01*
X-11500D01*
Y113992D01*
D02*
G37*
G36*
X-14575D02*
X-16650D01*
Y111622D01*
X-14575D01*
Y113992D01*
D02*
G37*
G36*
X49622Y115764D02*
X47547D01*
Y113394D01*
X49622D01*
Y115764D01*
D02*
G37*
G36*
X46547D02*
X44472D01*
Y113394D01*
X46547D01*
Y115764D01*
D02*
G37*
G36*
X3559Y33283D02*
X1189D01*
Y31209D01*
X3559D01*
Y33283D01*
D02*
G37*
G36*
Y30209D02*
X1189D01*
Y28134D01*
X3559D01*
Y30209D01*
D02*
G37*
%LPD*%
D10*
X-85039Y81496D02*
D03*
Y88189D02*
D03*
X1378Y68110D02*
D03*
Y74803D02*
D03*
X88583Y78150D02*
D03*
Y84842D02*
D03*
X-1673Y132677D02*
D03*
Y125984D02*
D03*
X2165Y100984D02*
D03*
Y107677D02*
D03*
X6594Y132677D02*
D03*
Y125984D02*
D03*
X689Y30709D02*
D03*
Y37402D02*
D03*
D11*
X-50787Y86417D02*
D03*
X-44094D02*
D03*
X-13583Y90256D02*
D03*
X-20276D02*
D03*
X23720Y89370D02*
D03*
X17028D02*
D03*
X56595Y84547D02*
D03*
X49902D02*
D03*
X-66732Y124902D02*
D03*
X-73425D02*
D03*
X-39370Y116437D02*
D03*
X-46063D02*
D03*
X-14075Y111122D02*
D03*
X-20768D02*
D03*
X21260Y110138D02*
D03*
X27953D02*
D03*
X47047Y112894D02*
D03*
X53740D02*
D03*
X72244Y121161D02*
D03*
X78937D02*
D03*
D12*
X1772Y88583D02*
D03*
Y94882D02*
D03*
D13*
X-4921Y101575D02*
X1772Y94882D01*
Y75197D02*
Y88583D01*
X-6890Y101575D02*
X-4921D01*
X1378Y74803D02*
X1772Y75197D01*
X-78842Y130319D02*
Y134160D01*
Y130319D02*
X-73425Y124902D01*
X-48425Y116437D02*
X-46063D01*
X-53248Y121260D02*
X-52658D01*
X-27953Y117421D02*
X-27067D01*
X-20768Y111122D01*
X-1772Y121457D02*
Y125886D01*
X-1673Y125984D01*
X6693Y121358D02*
Y125886D01*
X6594Y125984D02*
X6693Y125886D01*
X27953Y110138D02*
X29331D01*
X33661Y114469D01*
Y115354D01*
X34252Y115945D01*
X53740Y112894D02*
X56398D01*
X60630Y117126D01*
X84842Y127067D02*
Y129134D01*
X78937Y121161D02*
X84842Y127067D01*
X-85039Y88189D02*
X-74606D01*
X-70472Y92323D01*
X-44094Y86417D02*
X-35630D01*
X-34646Y85433D01*
Y85138D02*
Y85433D01*
Y85138D02*
X-34350Y84842D01*
X-26870Y86614D02*
X-23228Y90256D01*
X-20276D01*
X11516Y84158D02*
X16729Y89370D01*
X17028D01*
X43701Y84547D02*
X49902D01*
X41929Y82776D02*
X43701Y84547D01*
X79429Y84842D02*
X88583D01*
X75492Y88779D02*
X79429Y84842D01*
X11614Y96653D02*
Y98228D01*
Y96653D02*
X13480Y94788D01*
X2165Y107677D02*
X11614Y98228D01*
X13480Y94788D02*
X14469D01*
X1772Y38976D02*
Y41791D01*
X1649Y42520D02*
X1772Y42397D01*
X984Y42520D02*
X1649D01*
X-53248Y121260D02*
X-48425Y116437D01*
D14*
X34154Y76083D02*
D03*
X-29528D02*
D03*
D15*
X-87992Y132087D02*
D03*
X91929Y128445D02*
D03*
D16*
X98Y8366D02*
D03*
D17*
X-6890Y101575D02*
D03*
X-78842Y134160D02*
D03*
X-52658Y121260D02*
D03*
X-27953Y117421D02*
D03*
X-1772Y121457D02*
D03*
X6693Y121358D02*
D03*
X34252Y115945D02*
D03*
X60630Y117126D02*
D03*
X84842Y129134D02*
D03*
X-70472Y92323D02*
D03*
X-34350Y84842D02*
D03*
X-26870Y86614D02*
D03*
X11516Y84158D02*
D03*
X41929Y82776D02*
D03*
X75492Y88779D02*
D03*
X14469Y94788D02*
D03*
X984Y42520D02*
D03*
M02*
