G04 Layer_Color=65535*
%FSLAX25Y25*%
%MOIN*%
G70*
G01*
G75*
%ADD20C,0.00984*%
%ADD21C,0.00787*%
%ADD22C,0.00600*%
D20*
X34646Y84153D02*
G03*
X34646Y84153I-492J0D01*
G01*
X-29035D02*
G03*
X-29035Y84153I-492J0D01*
G01*
X-87500Y140157D02*
G03*
X-87500Y140157I-492J0D01*
G01*
X591Y16437D02*
G03*
X591Y16437I-492J0D01*
G01*
X92421Y136516D02*
G03*
X92421Y136516I-492J0D01*
G01*
D21*
X28642Y70571D02*
Y81595D01*
X28642Y70571D02*
X39665D01*
Y81595D01*
X28642Y81595D02*
X39665D01*
X-35039Y70571D02*
Y81595D01*
X-35039Y70571D02*
X-24016D01*
Y81595D01*
X-35039Y81595D02*
X-24016D01*
X-2559Y27756D02*
Y37402D01*
Y27756D02*
X3937D01*
Y37402D01*
X-1870Y65158D02*
Y74803D01*
Y65158D02*
X4626D01*
Y74803D01*
X1575Y125984D02*
Y135630D01*
X-4921D02*
X1575D01*
X-4921Y125984D02*
Y135630D01*
X9843Y125984D02*
Y135630D01*
X3347D02*
X9843D01*
X3347Y125984D02*
Y135630D01*
X18307Y113386D02*
X27953D01*
X18307Y106890D02*
Y113386D01*
Y106890D02*
X27953D01*
X44094Y116142D02*
X53740D01*
X44094Y109646D02*
Y116142D01*
Y109646D02*
X53740D01*
X69291Y124409D02*
X78937D01*
X69291Y117913D02*
Y124409D01*
Y117913D02*
X78937D01*
X-20768Y107874D02*
X-11122D01*
Y114370D01*
X-20768D02*
X-11122D01*
X-46063Y113189D02*
X-36417D01*
Y119685D01*
X-46063D02*
X-36417D01*
X-73425Y121653D02*
X-63779D01*
Y128150D01*
X-73425D02*
X-63779D01*
X-20276Y87008D02*
X-10630D01*
Y93504D01*
X-20276D02*
X-10630D01*
X-53740Y89665D02*
X-44094D01*
X-53740Y83169D02*
Y89665D01*
Y83169D02*
X-44094D01*
X-88287Y78543D02*
Y88189D01*
Y78543D02*
X-81791D01*
Y88189D01*
X17028Y86122D02*
X26673D01*
Y92618D01*
X17028D02*
X26673D01*
X49902Y81299D02*
X59547D01*
Y87795D01*
X49902D02*
X59547D01*
X85335Y75197D02*
Y84842D01*
Y75197D02*
X91831D01*
Y84842D01*
X591Y91732D02*
X2953D01*
X-93504Y137598D02*
X-82480D01*
X-82480Y126575D02*
Y137598D01*
X-93504Y126575D02*
X-82480D01*
X-93504Y126575D02*
Y137598D01*
X-5413Y13878D02*
X5610D01*
X5610Y2854D02*
Y13878D01*
X-5413Y2854D02*
X5610D01*
X-5413Y2854D02*
Y13878D01*
X86417Y133957D02*
X97441D01*
X97441Y122933D02*
Y133957D01*
X86417Y122933D02*
X97441D01*
X86417Y122933D02*
Y133957D01*
X-1083Y98032D02*
Y107677D01*
Y98032D02*
X5413D01*
Y107677D01*
D22*
X-80413Y130247D02*
X-77748D01*
X-79080Y131580D02*
Y128914D01*
X81201Y126704D02*
X83867D01*
X82534Y128037D02*
Y125371D01*
X-39862Y76015D02*
X-37196D01*
X-886Y19519D02*
X1780D01*
X24606Y76409D02*
X27272D01*
M02*
