G04 Layer_Color=16711935*
%FSLAX25Y25*%
%MOIN*%
G70*
G01*
G75*
%ADD30C,0.00504*%
%ADD31C,0.00504*%
D30*
X-58691Y71207D02*
G03*
X-58691Y71206I5J12D01*
G01*
X5053Y63551D02*
X5173Y63977D01*
Y64841D01*
Y67163D01*
X5106Y68528D02*
X5173Y67163D01*
X5035Y69983D02*
X5106Y68528D01*
X4924Y70390D02*
X5035Y69983D01*
X4836Y70677D02*
X4924Y70390D01*
X4704Y71007D02*
X4836Y70677D01*
X4633Y71329D02*
X4704Y71007D01*
X4633Y71329D02*
Y72649D01*
X4933Y72979D01*
X5151Y73496D01*
X5242Y73917D01*
X5363Y75473D01*
X5262Y76549D02*
X5363Y75473D01*
X5134Y77249D02*
X5262Y76549D01*
X8747Y78231D02*
X9399Y77634D01*
X12475Y75661D01*
X16672Y73522D01*
X21062Y71824D01*
X26101Y70419D01*
X32887Y69055D01*
X39112Y68209D01*
X45740Y67596D01*
X53466Y67257D01*
X55806Y67361D01*
X58358Y67868D01*
X60203Y68412D01*
X62267Y69171D01*
X64978Y70167D01*
X67942Y71245D01*
X69888Y71730D01*
X72006Y72139D01*
X73307Y72280D01*
X75560Y72409D01*
X94076Y74986D02*
X96057Y76091D01*
X96998Y76891D01*
X97563Y77715D01*
X98097Y78834D01*
X98308Y79930D01*
Y80641D01*
X98020Y81699D02*
X98308Y80641D01*
X97503Y82767D02*
X98020Y81699D01*
X96784Y83996D02*
X97503Y82767D01*
X95933Y85207D02*
X96784Y83996D01*
X94893Y86437D02*
X95933Y85207D01*
X93883Y87362D02*
X94893Y86437D01*
X90687Y89751D02*
X93883Y87362D01*
X87531Y91295D02*
X90687Y89751D01*
X84915Y92351D02*
X87531Y91295D01*
X81903Y93274D02*
X84915Y92351D01*
X80716Y93560D02*
X81903Y93274D01*
X78187Y94043D02*
X80716Y93560D01*
X74759Y94613D02*
X78187Y94043D01*
X71423Y95033D02*
X74759Y94613D01*
X67435Y95371D02*
X71423Y95033D01*
X61128Y95678D02*
X67435Y95371D01*
X71309Y109409D02*
X72707Y110306D01*
X77160Y112993D01*
X81346Y115224D01*
X87277Y117538D01*
X91483Y119176D01*
X94570Y120844D01*
X96437Y122138D01*
X98841Y124147D01*
X100513Y125967D01*
X101103Y127271D01*
X101336Y128736D01*
X101195Y129967D02*
X101336Y128736D01*
X100670Y131137D02*
X101195Y129967D01*
X99448Y132661D02*
X100670Y131137D01*
X98085Y133761D02*
X99448Y132661D01*
X95550Y135124D02*
X98085Y133761D01*
X91844Y136105D02*
X95550Y135124D01*
X85243Y136105D02*
X91844D01*
X79346Y135004D02*
X85243Y136105D01*
X75547Y133984D02*
X79346Y135004D01*
X67801Y131535D02*
X75547Y133984D01*
X32485Y124706D02*
X40990Y125170D01*
X25091Y123768D02*
X32485Y124706D01*
X19799Y122567D02*
X25091Y123768D01*
X15895Y120953D02*
X19799Y122567D01*
X12061Y119014D02*
X15895Y120953D01*
X6071Y137958D02*
X6530Y137510D01*
X5640Y138265D02*
X6071Y137958D01*
X4853Y138658D02*
X5640Y138265D01*
X4038Y138869D02*
X4853Y138658D01*
X3386Y138869D02*
X4038D01*
X2711D02*
X3386D01*
X-3192Y6759D02*
X-3110Y10396D01*
X-2686Y16227D01*
X-2518Y20544D01*
X-2675Y64130D02*
X-2571Y63700D01*
X-2675Y64130D02*
X-2641Y64994D01*
X-2355Y74065D02*
X-2280Y73641D01*
X-2415Y75625D02*
X-2355Y74065D01*
X-2415Y75625D02*
X-2272Y76696D01*
X-2117Y77391D01*
X-5689Y78513D02*
X-5099Y79211D01*
X-6363Y77942D02*
X-5689Y78513D01*
X-9514Y76091D02*
X-6363Y77942D01*
X-13792Y74117D02*
X-9514Y76091D01*
X-18245Y72592D02*
X-13792Y74117D01*
X-21285Y71871D02*
X-18245Y72592D01*
X-62192Y72652D02*
X-59522Y71551D01*
X-65111Y73845D02*
X-62192Y72652D01*
X-67037Y74406D02*
X-65111Y73845D01*
X-69137Y74897D02*
X-67037Y74406D01*
X-71087Y75185D02*
X-69137Y74897D01*
X-72674Y75339D02*
X-71087Y75185D01*
X-75834Y75682D02*
X-72674Y75339D01*
X-81674Y76102D02*
X-75834Y75682D01*
X-84275Y76386D02*
X-81674Y76102D01*
X-87640Y77178D02*
X-84275Y76386D01*
X-91037Y78578D02*
X-87640Y77178D01*
X-93015Y79785D02*
X-91037Y78578D01*
X-93925Y80622D02*
X-93015Y79785D01*
X-94457Y81467D02*
X-93925Y80622D01*
X-94946Y82606D02*
X-94457Y81467D01*
X-95115Y83710D02*
X-94946Y82606D01*
X-95115Y83710D02*
X-95087Y84420D01*
X-94758Y85465D01*
X-94200Y86513D01*
X-93433Y87713D01*
X-92536Y88890D01*
X-91448Y90078D01*
X-90403Y90963D01*
X-87116Y93225D01*
X-83902Y94645D01*
X-81247Y95597D01*
X-78201Y96402D01*
X-77004Y96641D01*
X-74458Y97026D01*
X-71010Y97461D01*
X-67661Y97751D01*
X-63662Y97932D01*
X-60737Y97961D01*
X-23722Y102711D02*
X-21026Y103007D01*
X-25389Y102638D02*
X-23722Y102711D01*
X-29680Y102611D02*
X-25389Y102638D01*
X-34461Y102798D02*
X-29680Y102611D01*
X-40448Y103473D02*
X-34461Y102798D01*
X-48074Y104600D02*
X-40448Y103473D01*
X-52444Y105427D02*
X-48074Y104600D01*
X-55493Y106201D02*
X-52444Y105427D01*
X-57773Y106979D02*
X-55493Y106201D01*
X-59719Y107811D02*
X-57773Y106979D01*
X-62131Y109060D02*
X-59719Y107811D01*
X-64083Y110187D02*
X-62131Y109060D01*
X-66076Y111502D02*
X-64083Y110187D01*
X-66985Y112112D02*
X-66076Y111502D01*
X-67560Y112513D02*
X-66985Y112112D01*
X-86762Y122659D02*
X-82623Y120858D01*
X-89781Y124446D02*
X-86762Y122659D01*
X-91596Y125812D02*
X-89781Y124446D01*
X-93920Y127914D02*
X-91596Y125812D01*
X-95520Y129798D02*
X-93920Y127914D01*
X-96059Y131123D02*
X-95520Y129798D01*
X-96234Y132597D02*
X-96059Y131123D01*
X-96234Y132597D02*
X-96044Y133821D01*
X-95475Y134969D01*
X-94194Y136445D01*
X-92789Y137491D01*
X-90203Y138754D01*
X-86461Y139589D01*
X-79866Y139331D01*
X-74016Y138001D01*
X-70370Y136867D01*
X-39847Y126979D02*
X-36073Y126675D01*
X-27593Y125880D01*
X-20241Y124654D01*
X-15000Y123247D01*
X-11162Y121482D01*
X-7891Y119663D01*
X-8580Y127294D02*
X-6481Y124978D01*
X-9494Y128492D02*
X-8580Y127294D01*
X-10593Y131730D02*
X-9494Y128492D01*
X-10593Y131730D02*
X-10533Y133275D01*
X-10092Y134422D01*
X-8913Y135911D01*
X-7490Y136781D01*
X-5411Y137601D01*
X-3392Y137522D01*
X-1871Y137146D01*
X-1506Y137132D01*
X-1139Y137676D01*
X-682Y138090D01*
X-238Y138380D01*
X563Y138742D01*
X1386Y138921D01*
X2037Y138896D01*
X2711Y138869D01*
X1553Y744D02*
X1559Y754D01*
X1553Y743D02*
X1553Y744D01*
X1553Y743D02*
X1553Y743D01*
X1559Y753D01*
X1590Y809D01*
X1696Y1006D01*
X1980Y1565D01*
X2541Y2839D01*
X3196Y5059D01*
X3452Y8443D01*
X3392Y14393D02*
X3452Y8443D01*
X75560Y72409D02*
X79903Y72678D01*
X88454Y73373D01*
X93868Y75044D01*
X48773Y96505D02*
X61241Y95678D01*
X39353Y97700D02*
X48773Y96505D01*
X31948Y99520D02*
X39353Y97700D01*
X24771Y101725D02*
X31948Y99520D01*
X23598Y102136D02*
X24771Y101725D01*
X23328Y102250D02*
X23598Y102136D01*
X23263Y102287D02*
X23328Y102250D01*
X23236Y102311D02*
X23263Y102287D01*
X23230Y102321D02*
X23236Y102311D01*
X23230Y102321D02*
X23231Y102330D01*
X23247Y102341D01*
X23272Y102347D01*
X23367Y102350D01*
X25386Y102064D01*
X29252Y101616D01*
X36145Y101437D01*
X46542Y102089D01*
X56167Y103315D01*
X62682Y104981D01*
X67841Y107376D01*
X71695Y109656D01*
X53089Y126987D02*
X66410Y130990D01*
X44954Y125443D02*
X53089Y126987D01*
X11777Y118948D02*
X12062Y119013D01*
X11622Y119074D02*
X11777Y118948D01*
X11522Y119656D02*
X11622Y119074D01*
X11480Y120406D02*
X11522Y119656D01*
X10946Y123310D02*
X11480Y120406D01*
X10703Y124004D02*
X10946Y123310D01*
X10703Y124004D02*
X10720Y124323D01*
X11043Y124626D01*
X11565Y125040D01*
X12899Y126295D01*
X14898Y129365D01*
X15282Y133662D01*
X13395Y135874D02*
X15282Y133662D01*
X10214Y137121D02*
X13395Y135874D01*
X7502Y137059D02*
X10214Y137121D01*
X6530Y137449D02*
X7502Y137059D01*
X3Y248D02*
X1117Y406D01*
X1559Y754D01*
X-1533Y814D02*
X-1527Y804D01*
X-1527Y803D01*
X-1527Y803D02*
X-1527Y803D01*
X-1532Y814D02*
X-1527Y803D01*
X-1561Y871D02*
X-1532Y814D01*
X-1660Y1072D02*
X-1561Y871D01*
X-1921Y1641D02*
X-1660Y1072D01*
X-2433Y2936D02*
X-1921Y1641D01*
X-3000Y5180D02*
X-2433Y2936D01*
X-2569Y66555D02*
X-2179Y70480D01*
X-1867Y71708D01*
X-2235Y73611D02*
X-1867Y71708D01*
X-52704Y69570D02*
X-37991Y69675D01*
X-58686Y71219D02*
X-52704Y69570D01*
X-57461Y97998D02*
X-44970Y98337D01*
X-35510Y99163D02*
X-28040Y100692D01*
X-20783Y102615D01*
X-19594Y102980D01*
X-19320Y103084D01*
X-19253Y103118D01*
X-19226Y103140D01*
X-19220Y103150D01*
X-19220Y103159D02*
X-19220Y103150D01*
X-19236Y103171D02*
X-19220Y103159D01*
X-19260Y103178D02*
X-19236Y103171D01*
X-19355Y103185D02*
X-19260Y103178D01*
X-21384Y102978D02*
X-19355Y103185D01*
X-70297Y136728D02*
X-60649Y133279D01*
X-48092Y128964D01*
X-40023Y127103D01*
X-7408Y119393D02*
X-7125Y119317D01*
X-6966Y119437D01*
X-6843Y120015D01*
X-6772Y120763D01*
X-6125Y123644D01*
X-5855Y124327D01*
X-5860Y124647D02*
X-5855Y124327D01*
X-6171Y124962D02*
X-5860Y124647D01*
X-1105Y449D02*
X3Y248D01*
X-1533Y814D02*
X-1105Y449D01*
X-37991Y69675D02*
X-21418Y71953D01*
X-2641Y64994D02*
Y66483D01*
X-2569Y66555D01*
X-2280Y73641D02*
X-2235Y73611D01*
X-60737Y97961D02*
X-57498D01*
X-57461Y97998D01*
X93868Y75044D02*
X94076Y74986D01*
X61128Y95678D02*
X61241D01*
X66410Y130990D02*
X67256D01*
X67620Y131353D01*
X67801Y131535D01*
X6530Y137510D02*
X6530Y137449D01*
X-6481Y124978D02*
X-6171Y124962D01*
X-70370Y136867D02*
X-70297Y136728D01*
X-74894Y117089D02*
X-67361Y112373D01*
X-75493Y117513D02*
X-74894Y117089D01*
X-75939Y117762D02*
X-75493Y117513D01*
X-78072Y118853D02*
X-75939Y117762D01*
X-80553Y119895D02*
X-78072Y118853D01*
X-82736Y120907D02*
X-80553Y119895D01*
X40990Y125170D02*
X44954Y125443D01*
X-7891Y119663D02*
X-7408Y119393D01*
X-40023Y127103D02*
X-39847Y126979D01*
X-59522Y71551D02*
X-58686Y71219D01*
X-21418Y71953D02*
X-21285Y71871D01*
X-3192Y6759D02*
X-3000Y5180D01*
X-44970Y98337D02*
X-35510Y99163D01*
X-2833Y63385D02*
X-2739Y63765D01*
X-3019Y62881D02*
X-2833Y63385D01*
X-3185Y61914D02*
X-3019Y62881D01*
X-3343Y60910D02*
X-3185Y61914D01*
X-3399Y59467D02*
X-3343Y60910D01*
X-3399Y59467D02*
X-3368Y56082D01*
X-3210Y52737D01*
X-3325Y49791D02*
X-3210Y52737D01*
X-3655Y46586D02*
X-3325Y49791D01*
X-3826Y44530D02*
X-3655Y46586D01*
X-3826Y42445D02*
X-3826Y44530D01*
X5003Y63469D02*
X5096Y63090D01*
X5283Y62585D01*
X5449Y61618D01*
X5607Y60615D01*
X5663Y59172D01*
X5631Y55787D02*
X5663Y59172D01*
X5474Y52442D02*
X5631Y55787D01*
X5474Y52442D02*
X5589Y49496D01*
X5919Y46290D01*
X6089Y44235D01*
X6090Y42150D01*
X5007Y20981D02*
X5101Y21361D01*
X5288Y21865D01*
X5453Y22832D01*
X5611Y23836D01*
X5667Y25278D01*
X5635Y28664D02*
X5667Y25278D01*
X5478Y32009D02*
X5635Y28664D01*
X5478Y32009D02*
X5593Y34955D01*
X5923Y38160D01*
X6094Y40216D01*
X6094Y42301D01*
X-2833Y21505D02*
X-2739Y21125D01*
X-3019Y22009D02*
X-2833Y21505D01*
X-3185Y22976D02*
X-3019Y22009D01*
X-3343Y23980D02*
X-3185Y22976D01*
X-3399Y25423D02*
X-3343Y23980D01*
X-3399Y25423D02*
X-3368Y28808D01*
X-3210Y32153D01*
X-3325Y35099D02*
X-3210Y32153D01*
X-3655Y38304D02*
X-3325Y35099D01*
X-3826Y40360D02*
X-3655Y38304D01*
X-3826Y42445D02*
X-3826Y40360D01*
D31*
X-1886Y78234D02*
G03*
X-4244Y79211I-2358J-2358D01*
G01*
X7503Y78231D02*
G03*
X5134Y77249I0J-3350D01*
G01*
X3445Y17815D02*
X5007Y20981D01*
X3392Y14393D02*
X3445Y17815D01*
X-2739Y21125D02*
X-2518Y20544D01*
X-5099Y79211D02*
X-4244D01*
X7503Y78231D02*
X8747D01*
X-2117Y77391D02*
X-1886Y78234D01*
M02*
