G04 Layer_Color=8421504*
%FSLAX24Y24*%
%MOIN*%
G70*
G01*
G75*
%ADD10R,0.0453X0.0551*%
%ADD11R,0.0390X0.0307*%
%ADD12R,0.0354X0.0374*%
%ADD13R,0.0374X0.0354*%
%ADD14R,0.0433X0.0256*%
%ADD15R,0.0307X0.0390*%
%ADD16R,0.1339X0.0989*%
%ADD17R,0.0276X0.0600*%
%ADD18R,0.0433X0.0197*%
%ADD19R,0.0581X0.0236*%
%ADD20R,0.0236X0.0581*%
%ADD21R,0.0472X0.0236*%
%ADD22R,0.1260X0.1398*%
D10*
X835Y-1967D02*
D03*
Y-2833D02*
D03*
X1465D02*
D03*
Y-1967D02*
D03*
D11*
X6943Y-1024D02*
D03*
Y-1576D02*
D03*
X1350Y126D02*
D03*
Y-426D02*
D03*
X-1200Y2026D02*
D03*
Y1474D02*
D03*
X-2600Y1076D02*
D03*
Y524D02*
D03*
D12*
X15Y-1500D02*
D03*
X-615D02*
D03*
X7085Y-7450D02*
D03*
X7715D02*
D03*
X-1315Y7900D02*
D03*
X-685D02*
D03*
X-1215Y3900D02*
D03*
X-585D02*
D03*
X-9685Y-1500D02*
D03*
X-10315D02*
D03*
X-1065Y-5850D02*
D03*
X-435D02*
D03*
X-1065Y-5050D02*
D03*
X-435D02*
D03*
X-3315Y5100D02*
D03*
X-2685D02*
D03*
X8135Y1700D02*
D03*
X8765D02*
D03*
X3965Y8550D02*
D03*
X3335D02*
D03*
X-3435Y1100D02*
D03*
X-4065D02*
D03*
Y-250D02*
D03*
X-3435D02*
D03*
X-5435Y-3500D02*
D03*
X-6065D02*
D03*
D13*
X3250Y-5685D02*
D03*
Y-6315D02*
D03*
X-3850Y8185D02*
D03*
Y8815D02*
D03*
X8450Y3485D02*
D03*
Y4115D02*
D03*
X-3550Y-7935D02*
D03*
Y-8565D02*
D03*
X10650Y-1435D02*
D03*
Y-2065D02*
D03*
D14*
X-3463Y6300D02*
D03*
X-2637Y6678D02*
D03*
Y5922D02*
D03*
X-2963Y-5450D02*
D03*
X-2137Y-5072D02*
D03*
Y-5828D02*
D03*
D15*
X476Y7900D02*
D03*
X-76D02*
D03*
X526Y3900D02*
D03*
X-26D02*
D03*
X1476Y-1150D02*
D03*
X924D02*
D03*
X1426Y-3600D02*
D03*
X874D02*
D03*
D16*
X-350Y6000D02*
D03*
D17*
X-1100Y7068D02*
D03*
X-600D02*
D03*
X-100D02*
D03*
X400D02*
D03*
Y4932D02*
D03*
X-100D02*
D03*
X-600D02*
D03*
X-1100D02*
D03*
D18*
X-2150Y2750D02*
D03*
X-1244D02*
D03*
X-7747Y4600D02*
D03*
X-8653D02*
D03*
D19*
X2625Y-198D02*
D03*
Y-513D02*
D03*
Y-828D02*
D03*
Y-1143D02*
D03*
Y-1457D02*
D03*
Y-1772D02*
D03*
Y-2087D02*
D03*
Y-2402D02*
D03*
X5962D02*
D03*
Y-2087D02*
D03*
Y-1772D02*
D03*
Y-1457D02*
D03*
Y-1143D02*
D03*
Y-828D02*
D03*
Y-513D02*
D03*
Y-198D02*
D03*
D20*
X3191Y-2968D02*
D03*
X3506D02*
D03*
X3821D02*
D03*
X4136D02*
D03*
X4451D02*
D03*
X4766D02*
D03*
X5081D02*
D03*
X5396D02*
D03*
Y369D02*
D03*
X5081D02*
D03*
X4766D02*
D03*
X4451D02*
D03*
X4136D02*
D03*
X3821D02*
D03*
X3506D02*
D03*
X3191D02*
D03*
D21*
X-3058Y2624D02*
D03*
Y2250D02*
D03*
Y1876D02*
D03*
X-4042D02*
D03*
Y2250D02*
D03*
Y2624D02*
D03*
D22*
X-6700Y-572D02*
D03*
Y2972D02*
D03*
M02*
