G04 Layer_Physical_Order=2*
G04 Layer_Color=16711680*
%FSLAX24Y24*%
%MOIN*%
G70*
G01*
G75*
%ADD23C,0.0150*%
%ADD24C,0.0100*%
%ADD25C,0.0120*%
%ADD26R,0.0669X0.0669*%
%ADD27C,0.0669*%
%ADD28R,0.0591X0.0591*%
%ADD29C,0.0591*%
%ADD30C,0.2244*%
%ADD31P,0.0835X4X90.0*%
%ADD32R,0.0591X0.0591*%
%ADD33O,0.0669X0.0394*%
%ADD34C,0.0315*%
%ADD35C,0.0500*%
%ADD36R,0.0315X0.0374*%
%ADD37R,0.1600X0.1200*%
G36*
X632Y11249D02*
X1261Y11196D01*
X1887Y11108D01*
X2507Y10984D01*
X3119Y10826D01*
X3721Y10634D01*
X4312Y10409D01*
X4888Y10151D01*
X5450Y9861D01*
X5994Y9540D01*
X6520Y9189D01*
X7025Y8809D01*
X7508Y8401D01*
X7967Y7967D01*
X8401Y7508D01*
X8809Y7025D01*
X9189Y6520D01*
X9540Y5994D01*
X9861Y5450D01*
X10151Y4888D01*
X10409Y4312D01*
X10634Y3721D01*
X10826Y3119D01*
X10984Y2507D01*
X11108Y1887D01*
X11196Y1261D01*
X11249Y632D01*
X11267Y0D01*
X11249Y-632D01*
X11196Y-1261D01*
X11108Y-1887D01*
X10984Y-2507D01*
X10826Y-3119D01*
X10634Y-3721D01*
X10409Y-4312D01*
X10151Y-4888D01*
X9861Y-5450D01*
X9540Y-5994D01*
X9189Y-6520D01*
X8809Y-7025D01*
X8401Y-7508D01*
X7967Y-7967D01*
X7508Y-8401D01*
X7025Y-8809D01*
X6520Y-9189D01*
X5994Y-9540D01*
X5450Y-9861D01*
X4888Y-10151D01*
X4312Y-10409D01*
X3721Y-10634D01*
X3119Y-10826D01*
X2507Y-10984D01*
X1887Y-11108D01*
X1261Y-11196D01*
X632Y-11249D01*
X0Y-11267D01*
X-632Y-11249D01*
X-1261Y-11196D01*
X-1887Y-11108D01*
X-2507Y-10984D01*
X-3119Y-10826D01*
X-3721Y-10634D01*
X-4312Y-10409D01*
X-4888Y-10151D01*
X-5450Y-9861D01*
X-5994Y-9540D01*
X-6520Y-9189D01*
X-7025Y-8809D01*
X-7508Y-8401D01*
X-7967Y-7967D01*
X-8401Y-7508D01*
X-8809Y-7025D01*
X-9189Y-6520D01*
X-9540Y-5994D01*
X-9861Y-5450D01*
X-10151Y-4888D01*
X-10409Y-4312D01*
X-10634Y-3721D01*
X-10826Y-3119D01*
X-10984Y-2507D01*
X-11108Y-1887D01*
X-11196Y-1261D01*
X-11249Y-632D01*
X-11267Y0D01*
X-11249Y632D01*
X-11196Y1261D01*
X-11108Y1887D01*
X-10984Y2507D01*
X-10826Y3119D01*
X-10634Y3721D01*
X-10409Y4312D01*
X-10151Y4888D01*
X-9861Y5450D01*
X-9540Y5994D01*
X-9189Y6520D01*
X-8809Y7025D01*
X-8401Y7508D01*
X-7967Y7967D01*
X-7508Y8401D01*
X-7025Y8809D01*
X-6520Y9189D01*
X-5994Y9540D01*
X-5450Y9861D01*
X-4888Y10151D01*
X-4312Y10409D01*
X-3721Y10634D01*
X-3119Y10826D01*
X-2507Y10984D01*
X-1887Y11108D01*
X-1261Y11196D01*
X-632Y11249D01*
X0Y11267D01*
X632Y11249D01*
D02*
G37*
%LPC*%
G36*
X9200Y-2208D02*
X9147Y-2215D01*
X9051Y-2255D01*
X8968Y-2318D01*
X8905Y-2401D01*
X8865Y-2497D01*
X8858Y-2550D01*
X9200D01*
Y-2208D01*
D02*
G37*
G36*
X-1950Y-2168D02*
Y-2550D01*
X-1568D01*
X-1577Y-2487D01*
X-1620Y-2381D01*
X-1690Y-2290D01*
X-1781Y-2220D01*
X-1887Y-2177D01*
X-1950Y-2168D01*
D02*
G37*
G36*
X-2050D02*
X-2113Y-2177D01*
X-2219Y-2220D01*
X-2310Y-2290D01*
X-2380Y-2381D01*
X-2423Y-2487D01*
X-2432Y-2550D01*
X-2050D01*
Y-2168D01*
D02*
G37*
G36*
X2000Y-2247D02*
Y-2450D01*
X2203D01*
X2201Y-2433D01*
X2175Y-2370D01*
X2134Y-2316D01*
X2080Y-2275D01*
X2017Y-2249D01*
X2000Y-2247D01*
D02*
G37*
G36*
X1900D02*
X1883Y-2249D01*
X1820Y-2275D01*
X1766Y-2316D01*
X1725Y-2370D01*
X1699Y-2433D01*
X1697Y-2450D01*
X1900D01*
Y-2247D01*
D02*
G37*
G36*
X9300Y-2208D02*
Y-2550D01*
X9642D01*
X9635Y-2497D01*
X9595Y-2401D01*
X9532Y-2318D01*
X9449Y-2255D01*
X9353Y-2215D01*
X9300Y-2208D01*
D02*
G37*
G36*
X2203Y-2550D02*
X2000D01*
Y-2753D01*
X2017Y-2751D01*
X2080Y-2725D01*
X2134Y-2684D01*
X2175Y-2630D01*
X2201Y-2567D01*
X2203Y-2550D01*
D02*
G37*
G36*
X8250Y-2201D02*
X8147Y-2215D01*
X8051Y-2255D01*
X7968Y-2318D01*
X7905Y-2401D01*
X7865Y-2497D01*
X7851Y-2600D01*
X7865Y-2703D01*
X7905Y-2799D01*
X7968Y-2882D01*
X8051Y-2945D01*
X8147Y-2985D01*
X8250Y-2999D01*
X8353Y-2985D01*
X8449Y-2945D01*
X8532Y-2882D01*
X8595Y-2799D01*
X8635Y-2703D01*
X8649Y-2600D01*
X8635Y-2497D01*
X8595Y-2401D01*
X8532Y-2318D01*
X8449Y-2255D01*
X8353Y-2215D01*
X8250Y-2201D01*
D02*
G37*
G36*
X-1568Y-2650D02*
X-1950D01*
Y-3032D01*
X-1887Y-3023D01*
X-1781Y-2980D01*
X-1690Y-2910D01*
X-1620Y-2819D01*
X-1577Y-2713D01*
X-1568Y-2650D01*
D02*
G37*
G36*
X-2050D02*
X-2432D01*
X-2423Y-2713D01*
X-2380Y-2819D01*
X-2310Y-2910D01*
X-2219Y-2980D01*
X-2113Y-3023D01*
X-2050Y-3032D01*
Y-2650D01*
D02*
G37*
G36*
X1900Y-2550D02*
X1697D01*
X1699Y-2567D01*
X1725Y-2630D01*
X1766Y-2684D01*
X1820Y-2725D01*
X1883Y-2751D01*
X1900Y-2753D01*
Y-2550D01*
D02*
G37*
G36*
X9642Y-2650D02*
X9300D01*
Y-2992D01*
X9353Y-2985D01*
X9449Y-2945D01*
X9532Y-2882D01*
X9595Y-2799D01*
X9635Y-2703D01*
X9642Y-2650D01*
D02*
G37*
G36*
X9200D02*
X8858D01*
X8865Y-2703D01*
X8905Y-2799D01*
X8968Y-2882D01*
X9051Y-2945D01*
X9147Y-2985D01*
X9200Y-2992D01*
Y-2650D01*
D02*
G37*
G36*
X8800Y-18D02*
X8737Y-27D01*
X8631Y-70D01*
X8540Y-140D01*
X8470Y-231D01*
X8427Y-337D01*
X8418Y-400D01*
X8800D01*
Y-18D01*
D02*
G37*
G36*
X-2247Y-250D02*
X-2450D01*
Y-453D01*
X-2433Y-451D01*
X-2370Y-425D01*
X-2316Y-384D01*
X-2275Y-330D01*
X-2249Y-267D01*
X-2247Y-250D01*
D02*
G37*
G36*
X-2550D02*
X-2753D01*
X-2751Y-267D01*
X-2725Y-330D01*
X-2684Y-384D01*
X-2630Y-425D01*
X-2567Y-451D01*
X-2550Y-453D01*
Y-250D01*
D02*
G37*
G36*
X7210Y-92D02*
X7122D01*
Y-341D01*
X7503D01*
X7499Y-313D01*
X7469Y-241D01*
X7422Y-179D01*
X7360Y-132D01*
X7287Y-102D01*
X7210Y-92D01*
D02*
G37*
G36*
X7022D02*
X6934D01*
X6857Y-102D01*
X6785Y-132D01*
X6723Y-179D01*
X6675Y-241D01*
X6645Y-313D01*
X6641Y-341D01*
X7022D01*
Y-92D01*
D02*
G37*
G36*
X8900Y-18D02*
Y-400D01*
X9282D01*
X9273Y-337D01*
X9230Y-231D01*
X9160Y-140D01*
X9069Y-70D01*
X8963Y-27D01*
X8900Y-18D01*
D02*
G37*
G36*
X-9915Y235D02*
X-10785D01*
Y-635D01*
X-9915D01*
Y235D01*
D02*
G37*
G36*
X8800Y-500D02*
X8418D01*
X8427Y-563D01*
X8470Y-669D01*
X8540Y-760D01*
X8631Y-830D01*
X8737Y-873D01*
X8800Y-882D01*
Y-500D01*
D02*
G37*
G36*
X-1565Y-1165D02*
X-2435D01*
Y-2035D01*
X-1565D01*
Y-1165D01*
D02*
G37*
G36*
X6195Y3195D02*
X5405D01*
Y2407D01*
X5326Y2328D01*
X4000D01*
X3932Y2315D01*
X3874Y2276D01*
X3874Y2276D01*
X2824Y1226D01*
X2785Y1168D01*
X2772Y1100D01*
Y-4626D01*
X2576Y-4822D01*
X2004D01*
X1950Y-4750D01*
X1877Y-4694D01*
X1791Y-4659D01*
X1700Y-4647D01*
X1609Y-4659D01*
X1523Y-4694D01*
X1450Y-4750D01*
X1394Y-4823D01*
X1359Y-4909D01*
X1347Y-5000D01*
X1359Y-5091D01*
X1394Y-5177D01*
X1450Y-5250D01*
X1523Y-5306D01*
X1609Y-5341D01*
X1700Y-5353D01*
X1791Y-5341D01*
X1877Y-5306D01*
X1950Y-5250D01*
X2004Y-5178D01*
X2650D01*
X2718Y-5165D01*
X2776Y-5126D01*
X3076Y-4826D01*
X3115Y-4768D01*
X3128Y-4700D01*
Y1026D01*
X4074Y1972D01*
X4131D01*
X4138Y1962D01*
X4130Y1894D01*
X4116Y1884D01*
X4075Y1830D01*
X4049Y1767D01*
X4040Y1700D01*
X4049Y1633D01*
X4075Y1570D01*
X4116Y1516D01*
X4170Y1475D01*
X4233Y1449D01*
X4300Y1440D01*
X4338Y1445D01*
X4447Y1337D01*
Y-3450D01*
X4459Y-3509D01*
X4492Y-3558D01*
X5392Y-4458D01*
X5441Y-4491D01*
X5500Y-4503D01*
X8250D01*
X8309Y-4491D01*
X8358Y-4458D01*
X8936Y-3880D01*
X8968Y-3882D01*
X9051Y-3945D01*
X9147Y-3985D01*
X9250Y-3999D01*
X9353Y-3985D01*
X9449Y-3945D01*
X9532Y-3882D01*
X9595Y-3799D01*
X9635Y-3703D01*
X9649Y-3600D01*
X9635Y-3497D01*
X9595Y-3401D01*
X9532Y-3318D01*
X9449Y-3255D01*
X9353Y-3215D01*
X9250Y-3201D01*
X9147Y-3215D01*
X9051Y-3255D01*
X8968Y-3318D01*
X8905Y-3401D01*
X8865Y-3497D01*
X8862Y-3522D01*
X8686Y-3697D01*
X8639Y-3674D01*
X8649Y-3600D01*
X8635Y-3497D01*
X8595Y-3401D01*
X8532Y-3318D01*
X8449Y-3255D01*
X8353Y-3215D01*
X8250Y-3201D01*
X8147Y-3215D01*
X8051Y-3255D01*
X7968Y-3318D01*
X7905Y-3401D01*
X7865Y-3497D01*
X7851Y-3600D01*
X7865Y-3703D01*
X7905Y-3799D01*
X7968Y-3882D01*
X8051Y-3945D01*
X8147Y-3985D01*
X8250Y-3999D01*
X8324Y-3989D01*
X8347Y-4036D01*
X8187Y-4197D01*
X5563D01*
X4753Y-3387D01*
Y1400D01*
X4741Y1459D01*
X4708Y1508D01*
X4555Y1662D01*
X4560Y1700D01*
X4551Y1767D01*
X4525Y1830D01*
X4484Y1884D01*
X4470Y1894D01*
X4462Y1962D01*
X4469Y1972D01*
X5400D01*
X5468Y1985D01*
X5526Y2024D01*
X5897Y2395D01*
X5953D01*
X7572Y776D01*
Y-2026D01*
X7374Y-2224D01*
X7353Y-2215D01*
X7250Y-2201D01*
X7147Y-2215D01*
X7051Y-2255D01*
X6968Y-2318D01*
X6905Y-2401D01*
X6865Y-2497D01*
X6851Y-2600D01*
X6865Y-2703D01*
X6905Y-2799D01*
X6968Y-2882D01*
X7051Y-2945D01*
X7147Y-2985D01*
X7250Y-2999D01*
X7353Y-2985D01*
X7449Y-2945D01*
X7532Y-2882D01*
X7595Y-2799D01*
X7635Y-2703D01*
X7649Y-2600D01*
X7635Y-2497D01*
X7626Y-2476D01*
X7876Y-2226D01*
X7876Y-2226D01*
X7915Y-2168D01*
X7928Y-2100D01*
X7928Y-2100D01*
Y850D01*
X7915Y918D01*
X7876Y976D01*
X7876Y976D01*
X6195Y2657D01*
Y3195D01*
D02*
G37*
G36*
X7503Y-441D02*
X7122D01*
Y-690D01*
X7210D01*
X7287Y-680D01*
X7360Y-650D01*
X7422Y-603D01*
X7469Y-541D01*
X7499Y-468D01*
X7503Y-441D01*
D02*
G37*
G36*
X7022D02*
X6641D01*
X6645Y-468D01*
X6675Y-541D01*
X6723Y-603D01*
X6785Y-650D01*
X6857Y-680D01*
X6934Y-690D01*
X7022D01*
Y-441D01*
D02*
G37*
G36*
X9282Y-500D02*
X8900D01*
Y-882D01*
X8963Y-873D01*
X9069Y-830D01*
X9160Y-760D01*
X9230Y-669D01*
X9273Y-563D01*
X9282Y-500D01*
D02*
G37*
G36*
X350Y-2961D02*
Y-3304D01*
X693D01*
X685Y-3250D01*
X646Y-3154D01*
X582Y-3072D01*
X500Y-3008D01*
X404Y-2968D01*
X350Y-2961D01*
D02*
G37*
G36*
X-5906Y-4680D02*
X-6097Y-4695D01*
X-6284Y-4740D01*
X-6462Y-4813D01*
X-6626Y-4914D01*
X-6772Y-5039D01*
X-6897Y-5185D01*
X-6998Y-5349D01*
X-7071Y-5527D01*
X-7116Y-5714D01*
X-7131Y-5906D01*
X-7116Y-6097D01*
X-7071Y-6284D01*
X-6998Y-6462D01*
X-6897Y-6626D01*
X-6772Y-6772D01*
X-6626Y-6897D01*
X-6462Y-6998D01*
X-6284Y-7071D01*
X-6097Y-7116D01*
X-5906Y-7131D01*
X-5714Y-7116D01*
X-5527Y-7071D01*
X-5349Y-6998D01*
X-5185Y-6897D01*
X-5039Y-6772D01*
X-4914Y-6626D01*
X-4813Y-6462D01*
X-4740Y-6284D01*
X-4695Y-6097D01*
X-4680Y-5906D01*
X-4695Y-5714D01*
X-4740Y-5527D01*
X-4813Y-5349D01*
X-4914Y-5185D01*
X-5039Y-5039D01*
X-5185Y-4914D01*
X-5349Y-4813D01*
X-5527Y-4740D01*
X-5714Y-4695D01*
X-5906Y-4680D01*
D02*
G37*
G36*
X1900Y-6868D02*
Y-7250D01*
X2282D01*
X2273Y-7187D01*
X2230Y-7081D01*
X2160Y-6990D01*
X2069Y-6920D01*
X1963Y-6877D01*
X1900Y-6868D01*
D02*
G37*
G36*
X1800D02*
X1737Y-6877D01*
X1631Y-6920D01*
X1540Y-6990D01*
X1470Y-7081D01*
X1427Y-7187D01*
X1418Y-7250D01*
X1800D01*
Y-6868D01*
D02*
G37*
G36*
X9085Y-5615D02*
X8215D01*
Y-6485D01*
X9085D01*
Y-5615D01*
D02*
G37*
G36*
X2285Y-5865D02*
X1415D01*
Y-6735D01*
X2285D01*
Y-5865D01*
D02*
G37*
G36*
X5906Y-4680D02*
X5714Y-4695D01*
X5527Y-4740D01*
X5349Y-4813D01*
X5185Y-4914D01*
X5039Y-5039D01*
X4914Y-5185D01*
X4813Y-5349D01*
X4740Y-5527D01*
X4695Y-5714D01*
X4680Y-5906D01*
X4695Y-6097D01*
X4740Y-6284D01*
X4813Y-6462D01*
X4914Y-6626D01*
X5039Y-6772D01*
X5185Y-6897D01*
X5349Y-6998D01*
X5527Y-7071D01*
X5714Y-7116D01*
X5906Y-7131D01*
X6097Y-7116D01*
X6284Y-7071D01*
X6462Y-6998D01*
X6626Y-6897D01*
X6772Y-6772D01*
X6897Y-6626D01*
X6998Y-6462D01*
X7071Y-6284D01*
X7116Y-6097D01*
X7131Y-5906D01*
X7116Y-5714D01*
X7071Y-5527D01*
X6998Y-5349D01*
X6897Y-5185D01*
X6772Y-5039D01*
X6626Y-4914D01*
X6462Y-4813D01*
X6284Y-4740D01*
X6097Y-4695D01*
X5906Y-4680D01*
D02*
G37*
G36*
X2282Y-7350D02*
X1900D01*
Y-7732D01*
X1963Y-7723D01*
X2069Y-7680D01*
X2160Y-7610D01*
X2230Y-7519D01*
X2273Y-7413D01*
X2282Y-7350D01*
D02*
G37*
G36*
X-2900Y-9868D02*
X-2963Y-9877D01*
X-3069Y-9920D01*
X-3160Y-9990D01*
X-3230Y-10081D01*
X-3273Y-10187D01*
X-3282Y-10250D01*
X-2900D01*
Y-9868D01*
D02*
G37*
G36*
X-2418Y-10350D02*
X-2800D01*
Y-10732D01*
X-2737Y-10723D01*
X-2631Y-10680D01*
X-2540Y-10610D01*
X-2470Y-10519D01*
X-2427Y-10413D01*
X-2418Y-10350D01*
D02*
G37*
G36*
X-2900D02*
X-3282D01*
X-3273Y-10413D01*
X-3230Y-10519D01*
X-3160Y-10610D01*
X-3069Y-10680D01*
X-2963Y-10723D01*
X-2900Y-10732D01*
Y-10350D01*
D02*
G37*
G36*
X1800Y-7350D02*
X1418D01*
X1427Y-7413D01*
X1470Y-7519D01*
X1540Y-7610D01*
X1631Y-7680D01*
X1737Y-7723D01*
X1800Y-7732D01*
Y-7350D01*
D02*
G37*
G36*
X-2415Y-8865D02*
X-3285D01*
Y-9735D01*
X-2415D01*
Y-8865D01*
D02*
G37*
G36*
X-2800Y-9868D02*
Y-10250D01*
X-2418D01*
X-2427Y-10187D01*
X-2470Y-10081D01*
X-2540Y-9990D01*
X-2631Y-9920D01*
X-2737Y-9877D01*
X-2800Y-9868D01*
D02*
G37*
G36*
X-7515Y-3115D02*
X-8385D01*
Y-3985D01*
X-7515D01*
Y-3115D01*
D02*
G37*
G36*
X7645Y-3205D02*
X6855D01*
Y-3995D01*
X7645D01*
Y-3205D01*
D02*
G37*
G36*
X-7900Y-4118D02*
Y-4500D01*
X-7518D01*
X-7527Y-4437D01*
X-7570Y-4331D01*
X-7640Y-4240D01*
X-7731Y-4170D01*
X-7837Y-4127D01*
X-7900Y-4118D01*
D02*
G37*
G36*
X250Y-2961D02*
X197Y-2968D01*
X101Y-3008D01*
X18Y-3072D01*
X-45Y-3154D01*
X-85Y-3250D01*
X-92Y-3304D01*
X250D01*
Y-2961D01*
D02*
G37*
G36*
Y-3404D02*
X-92D01*
X-85Y-3457D01*
X-45Y-3553D01*
X18Y-3635D01*
X101Y-3699D01*
X197Y-3739D01*
X250Y-3746D01*
Y-3404D01*
D02*
G37*
G36*
X693D02*
X350D01*
Y-3746D01*
X404Y-3739D01*
X500Y-3699D01*
X582Y-3635D01*
X646Y-3553D01*
X685Y-3457D01*
X693Y-3404D01*
D02*
G37*
G36*
X-8000Y-4118D02*
X-8063Y-4127D01*
X-8169Y-4170D01*
X-8260Y-4240D01*
X-8330Y-4331D01*
X-8373Y-4437D01*
X-8382Y-4500D01*
X-8000D01*
Y-4118D01*
D02*
G37*
G36*
X8600Y-4618D02*
X8537Y-4627D01*
X8431Y-4670D01*
X8340Y-4740D01*
X8270Y-4831D01*
X8227Y-4937D01*
X8218Y-5000D01*
X8600D01*
Y-4618D01*
D02*
G37*
G36*
X9082Y-5100D02*
X8700D01*
Y-5482D01*
X8763Y-5473D01*
X8869Y-5430D01*
X8960Y-5360D01*
X9030Y-5269D01*
X9073Y-5163D01*
X9082Y-5100D01*
D02*
G37*
G36*
X8600D02*
X8218D01*
X8227Y-5163D01*
X8270Y-5269D01*
X8340Y-5360D01*
X8431Y-5430D01*
X8537Y-5473D01*
X8600Y-5482D01*
Y-5100D01*
D02*
G37*
G36*
X-7518Y-4600D02*
X-7900D01*
Y-4982D01*
X-7837Y-4973D01*
X-7731Y-4930D01*
X-7640Y-4860D01*
X-7570Y-4769D01*
X-7527Y-4663D01*
X-7518Y-4600D01*
D02*
G37*
G36*
X-8000D02*
X-8382D01*
X-8373Y-4663D01*
X-8330Y-4769D01*
X-8260Y-4860D01*
X-8169Y-4930D01*
X-8063Y-4973D01*
X-8000Y-4982D01*
Y-4600D01*
D02*
G37*
G36*
X8700Y-4618D02*
Y-5000D01*
X9082D01*
X9073Y-4937D01*
X9030Y-4831D01*
X8960Y-4740D01*
X8869Y-4670D01*
X8763Y-4627D01*
X8700Y-4618D01*
D02*
G37*
G36*
X8250Y7032D02*
X8187Y7023D01*
X8081Y6980D01*
X7990Y6910D01*
X7920Y6819D01*
X7877Y6713D01*
X7868Y6650D01*
X8250D01*
Y7032D01*
D02*
G37*
G36*
X8732Y6550D02*
X8350D01*
Y6168D01*
X8413Y6177D01*
X8519Y6220D01*
X8610Y6290D01*
X8680Y6381D01*
X8723Y6487D01*
X8732Y6550D01*
D02*
G37*
G36*
X8250D02*
X7868D01*
X7877Y6487D01*
X7920Y6381D01*
X7990Y6290D01*
X8081Y6220D01*
X8187Y6177D01*
X8250Y6168D01*
Y6550D01*
D02*
G37*
G36*
X2582Y7400D02*
X2200D01*
Y7018D01*
X2263Y7027D01*
X2369Y7070D01*
X2460Y7140D01*
X2530Y7231D01*
X2573Y7337D01*
X2582Y7400D01*
D02*
G37*
G36*
X2100D02*
X1718D01*
X1727Y7337D01*
X1770Y7231D01*
X1840Y7140D01*
X1931Y7070D01*
X2037Y7027D01*
X2100Y7018D01*
Y7400D01*
D02*
G37*
G36*
X8350Y7032D02*
Y6650D01*
X8732D01*
X8723Y6713D01*
X8680Y6819D01*
X8610Y6910D01*
X8519Y6980D01*
X8413Y7023D01*
X8350Y7032D01*
D02*
G37*
G36*
X-8343Y6806D02*
X-8446Y6792D01*
X-8542Y6752D01*
X-8625Y6689D01*
X-8688Y6606D01*
X-8728Y6510D01*
X-8742Y6407D01*
X-8728Y6304D01*
X-8688Y6208D01*
X-8625Y6125D01*
X-8542Y6062D01*
X-8446Y6022D01*
X-8343Y6008D01*
X-8240Y6022D01*
X-8144Y6062D01*
X-8061Y6125D01*
X-7998Y6208D01*
X-7958Y6304D01*
X-7944Y6407D01*
X-7958Y6510D01*
X-7998Y6606D01*
X-8061Y6689D01*
X-8144Y6752D01*
X-8240Y6792D01*
X-8343Y6806D01*
D02*
G37*
G36*
X5906Y7131D02*
X5714Y7116D01*
X5527Y7071D01*
X5349Y6998D01*
X5185Y6897D01*
X5039Y6772D01*
X4914Y6626D01*
X4813Y6462D01*
X4740Y6284D01*
X4695Y6097D01*
X4680Y5906D01*
X4695Y5714D01*
X4740Y5527D01*
X4813Y5349D01*
X4914Y5185D01*
X5039Y5039D01*
X5185Y4914D01*
X5349Y4813D01*
X5527Y4740D01*
X5714Y4695D01*
X5906Y4680D01*
X6097Y4695D01*
X6284Y4740D01*
X6462Y4813D01*
X6626Y4914D01*
X6772Y5039D01*
X6897Y5185D01*
X6998Y5349D01*
X7071Y5527D01*
X7116Y5714D01*
X7131Y5906D01*
X7116Y6097D01*
X7071Y6284D01*
X6998Y6462D01*
X6897Y6626D01*
X6772Y6772D01*
X6626Y6897D01*
X6462Y6998D01*
X6284Y7071D01*
X6097Y7116D01*
X5906Y7131D01*
D02*
G37*
G36*
X-5906D02*
X-6097Y7116D01*
X-6284Y7071D01*
X-6462Y6998D01*
X-6626Y6897D01*
X-6772Y6772D01*
X-6897Y6626D01*
X-6998Y6462D01*
X-7071Y6284D01*
X-7116Y6097D01*
X-7131Y5906D01*
X-7116Y5714D01*
X-7071Y5527D01*
X-6998Y5349D01*
X-6897Y5185D01*
X-6772Y5039D01*
X-6626Y4914D01*
X-6462Y4813D01*
X-6284Y4740D01*
X-6097Y4695D01*
X-5906Y4680D01*
X-5714Y4695D01*
X-5527Y4740D01*
X-5349Y4813D01*
X-5185Y4914D01*
X-5039Y5039D01*
X-4914Y5185D01*
X-4813Y5349D01*
X-4740Y5527D01*
X-4695Y5714D01*
X-4680Y5906D01*
X-4695Y6097D01*
X-4740Y6284D01*
X-4813Y6462D01*
X-4914Y6626D01*
X-5039Y6772D01*
X-5185Y6897D01*
X-5349Y6998D01*
X-5527Y7071D01*
X-5714Y7116D01*
X-5906Y7131D01*
D02*
G37*
G36*
X-2300Y4303D02*
Y4100D01*
X-2097D01*
X-2099Y4117D01*
X-2125Y4180D01*
X-2166Y4234D01*
X-2220Y4275D01*
X-2283Y4301D01*
X-2300Y4303D01*
D02*
G37*
G36*
X550Y6700D02*
X-1250D01*
Y5300D01*
X550D01*
Y6700D01*
D02*
G37*
G36*
X8735Y6035D02*
X7865D01*
Y5165D01*
X8735D01*
Y6035D01*
D02*
G37*
G36*
X-9050Y6259D02*
X-9609Y5700D01*
X-9050Y5141D01*
X-8491Y5700D01*
X-9050Y6259D01*
D02*
G37*
G36*
X2100Y7882D02*
X2037Y7873D01*
X1931Y7830D01*
X1840Y7760D01*
X1770Y7669D01*
X1727Y7563D01*
X1718Y7500D01*
X2100D01*
Y7882D01*
D02*
G37*
G36*
X-400Y10450D02*
X-742D01*
X-735Y10397D01*
X-695Y10301D01*
X-632Y10218D01*
X-549Y10155D01*
X-453Y10115D01*
X-400Y10108D01*
Y10450D01*
D02*
G37*
G36*
X-2215Y10735D02*
X-3085D01*
Y9865D01*
X-2215D01*
Y10735D01*
D02*
G37*
G36*
X-2600Y9732D02*
Y9350D01*
X-2218D01*
X-2227Y9413D01*
X-2270Y9519D01*
X-2340Y9610D01*
X-2431Y9680D01*
X-2537Y9723D01*
X-2600Y9732D01*
D02*
G37*
G36*
X-300Y10892D02*
Y10550D01*
X42D01*
X35Y10603D01*
X-5Y10699D01*
X-68Y10782D01*
X-151Y10845D01*
X-247Y10885D01*
X-300Y10892D01*
D02*
G37*
G36*
X-400D02*
X-453Y10885D01*
X-549Y10845D01*
X-632Y10782D01*
X-695Y10699D01*
X-735Y10603D01*
X-742Y10550D01*
X-400D01*
Y10892D01*
D02*
G37*
G36*
X42Y10450D02*
X-300D01*
Y10108D01*
X-247Y10115D01*
X-151Y10155D01*
X-68Y10218D01*
X-5Y10301D01*
X35Y10397D01*
X42Y10450D01*
D02*
G37*
G36*
X-2700Y9732D02*
X-2763Y9723D01*
X-2869Y9680D01*
X-2960Y9610D01*
X-3030Y9519D01*
X-3073Y9413D01*
X-3082Y9350D01*
X-2700D01*
Y9732D01*
D02*
G37*
G36*
X292Y9137D02*
X-223D01*
Y8563D01*
X292D01*
Y8697D01*
X397D01*
X440Y8650D01*
X449Y8583D01*
X475Y8520D01*
X516Y8466D01*
X570Y8425D01*
X633Y8399D01*
X700Y8390D01*
X767Y8399D01*
X830Y8425D01*
X884Y8466D01*
X925Y8520D01*
X951Y8583D01*
X960Y8650D01*
X951Y8717D01*
X925Y8780D01*
X884Y8834D01*
X830Y8875D01*
X767Y8901D01*
X700Y8910D01*
X662Y8905D01*
X608Y8958D01*
X559Y8991D01*
X500Y9003D01*
X292D01*
Y9137D01*
D02*
G37*
G36*
X2585Y8885D02*
X1715D01*
Y8015D01*
X2585D01*
Y8885D01*
D02*
G37*
G36*
X2200Y7882D02*
Y7500D01*
X2582D01*
X2573Y7563D01*
X2530Y7669D01*
X2460Y7760D01*
X2369Y7830D01*
X2263Y7873D01*
X2200Y7882D01*
D02*
G37*
G36*
X-2218Y9250D02*
X-2600D01*
Y8868D01*
X-2537Y8877D01*
X-2431Y8920D01*
X-2340Y8990D01*
X-2270Y9081D01*
X-2227Y9187D01*
X-2218Y9250D01*
D02*
G37*
G36*
X-2700D02*
X-3082D01*
X-3073Y9187D01*
X-3030Y9081D01*
X-2960Y8990D01*
X-2869Y8920D01*
X-2763Y8877D01*
X-2700Y8868D01*
Y9250D01*
D02*
G37*
G36*
X1045Y10895D02*
X255D01*
Y10335D01*
X-368Y9713D01*
X-1550D01*
X-1612Y9701D01*
X-1665Y9665D01*
X-2165Y9165D01*
X-2201Y9112D01*
X-2213Y9050D01*
Y8768D01*
X-2368Y8613D01*
X-3382D01*
X-4185Y9415D01*
X-4238Y9451D01*
X-4300Y9463D01*
X-5300D01*
X-5300Y9463D01*
X-5362Y9451D01*
X-5415Y9415D01*
X-6265Y8565D01*
X-6301Y8512D01*
X-6313Y8450D01*
Y7818D01*
X-6559Y7572D01*
X-6596Y7605D01*
X-6583Y7622D01*
X-6544Y7718D01*
X-6530Y7821D01*
X-6544Y7925D01*
X-6583Y8021D01*
X-6647Y8103D01*
X-6729Y8167D01*
X-6825Y8206D01*
X-6929Y8220D01*
X-7032Y8206D01*
X-7128Y8167D01*
X-7211Y8103D01*
X-7274Y8021D01*
X-7314Y7925D01*
X-7327Y7821D01*
X-7314Y7718D01*
X-7274Y7622D01*
X-7211Y7539D01*
X-7128Y7476D01*
X-7032Y7436D01*
X-6929Y7423D01*
X-6825Y7436D01*
X-6729Y7476D01*
X-6712Y7489D01*
X-6679Y7451D01*
X-6853Y7277D01*
X-7276D01*
X-7291Y7314D01*
X-7354Y7396D01*
X-7436Y7459D01*
X-7533Y7499D01*
X-7636Y7513D01*
X-7739Y7499D01*
X-7835Y7459D01*
X-7918Y7396D01*
X-7981Y7314D01*
X-8021Y7217D01*
X-8034Y7114D01*
X-8021Y7011D01*
X-7981Y6915D01*
X-7918Y6832D01*
X-7835Y6769D01*
X-7739Y6729D01*
X-7636Y6716D01*
X-7533Y6729D01*
X-7436Y6769D01*
X-7354Y6832D01*
X-7291Y6915D01*
X-7276Y6951D01*
X-6786D01*
X-6723Y6963D01*
X-6670Y6999D01*
X-6035Y7635D01*
X-5999Y7688D01*
X-5987Y7750D01*
Y8382D01*
X-5377Y8992D01*
X-5331Y8973D01*
Y8397D01*
X-4949D01*
X-4528Y7976D01*
Y-7276D01*
X-5426Y-8174D01*
X-5465Y-8232D01*
X-5478Y-8300D01*
Y-8805D01*
X-5695D01*
Y-9595D01*
X-4905D01*
Y-8805D01*
X-5122D01*
Y-8374D01*
X-4224Y-7476D01*
X-4185Y-7418D01*
X-4172Y-7350D01*
X-4172Y-7350D01*
Y8050D01*
X-4185Y8118D01*
X-4224Y8176D01*
X-4224Y8176D01*
X-4541Y8493D01*
Y9137D01*
X-4368D01*
X-3565Y8335D01*
X-3512Y8299D01*
X-3450Y8287D01*
X-3450Y8287D01*
X-2300D01*
X-2238Y8299D01*
X-2196Y8327D01*
X-2164Y8288D01*
X-2376Y8076D01*
X-2415Y8018D01*
X-2420Y7994D01*
X-2434Y7984D01*
X-2475Y7930D01*
X-2501Y7867D01*
X-2510Y7800D01*
X-2501Y7733D01*
X-2475Y7670D01*
X-2434Y7616D01*
X-2380Y7575D01*
X-2317Y7549D01*
X-2250Y7540D01*
X-2183Y7549D01*
X-2120Y7575D01*
X-2066Y7616D01*
X-2025Y7670D01*
X-1999Y7733D01*
X-1990Y7800D01*
X-1999Y7867D01*
X-2023Y7925D01*
X-1276Y8672D01*
X-892D01*
Y8563D01*
X-746D01*
X-742Y8558D01*
X-684Y8520D01*
X-615Y8506D01*
X-547Y8520D01*
X-489Y8558D01*
X-486Y8563D01*
X-377D01*
Y9137D01*
X-892D01*
Y9028D01*
X-1350D01*
X-1418Y9015D01*
X-1476Y8976D01*
X-1888Y8564D01*
X-1927Y8596D01*
X-1899Y8638D01*
X-1887Y8700D01*
Y8982D01*
X-1482Y9387D01*
X-300D01*
X-238Y9399D01*
X-185Y9435D01*
X485Y10105D01*
X1045D01*
Y10895D01*
D02*
G37*
G36*
X-10300Y2050D02*
X-10642D01*
X-10635Y1997D01*
X-10595Y1901D01*
X-10532Y1818D01*
X-10449Y1755D01*
X-10353Y1715D01*
X-10300Y1708D01*
Y2050D01*
D02*
G37*
G36*
X-3100Y8010D02*
X-3167Y8001D01*
X-3230Y7975D01*
X-3284Y7934D01*
X-3325Y7880D01*
X-3351Y7817D01*
X-3360Y7750D01*
X-3355Y7712D01*
X-3408Y7658D01*
X-3441Y7609D01*
X-3453Y7550D01*
Y3950D01*
X-3441Y3891D01*
X-3408Y3842D01*
X-1258Y1692D01*
X-1209Y1659D01*
X-1150Y1647D01*
X1793D01*
X1816Y1616D01*
X1870Y1575D01*
X1933Y1549D01*
X2000Y1540D01*
X2067Y1549D01*
X2130Y1575D01*
X2184Y1616D01*
X2225Y1670D01*
X2251Y1733D01*
X2260Y1800D01*
X2251Y1867D01*
X2225Y1930D01*
X2184Y1984D01*
X2130Y2025D01*
X2067Y2051D01*
X2000Y2060D01*
X1933Y2051D01*
X1870Y2025D01*
X1816Y1984D01*
X1793Y1953D01*
X-1087D01*
X-3147Y4013D01*
Y7447D01*
X-3100Y7490D01*
X-3033Y7499D01*
X-2970Y7525D01*
X-2916Y7566D01*
X-2875Y7620D01*
X-2849Y7683D01*
X-2840Y7750D01*
X-2849Y7817D01*
X-2875Y7880D01*
X-2916Y7934D01*
X-2970Y7975D01*
X-3033Y8001D01*
X-3100Y8010D01*
D02*
G37*
G36*
X1050Y1460D02*
X983Y1451D01*
X920Y1425D01*
X866Y1384D01*
X843Y1353D01*
X450D01*
X391Y1341D01*
X342Y1308D01*
X-1613Y-647D01*
X-2750D01*
X-2809Y-659D01*
X-2858Y-692D01*
X-3658Y-1492D01*
X-3691Y-1541D01*
X-3703Y-1600D01*
Y-1843D01*
X-3734Y-1866D01*
X-3775Y-1920D01*
X-3801Y-1983D01*
X-3810Y-2050D01*
X-3801Y-2117D01*
X-3775Y-2180D01*
X-3734Y-2234D01*
X-3680Y-2275D01*
X-3617Y-2301D01*
X-3550Y-2310D01*
X-3483Y-2301D01*
X-3420Y-2275D01*
X-3366Y-2234D01*
X-3325Y-2180D01*
X-3299Y-2117D01*
X-3290Y-2050D01*
X-3299Y-1983D01*
X-3325Y-1920D01*
X-3366Y-1866D01*
X-3397Y-1843D01*
Y-1663D01*
X-2687Y-953D01*
X-1550D01*
X-1491Y-941D01*
X-1442Y-908D01*
X415Y948D01*
X452Y915D01*
X451Y913D01*
X425Y880D01*
X399Y817D01*
X390Y750D01*
X395Y712D01*
X-58Y258D01*
X-91Y209D01*
X-103Y150D01*
Y-593D01*
X-134Y-616D01*
X-175Y-670D01*
X-201Y-733D01*
X-210Y-800D01*
X-201Y-867D01*
X-175Y-930D01*
X-134Y-984D01*
X-80Y-1025D01*
X-17Y-1051D01*
X50Y-1060D01*
X117Y-1051D01*
X180Y-1025D01*
X234Y-984D01*
X275Y-930D01*
X301Y-867D01*
X310Y-800D01*
X301Y-733D01*
X275Y-670D01*
X234Y-616D01*
X203Y-593D01*
Y87D01*
X612Y495D01*
X650Y490D01*
X717Y499D01*
X780Y525D01*
X834Y566D01*
X875Y620D01*
X901Y683D01*
X910Y750D01*
X901Y817D01*
X875Y880D01*
X834Y934D01*
X780Y975D01*
X717Y1001D01*
X730Y1047D01*
X843D01*
X866Y1016D01*
X920Y975D01*
X983Y949D01*
X1050Y940D01*
X1117Y949D01*
X1180Y975D01*
X1234Y1016D01*
X1275Y1070D01*
X1301Y1133D01*
X1310Y1200D01*
X1301Y1267D01*
X1275Y1330D01*
X1234Y1384D01*
X1180Y1425D01*
X1117Y1451D01*
X1050Y1460D01*
D02*
G37*
G36*
X-10200Y2492D02*
Y2150D01*
X-9858D01*
X-9865Y2203D01*
X-9905Y2299D01*
X-9968Y2382D01*
X-10051Y2445D01*
X-10147Y2485D01*
X-10200Y2492D01*
D02*
G37*
G36*
X-10300D02*
X-10353Y2485D01*
X-10449Y2445D01*
X-10532Y2382D01*
X-10595Y2299D01*
X-10635Y2203D01*
X-10642Y2150D01*
X-10300D01*
Y2492D01*
D02*
G37*
G36*
X-9858Y2050D02*
X-10200D01*
Y1708D01*
X-10147Y1715D01*
X-10051Y1755D01*
X-9968Y1818D01*
X-9905Y1901D01*
X-9865Y1997D01*
X-9858Y2050D01*
D02*
G37*
G36*
X-10300Y1232D02*
Y850D01*
X-9918D01*
X-9927Y913D01*
X-9970Y1019D01*
X-10040Y1110D01*
X-10131Y1180D01*
X-10237Y1223D01*
X-10300Y1232D01*
D02*
G37*
G36*
X9285Y985D02*
X8415D01*
Y115D01*
X9285D01*
Y985D01*
D02*
G37*
G36*
X-2450Y53D02*
Y-150D01*
X-2247D01*
X-2249Y-133D01*
X-2275Y-70D01*
X-2316Y-16D01*
X-2370Y25D01*
X-2433Y51D01*
X-2450Y53D01*
D02*
G37*
G36*
X-2550D02*
X-2567Y51D01*
X-2630Y25D01*
X-2684Y-16D01*
X-2725Y-70D01*
X-2751Y-133D01*
X-2753Y-150D01*
X-2550D01*
Y53D01*
D02*
G37*
G36*
X-10400Y1232D02*
X-10463Y1223D01*
X-10569Y1180D01*
X-10660Y1110D01*
X-10730Y1019D01*
X-10773Y913D01*
X-10782Y850D01*
X-10400D01*
Y1232D01*
D02*
G37*
G36*
X-9918Y750D02*
X-10300D01*
Y368D01*
X-10237Y377D01*
X-10131Y420D01*
X-10040Y490D01*
X-9970Y581D01*
X-9927Y687D01*
X-9918Y750D01*
D02*
G37*
G36*
X-10400D02*
X-10782D01*
X-10773Y687D01*
X-10730Y581D01*
X-10660Y490D01*
X-10569Y420D01*
X-10463Y377D01*
X-10400Y368D01*
Y750D01*
D02*
G37*
G36*
X3800Y3199D02*
X3697Y3185D01*
X3601Y3145D01*
X3518Y3082D01*
X3455Y2999D01*
X3415Y2903D01*
X3401Y2800D01*
X3415Y2697D01*
X3455Y2601D01*
X3518Y2518D01*
X3601Y2455D01*
X3697Y2415D01*
X3800Y2401D01*
X3903Y2415D01*
X3999Y2455D01*
X4082Y2518D01*
X4145Y2601D01*
X4185Y2697D01*
X4199Y2800D01*
X4185Y2903D01*
X4145Y2999D01*
X4082Y3082D01*
X3999Y3145D01*
X3903Y3185D01*
X3800Y3199D01*
D02*
G37*
G36*
X350Y3407D02*
Y3065D01*
X693D01*
X685Y3118D01*
X646Y3214D01*
X582Y3296D01*
X500Y3360D01*
X404Y3400D01*
X350Y3407D01*
D02*
G37*
G36*
X250D02*
X197Y3400D01*
X101Y3360D01*
X18Y3296D01*
X-45Y3214D01*
X-85Y3118D01*
X-92Y3065D01*
X250D01*
Y3407D01*
D02*
G37*
G36*
X2850Y3192D02*
Y2850D01*
X3192D01*
X3185Y2903D01*
X3145Y2999D01*
X3082Y3082D01*
X2999Y3145D01*
X2903Y3185D01*
X2850Y3192D01*
D02*
G37*
G36*
X-2400Y4303D02*
X-2417Y4301D01*
X-2480Y4275D01*
X-2534Y4234D01*
X-2575Y4180D01*
X-2601Y4117D01*
X-2603Y4100D01*
X-2400D01*
Y4303D01*
D02*
G37*
G36*
X-2097Y4000D02*
X-2300D01*
Y3797D01*
X-2283Y3799D01*
X-2220Y3825D01*
X-2166Y3866D01*
X-2125Y3920D01*
X-2099Y3983D01*
X-2097Y4000D01*
D02*
G37*
G36*
X-2400D02*
X-2603D01*
X-2601Y3983D01*
X-2575Y3920D01*
X-2534Y3866D01*
X-2480Y3825D01*
X-2417Y3799D01*
X-2400Y3797D01*
Y4000D01*
D02*
G37*
G36*
X2750Y3192D02*
X2697Y3185D01*
X2601Y3145D01*
X2518Y3082D01*
X2455Y2999D01*
X2415Y2903D01*
X2408Y2850D01*
X2750D01*
Y3192D01*
D02*
G37*
G36*
X3192Y2750D02*
X2850D01*
Y2408D01*
X2903Y2415D01*
X2999Y2455D01*
X3082Y2518D01*
X3145Y2601D01*
X3185Y2697D01*
X3192Y2750D01*
D02*
G37*
G36*
X2750D02*
X2408D01*
X2415Y2697D01*
X2455Y2601D01*
X2518Y2518D01*
X2601Y2455D01*
X2697Y2415D01*
X2750Y2408D01*
Y2750D01*
D02*
G37*
G36*
X4800Y3199D02*
X4697Y3185D01*
X4601Y3145D01*
X4518Y3082D01*
X4455Y2999D01*
X4415Y2903D01*
X4401Y2800D01*
X4415Y2697D01*
X4455Y2601D01*
X4518Y2518D01*
X4601Y2455D01*
X4697Y2415D01*
X4800Y2401D01*
X4903Y2415D01*
X4999Y2455D01*
X5082Y2518D01*
X5145Y2601D01*
X5185Y2697D01*
X5199Y2800D01*
X5185Y2903D01*
X5145Y2999D01*
X5082Y3082D01*
X4999Y3145D01*
X4903Y3185D01*
X4800Y3199D01*
D02*
G37*
G36*
X-9855Y3495D02*
X-10645D01*
Y2705D01*
X-9855D01*
Y3495D01*
D02*
G37*
G36*
X693Y2965D02*
X350D01*
Y2622D01*
X404Y2629D01*
X500Y2669D01*
X582Y2733D01*
X646Y2815D01*
X685Y2911D01*
X693Y2965D01*
D02*
G37*
G36*
X250D02*
X-92D01*
X-85Y2911D01*
X-45Y2815D01*
X18Y2733D01*
X101Y2669D01*
X197Y2629D01*
X250Y2622D01*
Y2965D01*
D02*
G37*
%LPD*%
D23*
X-615Y8685D02*
Y8950D01*
X-781Y8850D02*
X-615Y8685D01*
X5800Y2550D02*
Y2800D01*
X5400Y2150D02*
X5800Y2550D01*
X4000Y2150D02*
X5400D01*
X2950Y1100D02*
X4000Y2150D01*
X2950Y-4700D02*
Y1100D01*
X2650Y-5000D02*
X2950Y-4700D01*
X1700Y-5000D02*
X2650D01*
X5800Y2800D02*
X7750Y850D01*
Y-2100D02*
Y850D01*
X7250Y-2600D02*
X7750Y-2100D01*
X-4936Y8636D02*
Y8792D01*
Y8636D02*
X-4350Y8050D01*
Y-7350D02*
Y8050D01*
X-5300Y-8300D02*
X-4350Y-7350D01*
X-5300Y-9200D02*
Y-8300D01*
X-2250Y7800D02*
Y7950D01*
X-1350Y8850D01*
X-781D01*
D24*
X50Y150D02*
X650Y750D01*
X50Y-700D02*
Y150D01*
X-1550Y-800D02*
X450Y1200D01*
X-2750Y-800D02*
X-1550D01*
X-3550Y-1600D02*
X-2750Y-800D01*
X4600Y-3450D02*
X5500Y-4350D01*
X8250D02*
X9000Y-3600D01*
X5500Y-4350D02*
X8250D01*
X4300Y1700D02*
X4600Y1400D01*
Y-3450D02*
Y1400D01*
X-3550Y-2050D02*
Y-1600D01*
X450Y1200D02*
X1050D01*
X9000Y-3600D02*
X9250D01*
X-1150Y1800D02*
X2000D01*
X-3300Y3950D02*
X-1150Y1800D01*
X-3300Y3950D02*
Y7550D01*
X-3100Y7750D01*
X500Y8850D02*
X700Y8650D01*
X35Y8850D02*
X500D01*
D25*
X-7636Y7114D02*
X-6786D01*
X-6150Y7750D01*
X-1550Y9550D02*
X-300D01*
X-2050Y9050D02*
X-1550Y9550D01*
X-3450Y8450D02*
X-2300D01*
X-2050Y8700D01*
Y9050D01*
X-4300Y9300D02*
X-3450Y8450D01*
X-6150Y7750D02*
Y8450D01*
X-5300Y9300D01*
X-4300D01*
X-300Y9550D02*
X650Y10500D01*
D26*
X-2850Y-9300D02*
D03*
X-2000Y-1600D02*
D03*
X2150Y8450D02*
D03*
X8850Y550D02*
D03*
X8650Y-6050D02*
D03*
X-7950Y-3550D02*
D03*
X8300Y5600D02*
D03*
X-10350Y-200D02*
D03*
X-2650Y10300D02*
D03*
X1850Y-6300D02*
D03*
D27*
X-2850Y-10300D02*
D03*
X-2000Y-2600D02*
D03*
X2150Y7450D02*
D03*
X8850Y-450D02*
D03*
X8650Y-5050D02*
D03*
X-7950Y-4550D02*
D03*
X8300Y6600D02*
D03*
X-10350Y800D02*
D03*
X-2650Y9300D02*
D03*
X1850Y-7300D02*
D03*
D28*
X5800Y2800D02*
D03*
X7250Y-3600D02*
D03*
X650Y10500D02*
D03*
D29*
X4800Y2800D02*
D03*
X3800D02*
D03*
X2800D02*
D03*
X7250Y-2600D02*
D03*
X8250Y-3600D02*
D03*
Y-2600D02*
D03*
X9250Y-3600D02*
D03*
Y-2600D02*
D03*
X-8343Y6407D02*
D03*
X-7636Y7114D02*
D03*
X-6929Y7821D02*
D03*
X300Y3015D02*
D03*
Y-3354D02*
D03*
X-350Y10500D02*
D03*
X-10250Y2100D02*
D03*
D30*
X-5906Y-5906D02*
D03*
Y5906D02*
D03*
X5906D02*
D03*
Y-5906D02*
D03*
D31*
X-9050Y5700D02*
D03*
D32*
X-5300Y-9200D02*
D03*
X-4936Y8792D02*
D03*
X-10250Y3100D02*
D03*
D33*
X7072Y-391D02*
D03*
D34*
X1950Y-2500D02*
D03*
X650Y750D02*
D03*
X-2500Y-200D02*
D03*
X-2350Y4050D02*
D03*
X50Y-800D02*
D03*
X-100Y5750D02*
D03*
X2000Y1800D02*
D03*
X-3550Y-2050D02*
D03*
X1050Y1200D02*
D03*
X4300Y1700D02*
D03*
X-3100Y7750D02*
D03*
X-2250Y7800D02*
D03*
X700Y8650D02*
D03*
X-700Y5750D02*
D03*
X-100Y6250D02*
D03*
X-700D02*
D03*
D35*
X1700Y-5000D02*
D03*
D36*
X-635Y8850D02*
D03*
X35D02*
D03*
D37*
X-350Y6000D02*
D03*
M02*
