M48
;Layer_Color=9474304
;FILE_FORMAT=2:4
INCH,LZ
;TYPE=PLATED
T1F00S00C0.0157
T2F00S00C0.0280
T3F00S00C0.0354
T4F00S00C0.1378
%
T01
X-00355Y-00205
X-0025Y-0002
X00005Y-0008
X00065Y00075
X00105Y0012
X002Y0018
X0043Y0017
X00195Y-0025
X-0001Y00575
Y00625
X-0007
Y00575
X-00235Y00405
X-00225Y0078
X-0031Y00775
X0007Y00865
T02
X0017Y-005
T03
X-0053Y-0092
X-00285Y-0093
Y-0103
X00865Y-00605
Y-00505
X00825Y-0036
Y-0026
X00925
Y-0036
X00885Y-00045
Y00055
X0083Y0056
Y0066
X0058Y0028
X0048
X0038
X0028
X0003Y003015
X00215Y00745
X-006929Y007821
X-002Y-0016
Y-0026
X0003Y-003354
X00185Y-0063
Y-0073
X00725Y-0036
Y-0026
X007072Y-000391
X-01035Y-0002
Y0008
X-01025Y0021
Y0031
X-00905Y0057
X-008343Y006407
X-007636Y007114
X-00795Y-00355
Y-00455
X-004936Y008792
X-00265Y0093
Y0103
X-00035Y0105
X00065
X00215Y00845
T04
X-005906Y-005906
Y005906
X005906
Y-005906
M30
