  0
SECTION
  2
HEADER
  9
$ACADVER
  1
AC1015
  9
$ACADMAINTVER
 70
     6
  9
$DWGCODEPAGE
  3
ANSI_1252
  9
$INSBASE
 10
0.0
 20
0.0
 30
0.0
  9
$EXTMIN
 10
0.2272357945
 20
-0.0004413035
 30
0.0
  9
$EXTMAX
 10
50.005366624
 20
35.1073424944
 30
0.0
  9
$LIMMIN
 10
0.0
 20
0.0
  9
$LIMMAX
 10
420.0
 20
297.0
  9
$ORTHOMODE
 70
     0
  9
$REGENMODE
 70
     1
  9
$FILLMODE
 70
     1
  9
$QTEXTMODE
 70
     0
  9
$MIRRTEXT
 70
     1
  9
$LTSCALE
 40
1.0
  9
$ATTMODE
 70
     1
  9
$TEXTSIZE
 40
3.5
  9
$TRACEWID
 40
1.0
  9
$TEXTSTYLE
  7
Standard
  9
$CLAYER
  8
0
  9
$CELTYPE
  6
ByLayer
  9
$CECOLOR
 62
   256
  9
$CELTSCALE
 40
1.0
  9
$DISPSILH
 70
     0
  9
$DIMSCALE
 40
1.0
  9
$DIMASZ
 40
3.302
  9
$DIMEXO
 40
1.0
  9
$DIMDLI
 40
3.75
  9
$DIMRND
 40
0.0
  9
$DIMDLE
 40
0.0
  9
$DIMEXE
 40
1.0
  9
$DIMTP
 40
0.0
  9
$DIMTM
 40
0.0
  9
$DIMTXT
 40
3.5
  9
$DIMCEN
 40
2.5
  9
$DIMTSZ
 40
0.0
  9
$DIMTOL
 70
     0
  9
$DIMLIM
 70
     0
  9
$DIMTIH
 70
     1
  9
$DIMTOH
 70
     1
  9
$DIMSE1
 70
     0
  9
$DIMSE2
 70
     0
  9
$DIMTAD
 70
     1
  9
$DIMZIN
 70
     0
  9
$DIMBLK
  1

  9
$DIMASO
 70
     1
  9
$DIMSHO
 70
     1
  9
$DIMPOST
  1

  9
$DIMAPOST
  1

  9
$DIMALT
 70
     0
  9
$DIMALTD
 70
     3
  9
$DIMALTF
 40
0.0393700787
  9
$DIMLFAC
 40
1.0
  9
$DIMTOFL
 70
     1
  9
$DIMTVP
 40
0.0
  9
$DIMTIX
 70
     0
  9
$DIMSOXD
 70
     0
  9
$DIMSAH
 70
     0
  9
$DIMBLK1
  1

  9
$DIMBLK2
  1

  9
$DIMSTYLE
  2
ISO-25
  9
$DIMCLRD
 70
     0
  9
$DIMCLRE
 70
     0
  9
$DIMCLRT
 70
     0
  9
$DIMTFAC
 40
1.0
  9
$DIMGAP
 40
1.524
  9
$DIMJUST
 70
     0
  9
$DIMSD1
 70
     0
  9
$DIMSD2
 70
     0
  9
$DIMTOLJ
 70
     0
  9
$DIMTZIN
 70
     0
  9
$DIMALTZ
 70
     0
  9
$DIMALTTZ
 70
     0
  9
$DIMUPT
 70
     0
  9
$DIMDEC
 70
     2
  9
$DIMTDEC
 70
     2
  9
$DIMALTU
 70
     2
  9
$DIMALTTD
 70
     3
  9
$DIMTXSTY
  7
Standard
  9
$DIMAUNIT
 70
     0
  9
$DIMADEC
 70
     2
  9
$DIMALTRND
 40
0.0
  9
$DIMAZIN
 70
     0
  9
$DIMDSEP
 70
    44
  9
$DIMATFIT
 70
     3
  9
$DIMFRAC
 70
     0
  9
$DIMLDRBLK
  1

  9
$DIMLUNIT
 70
     2
  9
$DIMLWD
 70
    -2
  9
$DIMLWE
 70
    -2
  9
$DIMTMOVE
 70
     0
  9
$LUNITS
 70
     2
  9
$LUPREC
 70
     2
  9
$SKETCHINC
 40
1.0
  9
$FILLETRAD
 40
10.0
  9
$AUNITS
 70
     0
  9
$AUPREC
 70
     2
  9
$MENU
  1
.
  9
$ELEVATION
 40
0.0
  9
$PELEVATION
 40
0.0
  9
$THICKNESS
 40
0.0
  9
$LIMCHECK
 70
     0
  9
$CHAMFERA
 40
0.0
  9
$CHAMFERB
 40
0.0
  9
$CHAMFERC
 40
0.0
  9
$CHAMFERD
 40
0.0
  9
$SKPOLY
 70
     0
  9
$TDCREATE
 40
2460442.791266088
  9
$TDUCREATE
 40
2460443.041266088
  9
$TDUPDATE
 40
2460442.791432349
  9
$TDUUPDATE
 40
2460443.041432349
  9
$TDINDWG
 40
0.0000000116
  9
$TDUSRTIMER
 40
0.0000000116
  9
$USRTIMER
 70
     1
  9
$ANGBASE
 50
0.0
  9
$ANGDIR
 70
     0
  9
$PDMODE
 70
     0
  9
$PDSIZE
 40
-1.0
  9
$PLINEWID
 40
0.0
  9
$SPLFRAME
 70
     0
  9
$SPLINETYPE
 70
     6
  9
$SPLINESEGS
 70
     8
  9
$HANDSEED
  5
21C
  9
$SURFTAB1
 70
     6
  9
$SURFTAB2
 70
     6
  9
$SURFTYPE
 70
     6
  9
$SURFU
 70
     6
  9
$SURFV
 70
     6
  9
$UCSBASE
  2

  9
$UCSNAME
  2

  9
$UCSORG
 10
0.0
 20
0.0
 30
0.0
  9
$UCSXDIR
 10
1.0
 20
0.0
 30
0.0
  9
$UCSYDIR
 10
0.0
 20
1.0
 30
0.0
  9
$UCSORTHOREF
  2

  9
$UCSORTHOVIEW
 70
     0
  9
$UCSORGTOP
 10
0.0
 20
0.0
 30
0.0
  9
$UCSORGBOTTOM
 10
0.0
 20
0.0
 30
0.0
  9
$UCSORGLEFT
 10
0.0
 20
0.0
 30
0.0
  9
$UCSORGRIGHT
 10
0.0
 20
0.0
 30
0.0
  9
$UCSORGFRONT
 10
0.0
 20
0.0
 30
0.0
  9
$UCSORGBACK
 10
0.0
 20
0.0
 30
0.0
  9
$PUCSBASE
  2

  9
$PUCSNAME
  2

  9
$PUCSORG
 10
0.0
 20
0.0
 30
0.0
  9
$PUCSXDIR
 10
1.0
 20
0.0
 30
0.0
  9
$PUCSYDIR
 10
0.0
 20
1.0
 30
0.0
  9
$PUCSORTHOREF
  2

  9
$PUCSORTHOVIEW
 70
     0
  9
$PUCSORGTOP
 10
0.0
 20
0.0
 30
0.0
  9
$PUCSORGBOTTOM
 10
0.0
 20
0.0
 30
0.0
  9
$PUCSORGLEFT
 10
0.0
 20
0.0
 30
0.0
  9
$PUCSORGRIGHT
 10
0.0
 20
0.0
 30
0.0
  9
$PUCSORGFRONT
 10
0.0
 20
0.0
 30
0.0
  9
$PUCSORGBACK
 10
0.0
 20
0.0
 30
0.0
  9
$USERI1
 70
     0
  9
$USERI2
 70
     0
  9
$USERI3
 70
     0
  9
$USERI4
 70
     0
  9
$USERI5
 70
     0
  9
$USERR1
 40
0.0
  9
$USERR2
 40
0.0
  9
$USERR3
 40
0.0
  9
$USERR4
 40
0.0
  9
$USERR5
 40
0.0
  9
$WORLDVIEW
 70
     1
  9
$SHADEDGE
 70
     3
  9
$SHADEDIF
 70
    70
  9
$TILEMODE
 70
     1
  9
$MAXACTVP
 70
    64
  9
$PINSBASE
 10
0.0
 20
0.0
 30
0.0
  9
$PLIMCHECK
 70
     0
  9
$PEXTMIN
 10
1.0000000000E+20
 20
1.0000000000E+20
 30
1.0000000000E+20
  9
$PEXTMAX
 10
-1.0000000000E+20
 20
-1.0000000000E+20
 30
-1.0000000000E+20
  9
$PLIMMIN
 10
0.0
 20
0.0
  9
$PLIMMAX
 10
420.0
 20
297.0
  9
$UNITMODE
 70
     0
  9
$VISRETAIN
 70
     1
  9
$PLINEGEN
 70
     0
  9
$PSLTSCALE
 70
     1
  9
$TREEDEPTH
 70
  3020
  9
$CMLSTYLE
  2
Standard
  9
$CMLJUST
 70
     0
  9
$CMLSCALE
 40
20.0
  9
$PROXYGRAPHICS
 70
     1
  9
$MEASUREMENT
 70
     1
  9
$CELWEIGHT
370
    -1
  9
$ENDCAPS
280
     0
  9
$JOINSTYLE
280
     0
  9
$LWDISPLAY
290
     1
  9
$INSUNITS
 70
     4
  9
$HYPERLINKBASE
  1

  9
$STYLESHEET
  1

  9
$XEDIT
290
     1
  9
$CEPSNTYPE
380
     0
  9
$PSTYLEMODE
290
     1
  9
$FINGERPRINTGUID
  2
{A687BD9A-489B-4A46-B910-73418F3F347D}
  9
$VERSIONGUID
  2
{FAEB1C32-E019-11D5-929B-00C0DF256EC4}
  9
$EXTNAMES
290
     1
  9
$PSVPSCALE
 40
0.0
  9
$OLESTARTUP
290
     0
  0
ENDSEC
  0
SECTION
  2
CLASSES
  0
CLASS
  1
ACDBDICTIONARYWDFLT
  2
AcDbDictionaryWithDefault
  3
ObjectDBX Classes
 90
        0
280
     0
281
     0
  0
CLASS
  1
VISUALSTYLE
  2
AcDbVisualStyle
  3
ObjectDBX Classes
 90
     4095
280
     0
281
     0
  0
CLASS
  1
MATERIAL
  2
AcDbMaterial
  3
ObjectDBX Classes
 90
     1153
280
     0
281
     0
  0
CLASS
  1
SCALE
  2
AcDbScale
  3
ObjectDBX Classes
 90
     1153
280
     0
281
     0
  0
CLASS
  1
TABLESTYLE
  2
AcDbTableStyle
  3
ObjectDBX Classes
 90
     4095
280
     0
281
     0
  0
CLASS
  1
MLEADERSTYLE
  2
AcDbMLeaderStyle
  3
ACDB_MLEADERSTYLE_CLASS
 90
     4095
280
     0
281
     0
  0
CLASS
  1
SUN
  2
AcDbSun
  3
SCENEOE
 90
     1153
280
     0
281
     0
  0
CLASS
  1
ACDBPLACEHOLDER
  2
AcDbPlaceHolder
  3
ObjectDBX Classes
 90
        0
280
     0
281
     0
  0
CLASS
  1
LAYOUT
  2
AcDbLayout
  3
ObjectDBX Classes
 90
        0
280
     0
281
     0
  0
ENDSEC
  0
SECTION
  2
TABLES
  0
TABLE
  2
VPORT
  5
8
330
0
100
AcDbSymbolTable
 70
     1
  0
VPORT
  5
29
330
8
100
AcDbSymbolTableRecord
100
AcDbViewportTableRecord
  2
*Active
 70
     0
 10
0.0
 20
0.0
 11
1.0
 21
1.0
 12
25.1163012093
 22
17.5534505955
 13
0.0
 23
0.0
 14
10.0
 24
10.0
 15
10.0
 25
10.0
 16
0.0
 26
0.0
 36
1.0
 17
0.0
 27
0.0
 37
0.0
 40
35.8099394738
 41
1.4178659387
 42
50.0
 43
0.0
 44
0.0
 50
0.0
 51
0.0
 71
     0
 72
   100
 73
     1
 74
     3
 75
     0
 76
     0
 77
     0
 78
     0
281
     0
 65
     1
110
0.0
120
0.0
130
0.0
111
1.0
121
0.0
131
0.0
112
0.0
122
1.0
132
0.0
 79
     0
146
0.0
  0
ENDTAB
  0
TABLE
  2
LTYPE
  5
5
330
0
100
AcDbSymbolTable
 70
     6
  0
LTYPE
  5
14
330
5
100
AcDbSymbolTableRecord
100
AcDbLinetypeTableRecord
  2
ByBlock
 70
     0
  3

 72
    65
 73
     0
 40
0.0
  0
LTYPE
  5
15
330
5
100
AcDbSymbolTableRecord
100
AcDbLinetypeTableRecord
  2
ByLayer
 70
     0
  3

 72
    65
 73
     0
 40
0.0
  0
LTYPE
  5
16
330
5
100
AcDbSymbolTableRecord
100
AcDbLinetypeTableRecord
  2
Continuous
 70
     0
  3
Solid line
 72
    65
 73
     0
 40
0.0
  0
LTYPE
  5
6E
330
5
100
AcDbSymbolTableRecord
100
AcDbLinetypeTableRecord
  2
HIDDEN
 70
     0
  3
Hidden __ __ __ __ __ __ __ __ __ __ __ __ __ __
 72
    65
 73
     2
 40
1.905
 49
1.27
 74
     0
 49
-0.635
 74
     0
  0
LTYPE
  5
6F
330
5
100
AcDbSymbolTableRecord
100
AcDbLinetypeTableRecord
  2
PHANTOM
 70
     0
  3
Phantom ______  __  __  ______  __  __  ______
 72
    65
 73
     6
 40
12.7
 49
6.35
 74
     0
 49
-1.27
 74
     0
 49
1.27
 74
     0
 49
-1.27
 74
     0
 49
1.27
 74
     0
 49
-1.27
 74
     0
  0
LTYPE
  5
70
330
5
100
AcDbSymbolTableRecord
100
AcDbLinetypeTableRecord
  2
CENTER
 70
     0
  3
Center ____ _ ____ _ ____ _ ____ _ ____ _ ____
 72
    65
 73
     4
 40
10.16
 49
6.35
 74
     0
 49
-1.27
 74
     0
 49
1.27
 74
     0
 49
-1.27
 74
     0
  0
LTYPE
  5
71
330
5
100
AcDbSymbolTableRecord
100
AcDbLinetypeTableRecord
  2
CENTERX2
 70
     0
  3
Center (2x) ________  __  ________  __  _____
 72
    65
 73
     4
 40
20.32
 49
12.7
 74
     0
 49
-2.54
 74
     0
 49
2.54
 74
     0
 49
-2.54
 74
     0
  0
LTYPE
  5
72
330
5
100
AcDbSymbolTableRecord
100
AcDbLinetypeTableRecord
  2
DOT2
 70
     0
  3
Dot (.5x) ........................................
 72
    65
 73
     2
 40
0.635
 49
0.0
 74
     0
 49
-0.635
 74
     0
  0
ENDTAB
  0
TABLE
  2
LAYER
  5
2
330
0
100
AcDbSymbolTable
 70
     1
  0
LAYER
  5
10
330
2
100
AcDbSymbolTableRecord
100
AcDbLayerTableRecord
  2
0
 70
     0
 62
     7
  6
Continuous
370
    -3
390
F
  0
ENDTAB
  0
TABLE
  2
STYLE
  5
3
330
0
100
AcDbSymbolTable
 70
     1
  0
STYLE
  5
11
330
3
100
AcDbSymbolTableRecord
100
AcDbTextStyleTableRecord
  2
Standard
 70
     0
 40
0.0
 41
1.0
 50
0.0
 71
     0
 42
3.5
  3
txt
  4

  0
ENDTAB
  0
TABLE
  2
VIEW
  5
6
330
0
100
AcDbSymbolTable
 70
     0
  0
ENDTAB
  0
TABLE
  2
UCS
  5
7
330
0
100
AcDbSymbolTable
 70
     0
  0
ENDTAB
  0
TABLE
  2
APPID
  5
9
330
0
100
AcDbSymbolTable
 70
     1
  0
APPID
  5
12
330
9
100
AcDbSymbolTableRecord
100
AcDbRegAppTableRecord
  2
ACAD
 70
     0
  0
ENDTAB
  0
TABLE
  2
DIMSTYLE
  5
A
330
0
100
AcDbSymbolTable
 70
     1
100
AcDbDimStyleTable
  0
DIMSTYLE
105
27
330
A
100
AcDbSymbolTableRecord
100
AcDbDimStyleTableRecord
  2
ISO-25
 70
     0
 41
2.5
 42
0.625
 43
3.75
 44
1.25
 73
     0
 74
     0
 77
     1
 78
     8
140
2.5
141
2.5
143
0.0393700787
147
0.625
171
     3
172
     1
178
     0
271
     2
272
     2
274
     3
278
    44
283
     0
284
     8
340
11
  0
ENDTAB
  0
TABLE
  2
BLOCK_RECORD
  5
1
330
0
100
AcDbSymbolTable
 70
     1
  0
BLOCK_RECORD
  5
1F
330
1
100
AcDbSymbolTableRecord
100
AcDbBlockTableRecord
  2
*Model_Space
340
22
  0
BLOCK_RECORD
  5
1B
330
1
100
AcDbSymbolTableRecord
100
AcDbBlockTableRecord
  2
*Paper_Space
340
1E
  0
BLOCK_RECORD
  5
23
330
1
100
AcDbSymbolTableRecord
100
AcDbBlockTableRecord
  2
*Paper_Space0
340
26
  0
ENDTAB
  0
ENDSEC
  0
SECTION
  2
BLOCKS
  0
BLOCK
  5
20
330
1F
100
AcDbEntity
  8
0
100
AcDbBlockBegin
  2
*Model_Space
 70
     0
 10
0.0
 20
0.0
 30
0.0
  3
*Model_Space
  1

  0
ENDBLK
  5
21
330
1F
100
AcDbEntity
  8
0
100
AcDbBlockEnd
  0
BLOCK
  5
1C
330
1B
100
AcDbEntity
 67
     1
  8
0
100
AcDbBlockBegin
  2
*Paper_Space
 70
     0
 10
0.0
 20
0.0
 30
0.0
  3
*Paper_Space
  1

  0
ENDBLK
  5
1D
330
1B
100
AcDbEntity
 67
     1
  8
0
100
AcDbBlockEnd
  0
BLOCK
  5
24
330
23
100
AcDbEntity
  8
0
100
AcDbBlockBegin
  2
*Paper_Space0
 70
     0
 10
0.0
 20
0.0
 30
0.0
  3
*Paper_Space0
  1

  0
ENDBLK
  5
25
330
23
100
AcDbEntity
  8
0
100
AcDbBlockEnd
  0
ENDSEC
  0
SECTION
  2
ENTITIES
  0
LINE
  5
73
330
1F
100
AcDbEntity
  8
0
  6
CENTERX2
 62
     7
100
AcDbLine
 10
24.8663622432
 20
0.1275238799
 30
0.0
 11
24.8385070447
 21
0.0786283349
 31
0.0
  0
LINE
  5
74
330
1F
100
AcDbEntity
  8
0
  6
CENTERX2
 62
     7
100
AcDbLine
 10
24.8385070447
 20
0.0786283349
 30
0.0
 11
25.3590907892
 21
0.979148485
 31
0.0
  0
LINE
  5
75
330
1F
100
AcDbEntity
  8
0
  6
CENTERX2
 62
     7
100
AcDbLine
 10
25.3590907892
 20
0.979148485
 30
0.0
 11
25.3426897972
 21
1.6078141413
 31
0.0
  0
LINE
  5
76
330
1F
100
AcDbEntity
  8
0
  6
CENTERX2
 62
     7
100
AcDbLine
 10
25.3426897972
 20
1.6078141413
 30
0.0
 11
25.3578363767
 21
2.5242896581
 31
0.0
  0
LINE
  5
77
330
1F
100
AcDbEntity
  8
0
  6
CENTERX2
 62
     7
100
AcDbLine
 10
25.3578363767
 20
2.5242896581
 30
0.0
 11
25.308525424
 21
3.9965342883
 31
0.0
  0
LINE
  5
78
330
1F
100
AcDbEntity
  8
0
  6
CENTERX2
 62
     7
100
AcDbLine
 10
25.308525424
 20
3.9965342883
 30
0.0
 11
25.308525424
 21
5.0848871903
 31
0.0
  0
LINE
  5
79
330
1F
100
AcDbEntity
  8
0
  6
CENTERX2
 62
     7
100
AcDbLine
 10
25.308525424
 20
5.0848871903
 30
0.0
 11
25.3370315208
 21
6.2310434392
 31
0.0
  0
LINE
  5
7A
330
1F
100
AcDbEntity
  8
0
  6
CENTERX2
 62
     7
100
AcDbLine
 10
25.3370315208
 20
6.2310434392
 30
0.0
 11
25.4063628384
 21
7.693465616
 31
0.0
  0
LINE
  5
7B
330
1F
100
AcDbEntity
  8
0
  6
CENTERX2
 62
     7
100
AcDbLine
 10
25.4063628384
 20
7.693465616
 30
0.0
 11
25.4936204945
 21
8.5733051438
 31
0.0
  0
LINE
  5
7C
330
1F
100
AcDbEntity
  8
0
  6
CENTERX2
 62
     7
100
AcDbLine
 10
25.4936204945
 20
8.5733051438
 30
0.0
 11
25.6015682175
 21
9.6577004471
 31
0.0
  0
LINE
  5
7D
330
1F
100
AcDbEntity
  8
0
  6
CENTERX2
 62
     7
100
AcDbLine
 10
25.6015682175
 20
9.6577004471
 30
0.0
 11
25.6464628172
 21
10.3706203357
 31
0.0
  0
LINE
  5
7E
330
1F
100
AcDbEntity
  8
0
  6
CENTERX2
 62
     7
100
AcDbLine
 10
25.6464628172
 20
10.3706203357
 30
0.0
 11
25.6669567389
 21
10.8955268422
 31
0.0
  0
LINE
  5
7F
330
1F
100
AcDbEntity
  8
0
  6
CENTERX2
 62
     7
100
AcDbLine
 10
25.6669567389
 20
10.8955268422
 30
0.0
 11
25.6442406427
 21
11.4147518984
 31
0.0
  0
LINE
  5
80
330
1F
100
AcDbEntity
  8
0
  6
CENTERX2
 62
     7
100
AcDbLine
 10
25.6442406427
 20
11.4147518984
 30
0.0
 11
25.5926971714
 21
12.2250373867
 31
0.0
  0
LINE
  5
81
330
1F
100
AcDbEntity
  8
0
  6
CENTERX2
 62
     7
100
AcDbLine
 10
25.5926971714
 20
12.2250373867
 30
0.0
 11
25.5926971714
 21
12.9678233999
 31
0.0
  0
LINE
  5
82
330
1F
100
AcDbEntity
  8
0
  6
CENTERX2
 62
     7
100
AcDbLine
 10
25.5926971714
 20
12.9678233999
 30
0.0
 11
25.6652870794
 21
13.8084505501
 31
0.0
  0
LINE
  5
83
330
1F
100
AcDbEntity
  8
0
  6
CENTERX2
 62
     7
100
AcDbLine
 10
25.6652870794
 20
13.8084505501
 30
0.0
 11
25.7066221846
 21
14.6603749674
 31
0.0
  0
LINE
  5
84
330
1F
100
AcDbEntity
  8
0
  6
CENTERX2
 62
     7
100
AcDbLine
 10
25.7066221846
 20
14.6603749674
 30
0.0
 11
25.7066221846
 21
15.0241439443
 31
0.0
  0
LINE
  5
85
330
1F
100
AcDbEntity
  8
0
  6
CENTERX2
 62
     7
100
AcDbLine
 10
25.7066221846
 20
15.0241439443
 30
0.0
 11
25.6767785422
 21
15.2783304105
 31
0.0
  0
LINE
  5
86
330
1F
100
AcDbEntity
  8
0
  6
CENTERX2
 62
     7
100
AcDbLine
 10
25.6767785422
 20
15.2783304105
 30
0.0
 11
25.644589859
 21
15.5234596136
 31
0.0
  0
LINE
  5
87
330
1F
100
AcDbEntity
  8
0
  6
CENTERX2
 62
     7
100
AcDbLine
 10
25.644589859
 20
15.5234596136
 30
0.0
 11
25.6024969655
 21
15.6522143465
 31
0.0
  0
LINE
  5
88
330
1F
100
AcDbEntity
  8
0
  6
CENTERX2
 62
     7
100
AcDbLine
 10
25.6024969655
 20
15.6522143465
 30
0.0
 11
25.5826885451
 21
15.7487803961
 31
0.0
  0
LINE
  5
89
330
1F
100
AcDbEntity
  8
0
  6
CENTERX2
 62
     7
100
AcDbLine
 10
25.5826885451
 20
15.7487803961
 30
0.0
 11
25.5826885451
 21
15.8032535524
 31
0.0
  0
LINE
  5
8A
330
1F
100
AcDbEntity
  8
0
  6
CENTERX2
 62
     7
100
AcDbLine
 10
25.5826885451
 20
15.8032535524
 30
0.0
 11
25.666874332
 21
15.8602027612
 31
0.0
  0
LINE
  5
8B
330
1F
100
AcDbEntity
  8
0
  6
CENTERX2
 62
     7
100
AcDbLine
 10
25.666874332
 20
15.8602027612
 30
0.0
 11
25.7466943087
 21
15.9495215736
 31
0.0
  0
LINE
  5
8C
330
1F
100
AcDbEntity
  8
0
  6
CENTERX2
 62
     7
100
AcDbLine
 10
25.7466943087
 20
15.9495215736
 30
0.0
 11
25.7770308849
 21
16.0567108094
 31
0.0
  0
LINE
  5
8D
330
1F
100
AcDbEntity
  8
0
  6
CENTERX2
 62
     7
100
AcDbLine
 10
25.7770308849
 20
16.0567108094
 30
0.0
 11
25.7770308849
 21
16.2745301768
 31
0.0
  0
LINE
  5
8E
330
1F
100
AcDbEntity
  8
0
  6
CENTERX2
 62
     7
100
AcDbLine
 10
25.7770308849
 20
16.2745301768
 30
0.0
 11
25.7770308849
 21
16.8594475365
 31
0.0
  0
LINE
  5
8F
330
1F
100
AcDbEntity
  8
0
  6
CENTERX2
 62
     7
100
AcDbLine
 10
25.7770308849
 20
16.8594475365
 30
0.0
 11
25.7599394656
 21
17.2033318712
 31
0.0
  0
LINE
  5
90
330
1F
100
AcDbEntity
  8
0
  6
CENTERX2
 62
     7
100
AcDbLine
 10
25.7599394656
 20
17.2033318712
 30
0.0
 11
25.7420721415
 21
17.5698818945
 31
0.0
  0
LINE
  5
91
330
1F
100
AcDbEntity
  8
0
  6
CENTERX2
 62
     7
100
AcDbLine
 10
25.7420721415
 20
17.5698818945
 30
0.0
 11
25.7143165903
 21
17.6725774343
 31
0.0
  0
LINE
  5
92
330
1F
100
AcDbEntity
  8
0
  6
CENTERX2
 62
     7
100
AcDbLine
 10
25.7143165903
 20
17.6725774343
 30
0.0
 11
25.6921121492
 21
17.7447418676
 31
0.0
  0
LINE
  5
93
330
1F
100
AcDbEntity
  8
0
  6
CENTERX2
 62
     7
100
AcDbLine
 10
25.6921121492
 20
17.7447418676
 30
0.0
 11
25.6588054877
 21
17.8280085215
 31
0.0
  0
LINE
  5
94
330
1F
100
AcDbEntity
  8
0
  6
CENTERX2
 62
     7
100
AcDbLine
 10
25.6588054877
 20
17.8280085215
 30
0.0
 11
25.6409126647
 21
17.9090861357
 31
0.0
  0
LINE
  5
95
330
1F
100
AcDbEntity
  8
0
  6
CENTERX2
 62
     7
100
AcDbLine
 10
25.6409126647
 20
17.9090861357
 30
0.0
 11
25.6409126647
 21
18.241590022
 31
0.0
  0
LINE
  5
96
330
1F
100
AcDbEntity
  8
0
  6
CENTERX2
 62
     7
100
AcDbLine
 10
25.6409126647
 20
18.241590022
 30
0.0
 11
25.7164817298
 21
18.3247159936
 31
0.0
  0
LINE
  5
97
330
1F
100
AcDbEntity
  8
0
  6
CENTERX2
 62
     7
100
AcDbLine
 10
25.7164817298
 20
18.3247159936
 30
0.0
 11
25.771269302
 21
18.4550726309
 31
0.0
  0
LINE
  5
98
330
1F
100
AcDbEntity
  8
0
  6
CENTERX2
 62
     7
100
AcDbLine
 10
25.771269302
 20
18.4550726309
 30
0.0
 11
25.7942709781
 21
18.5610494183
 31
0.0
  0
LINE
  5
99
330
1F
100
AcDbEntity
  8
0
  6
CENTERX2
 62
     7
100
AcDbLine
 10
25.7942709781
 20
18.5610494183
 30
0.0
 11
25.8248909729
 21
18.9532301648
 31
0.0
  0
LINE
  5
9A
330
1F
100
AcDbEntity
  8
0
  6
CENTERX2
 62
     7
100
AcDbLine
 10
25.8248909729
 20
18.9532301648
 30
0.0
 11
25.7994017205
 21
19.2243220606
 31
0.0
  0
LINE
  5
9B
330
1F
100
AcDbEntity
  8
0
  6
CENTERX2
 62
     7
100
AcDbLine
 10
25.7994017205
 20
19.2243220606
 30
0.0
 11
25.767122134
 21
19.4007838
 31
0.0
  0
LINE
  5
9C
330
1F
100
AcDbEntity
  8
0
  6
CENTERX2
 62
     7
100
AcDbLine
 10
25.767122134
 20
19.4007838
 30
0.0
 11
25.6891057236
 21
19.720576029
 31
0.0
  0
LINE
  5
9D
330
1F
100
AcDbEntity
  8
0
  6
CENTERX2
 62
     7
100
AcDbLine
 10
25.6891057236
 20
19.720576029
 30
0.0
 11
25.6152810662
 21
19.9800169677
 31
0.0
  0
LINE
  5
9E
330
1F
100
AcDbEntity
  8
0
  6
CENTERX2
 62
     7
100
AcDbLine
 10
25.6152810662
 20
19.9800169677
 30
0.0
 11
25.5534358361
 21
20.2967094419
 31
0.0
  0
LINE
  5
9F
330
1F
100
AcDbEntity
  8
0
  6
CENTERX2
 62
     7
100
AcDbLine
 10
25.5534358361
 20
20.2967094419
 30
0.0
 11
25.5216969238
 21
20.5481792858
 31
0.0
  0
LINE
  5
A0
330
1F
100
AcDbEntity
  8
0
  6
CENTERX2
 62
     7
100
AcDbLine
 10
25.5216969238
 20
20.5481792858
 30
0.0
 11
25.5216969238
 21
20.8338294968
 31
0.0
  0
LINE
  5
A1
330
1F
100
AcDbEntity
  8
0
  6
CENTERX2
 62
     7
100
AcDbLine
 10
25.5216969238
 20
20.8338294968
 30
0.0
 11
25.5583187457
 21
21.0389116996
 31
0.0
  0
LINE
  5
A2
330
1F
100
AcDbEntity
  8
0
  6
CENTERX2
 62
     7
100
AcDbLine
 10
25.5583187457
 20
21.0389116996
 30
0.0
 11
25.6097463982
 21
21.2337495324
 31
0.0
  0
LINE
  5
A3
330
1F
100
AcDbEntity
  8
0
  6
CENTERX2
 62
     7
100
AcDbLine
 10
25.6097463982
 20
21.2337495324
 30
0.0
 11
25.6858295318
 21
21.3979289261
 31
0.0
  0
LINE
  5
A4
330
1F
100
AcDbEntity
  8
0
  6
CENTERX2
 62
     7
100
AcDbLine
 10
25.6858295318
 20
21.3979289261
 30
0.0
 11
25.7418907882
 21
21.5000405002
 31
0.0
  0
LINE
  5
A5
330
1F
100
AcDbEntity
  8
0
  6
CENTERX2
 62
     7
100
AcDbLine
 10
25.7418907882
 20
21.5000405002
 30
0.0
 11
25.8938298341
 21
21.8093469347
 31
0.0
  0
LINE
  5
A6
330
1F
100
AcDbEntity
  8
0
  6
CENTERX2
 62
     7
100
AcDbLine
 10
25.8938298341
 20
21.8093469347
 30
0.0
 11
26.0783136539
 21
22.1479552056
 31
0.0
  0
LINE
  5
A7
330
1F
100
AcDbEntity
  8
0
  6
CENTERX2
 62
     7
100
AcDbLine
 10
26.0783136539
 20
22.1479552056
 30
0.0
 11
26.2101272523
 21
22.4897168365
 31
0.0
  0
LINE
  5
A8
330
1F
100
AcDbEntity
  8
0
  6
CENTERX2
 62
     7
100
AcDbLine
 10
26.2101272523
 20
22.4897168365
 30
0.0
 11
26.2381073609
 21
22.6173184323
 31
0.0
  0
LINE
  5
A9
330
1F
100
AcDbEntity
  8
0
  6
CENTERX2
 62
     7
100
AcDbLine
 10
26.2381073609
 20
22.6173184323
 30
0.0
 11
26.2652599366
 21
22.772733791
 31
0.0
  0
LINE
  5
AA
330
1F
100
AcDbEntity
  8
0
  6
CENTERX2
 62
     7
100
AcDbLine
 10
26.2652599366
 20
22.772733791
 30
0.0
 11
26.2652599366
 21
23.0955142228
 31
0.0
  0
LINE
  5
AB
330
1F
100
AcDbEntity
  8
0
  6
CENTERX2
 62
     7
100
AcDbLine
 10
26.2652599366
 20
23.0955142228
 30
0.0
 11
26.3136999026
 21
23.1715884495
 31
0.0
  0
LINE
  5
AC
330
1F
100
AcDbEntity
  8
0
  6
CENTERX2
 62
     7
100
AcDbLine
 10
26.3136999026
 20
23.1715884495
 30
0.0
 11
26.3702121853
 21
23.2454891268
 31
0.0
  0
LINE
  5
AD
330
1F
100
AcDbEntity
  8
0
  6
CENTERX2
 62
     7
100
AcDbLine
 10
26.3702121853
 20
23.2454891268
 30
0.0
 11
26.4962780466
 21
23.534571188
 31
0.0
  0
LINE
  5
AE
330
1F
100
AcDbEntity
  8
0
  6
CENTERX2
 62
     7
100
AcDbLine
 10
26.4962780466
 20
23.534571188
 30
0.0
 11
26.4962780466
 21
23.9039496364
 31
0.0
  0
LINE
  5
AF
330
1F
100
AcDbEntity
  8
0
  6
CENTERX2
 62
     7
100
AcDbLine
 10
26.4962780466
 20
23.9039496364
 30
0.0
 11
26.4723245389
 21
24.0529309319
 31
0.0
  0
LINE
  5
B0
330
1F
100
AcDbEntity
  8
0
  6
CENTERX2
 62
     7
100
AcDbLine
 10
26.4723245389
 20
24.0529309319
 30
0.0
 11
26.4443706468
 21
24.1787234463
 31
0.0
  0
LINE
  5
B1
330
1F
100
AcDbEntity
  8
0
  6
CENTERX2
 62
     7
100
AcDbLine
 10
26.4443706468
 20
24.1787234463
 30
0.0
 11
26.3458706676
 21
24.5764422992
 31
0.0
  0
LINE
  5
B2
330
1F
100
AcDbEntity
  8
0
  6
CENTERX2
 62
     7
100
AcDbLine
 10
26.3458706676
 20
24.5764422992
 30
0.0
 11
26.2798308751
 21
24.8146153069
 31
0.0
  0
LINE
  5
B3
330
1F
100
AcDbEntity
  8
0
  6
CENTERX2
 62
     7
100
AcDbLine
 10
26.2798308751
 20
24.8146153069
 30
0.0
 11
26.2798308751
 21
25.1207377596
 31
0.0
  0
LINE
  5
B4
330
1F
100
AcDbEntity
  8
0
  6
CENTERX2
 62
     7
100
AcDbLine
 10
26.2798308751
 20
25.1207377596
 30
0.0
 11
26.2906275215
 21
25.1925312415
 31
0.0
  0
LINE
  5
B5
330
1F
100
AcDbEntity
  8
0
  6
CENTERX2
 62
     7
100
AcDbLine
 10
26.2906275215
 20
25.1925312415
 30
0.0
 11
26.3651301914
 21
25.1925312415
 31
0.0
  0
LINE
  5
B6
330
1F
100
AcDbEntity
  8
0
  6
CENTERX2
 62
     7
100
AcDbLine
 10
26.3651301914
 20
25.1925312415
 30
0.0
 11
26.4680793353
 21
25.0177886157
 31
0.0
  0
LINE
  5
B7
330
1F
100
AcDbEntity
  8
0
  6
CENTERX2
 62
     7
100
AcDbLine
 10
26.4680793353
 20
25.0177886157
 30
0.0
 11
26.6818863469
 21
24.5407698899
 31
0.0
  0
LINE
  5
B8
330
1F
100
AcDbEntity
  8
0
  6
CENTERX2
 62
     7
100
AcDbLine
 10
26.6818863469
 20
24.5407698899
 30
0.0
 11
26.7488670653
 21
24.3322212772
 31
0.0
  0
LINE
  5
B9
330
1F
100
AcDbEntity
  8
0
  6
CENTERX2
 62
     7
100
AcDbLine
 10
26.7488670653
 20
24.3322212772
 30
0.0
 11
26.7824060029
 21
24.0852123347
 31
0.0
  0
LINE
  5
BA
330
1F
100
AcDbEntity
  8
0
  6
CENTERX2
 62
     7
100
AcDbLine
 10
26.7824060029
 20
24.0852123347
 30
0.0
 11
26.7824060029
 21
23.7556521586
 31
0.0
  0
LINE
  5
BB
330
1F
100
AcDbEntity
  8
0
  6
CENTERX2
 62
     7
100
AcDbLine
 10
26.7824060029
 20
23.7556521586
 30
0.0
 11
26.7363364969
 21
23.2561912725
 31
0.0
  0
LINE
  5
BC
330
1F
100
AcDbEntity
  8
0
  6
CENTERX2
 62
     7
100
AcDbLine
 10
26.7363364969
 20
23.2561912725
 30
0.0
 11
26.5983953162
 21
22.6129680044
 31
0.0
  0
LINE
  5
BD
330
1F
100
AcDbEntity
  8
0
  6
CENTERX2
 62
     7
100
AcDbLine
 10
26.5983953162
 20
22.6129680044
 30
0.0
 11
26.4963372632
 21
22.2174930488
 31
0.0
  0
LINE
  5
BE
330
1F
100
AcDbEntity
  8
0
  6
CENTERX2
 62
     7
100
AcDbLine
 10
26.4963372632
 20
22.2174930488
 30
0.0
 11
26.3163033887
 21
21.4122943645
 31
0.0
  0
LINE
  5
BF
330
1F
100
AcDbEntity
  8
0
  6
CENTERX2
 62
     7
100
AcDbLine
 10
26.3163033887
 20
21.4122943645
 30
0.0
 11
26.2723024527
 21
20.7453964671
 31
0.0
  0
LINE
  5
C0
330
1F
100
AcDbEntity
  8
0
  6
CENTERX2
 62
     7
100
AcDbLine
 10
26.2723024527
 20
20.7453964671
 30
0.0
 11
26.3047243246
 21
20.4009140782
 31
0.0
  0
LINE
  5
C1
330
1F
100
AcDbEntity
  8
0
  6
CENTERX2
 62
     7
100
AcDbLine
 10
26.3047243246
 20
20.4009140782
 30
0.0
 11
26.4344118122
 21
19.9956406795
 31
0.0
  0
LINE
  5
C2
330
1F
100
AcDbEntity
  8
0
  6
CENTERX2
 62
     7
100
AcDbLine
 10
26.4344118122
 20
19.9956406795
 30
0.0
 11
26.5357301619
 21
19.829478586
 31
0.0
  0
LINE
  5
C3
330
1F
100
AcDbEntity
  8
0
  6
CENTERX2
 62
     7
100
AcDbLine
 10
26.5357301619
 20
19.829478586
 30
0.0
 11
26.6773528965
 21
19.6479733772
 31
0.0
  0
LINE
  5
C4
330
1F
100
AcDbEntity
  8
0
  6
CENTERX2
 62
     7
100
AcDbLine
 10
26.6773528965
 20
19.6479733772
 30
0.0
 11
26.841647974
 21
19.497760735
 31
0.0
  0
LINE
  5
C5
330
1F
100
AcDbEntity
  8
0
  6
CENTERX2
 62
     7
100
AcDbLine
 10
26.841647974
 20
19.497760735
 30
0.0
 11
27.6166914718
 21
19.00058368
 31
0.0
  0
LINE
  5
C6
330
1F
100
AcDbEntity
  8
0
  6
CENTERX2
 62
     7
100
AcDbLine
 10
27.6166914718
 20
19.00058368
 30
0.0
 11
28.6742000583
 21
18.4616374846
 31
0.0
  0
LINE
  5
C7
330
1F
100
AcDbEntity
  8
0
  6
CENTERX2
 62
     7
100
AcDbLine
 10
28.6742000583
 20
18.4616374846
 30
0.0
 11
29.7802742041
 21
18.033801963
 31
0.0
  0
LINE
  5
C8
330
1F
100
AcDbEntity
  8
0
  6
CENTERX2
 62
     7
100
AcDbLine
 10
29.7802742041
 20
18.033801963
 30
0.0
 11
31.0498612199
 21
17.6798564919
 31
0.0
  0
LINE
  5
C9
330
1F
100
AcDbEntity
  8
0
  6
CENTERX2
 62
     7
100
AcDbLine
 10
31.0498612199
 20
17.6798564919
 30
0.0
 11
32.759623443
 21
17.3362672287
 31
0.0
  0
LINE
  5
CA
330
1F
100
AcDbEntity
  8
0
  6
CENTERX2
 62
     7
100
AcDbLine
 10
32.759623443
 20
17.3362672287
 30
0.0
 11
34.3279255507
 21
17.1229293275
 31
0.0
  0
LINE
  5
CB
330
1F
100
AcDbEntity
  8
0
  6
CENTERX2
 62
     7
100
AcDbLine
 10
34.3279255507
 20
17.1229293275
 30
0.0
 11
35.9978285105
 21
16.9685685497
 31
0.0
  0
LINE
  5
CC
330
1F
100
AcDbEntity
  8
0
  6
CENTERX2
 62
     7
100
AcDbLine
 10
35.9978285105
 20
16.9685685497
 30
0.0
 11
37.9444528768
 21
16.883236691
 31
0.0
  0
LINE
  5
CD
330
1F
100
AcDbEntity
  8
0
  6
CENTERX2
 62
     7
100
AcDbLine
 10
37.9444528768
 20
16.883236691
 30
0.0
 11
38.534098421
 21
16.9094146078
 31
0.0
  0
LINE
  5
CE
330
1F
100
AcDbEntity
  8
0
  6
CENTERX2
 62
     7
100
AcDbLine
 10
38.534098421
 20
16.9094146078
 30
0.0
 11
39.1770526628
 21
17.0369881036
 31
0.0
  0
LINE
  5
CF
330
1F
100
AcDbEntity
  8
0
  6
CENTERX2
 62
     7
100
AcDbLine
 10
39.1770526628
 20
17.0369881036
 30
0.0
 11
39.6417938286
 21
17.1740700302
 31
0.0
  0
LINE
  5
D0
330
1F
100
AcDbEntity
  8
0
  6
CENTERX2
 62
     7
100
AcDbLine
 10
39.6417938286
 20
17.1740700302
 30
0.0
 11
40.1618923072
 21
17.3654852459
 31
0.0
  0
LINE
  5
D1
330
1F
100
AcDbEntity
  8
0
  6
CENTERX2
 62
     7
100
AcDbLine
 10
40.1618923072
 20
17.3654852459
 30
0.0
 11
40.8449662771
 21
17.616318966
 31
0.0
  0
LINE
  5
D2
330
1F
100
AcDbEntity
  8
0
  6
CENTERX2
 62
     7
100
AcDbLine
 10
40.8449662771
 20
17.616318966
 30
0.0
 11
41.5916580231
 21
17.8880137169
 31
0.0
  0
LINE
  5
D3
330
1F
100
AcDbEntity
  8
0
  6
CENTERX2
 62
     7
100
AcDbLine
 10
41.5916580231
 20
17.8880137169
 30
0.0
 11
42.0820890284
 21
18.0102264795
 31
0.0
  0
LINE
  5
D4
330
1F
100
AcDbEntity
  8
0
  6
CENTERX2
 62
     7
100
AcDbLine
 10
42.0820890284
 20
18.0102264795
 30
0.0
 11
42.6156941217
 21
18.113090112
 31
0.0
  0
LINE
  5
D5
330
1F
100
AcDbEntity
  8
0
  6
CENTERX2
 62
     7
100
AcDbLine
 10
42.6156941217
 20
18.113090112
 30
0.0
 11
43.1092899941
 21
18.1665047993
 31
0.0
  0
LINE
  5
D6
330
1F
100
AcDbEntity
  8
0
  6
CENTERX2
 62
     7
100
AcDbLine
 10
43.1092899941
 20
18.1665047993
 30
0.0
 11
43.5104805292
 21
18.1896100133
 31
0.0
  0
LINE
  5
D7
330
1F
100
AcDbEntity
  8
0
  6
CENTERX2
 62
     7
100
AcDbLine
 10
43.5104805292
 20
18.1896100133
 30
0.0
 11
44.3093389633
 21
18.2447872877
 31
0.0
  0
LINE
  5
D8
330
1F
100
AcDbEntity
  8
0
  6
CENTERX2
 62
     7
100
AcDbLine
 10
44.3093389633
 20
18.2447872877
 30
0.0
 11
45.7837652784
 21
18.2930753356
 31
0.0
  0
LINE
  5
D9
330
1F
100
AcDbEntity
  8
0
  6
CENTERX2
 62
     7
100
AcDbLine
 10
45.7837652784
 20
18.2930753356
 30
0.0
 11
46.441271626
 21
18.3391949735
 31
0.0
  0
LINE
  5
DA
330
1F
100
AcDbEntity
  8
0
  6
CENTERX2
 62
     7
100
AcDbLine
 10
46.441271626
 20
18.3391949735
 30
0.0
 11
47.296380822
 21
18.5052355941
 31
0.0
  0
LINE
  5
DB
330
1F
100
AcDbEntity
  8
0
  6
CENTERX2
 62
     7
100
AcDbLine
 10
47.296380822
 20
18.5052355941
 30
0.0
 11
48.1653328506
 21
18.8242593443
 31
0.0
  0
LINE
  5
DC
330
1F
100
AcDbEntity
  8
0
  6
CENTERX2
 62
     7
100
AcDbLine
 10
48.1653328506
 20
18.8242593443
 30
0.0
 11
48.6752903429
 21
19.1088867818
 31
0.0
  0
LINE
  5
DD
330
1F
100
AcDbEntity
  8
0
  6
CENTERX2
 62
     7
100
AcDbLine
 10
48.6752903429
 20
19.1088867818
 30
0.0
 11
48.9124798741
 21
19.3104978834
 31
0.0
  0
LINE
  5
DE
330
1F
100
AcDbEntity
  8
0
  6
CENTERX2
 62
     7
100
AcDbLine
 10
48.9124798741
 20
19.3104978834
 30
0.0
 11
49.0547935929
 21
19.5180387233
 31
0.0
  0
LINE
  5
DF
330
1F
100
AcDbEntity
  8
0
  6
CENTERX2
 62
     7
100
AcDbLine
 10
49.0547935929
 20
19.5180387233
 30
0.0
 11
49.1892725714
 21
19.8000692273
 31
0.0
  0
LINE
  5
E0
330
1F
100
AcDbEntity
  8
0
  6
CENTERX2
 62
     7
100
AcDbLine
 10
49.1892725714
 20
19.8000692273
 30
0.0
 11
49.2425500492
 21
20.0761434304
 31
0.0
  0
LINE
  5
E1
330
1F
100
AcDbEntity
  8
0
  6
CENTERX2
 62
     7
100
AcDbLine
 10
49.2425500492
 20
20.0761434304
 30
0.0
 11
49.2425500492
 21
20.2553494921
 31
0.0
  0
LINE
  5
E2
330
1F
100
AcDbEntity
  8
0
  6
CENTERX2
 62
     7
100
AcDbLine
 10
49.2425500492
 20
20.2553494921
 30
0.0
 11
49.1698989431
 21
20.5217368811
 31
0.0
  0
LINE
  5
E3
330
1F
100
AcDbEntity
  8
0
  6
CENTERX2
 62
     7
100
AcDbLine
 10
49.1698989431
 20
20.5217368811
 30
0.0
 11
49.0397587799
 21
20.7908316666
 31
0.0
  0
LINE
  5
E4
330
1F
100
AcDbEntity
  8
0
  6
CENTERX2
 62
     7
100
AcDbLine
 10
49.0397587799
 20
20.7908316666
 30
0.0
 11
48.858636481
 21
21.1006461253
 31
0.0
  0
LINE
  5
E5
330
1F
100
AcDbEntity
  8
0
  6
CENTERX2
 62
     7
100
AcDbLine
 10
48.858636481
 20
21.1006461253
 30
0.0
 11
48.644149548
 21
21.4056942077
 31
0.0
  0
LINE
  5
E6
330
1F
100
AcDbEntity
  8
0
  6
CENTERX2
 62
     7
100
AcDbLine
 10
48.644149548
 20
21.4056942077
 30
0.0
 11
48.3819988522
 21
21.7155086664
 31
0.0
  0
LINE
  5
E7
330
1F
100
AcDbEntity
  8
0
  6
CENTERX2
 62
     7
100
AcDbLine
 10
48.3819988522
 20
21.7155086664
 30
0.0
 11
48.1276336405
 21
21.9485671384
 31
0.0
  0
LINE
  5
E8
330
1F
100
AcDbEntity
  8
0
  6
CENTERX2
 62
     7
100
AcDbLine
 10
48.1276336405
 20
21.9485671384
 30
0.0
 11
47.3224190173
 21
22.5505237013
 31
0.0
  0
LINE
  5
E9
330
1F
100
AcDbEntity
  8
0
  6
CENTERX2
 62
     7
100
AcDbLine
 10
47.3224190173
 20
22.5505237013
 30
0.0
 11
46.5272256325
 21
22.9396474223
 31
0.0
  0
LINE
  5
EA
330
1F
100
AcDbEntity
  8
0
  6
CENTERX2
 62
     7
100
AcDbLine
 10
46.5272256325
 20
22.9396474223
 30
0.0
 11
45.8680650329
 21
23.2055273281
 31
0.0
  0
LINE
  5
EB
330
1F
100
AcDbEntity
  8
0
  6
CENTERX2
 62
     7
100
AcDbLine
 10
45.8680650329
 20
23.2055273281
 30
0.0
 11
45.1091994686
 21
23.4381722456
 31
0.0
  0
LINE
  5
EC
330
1F
100
AcDbEntity
  8
0
  6
CENTERX2
 62
     7
100
AcDbLine
 10
45.1091994686
 20
23.4381722456
 30
0.0
 11
44.8100845747
 21
23.5101813867
 31
0.0
  0
LINE
  5
ED
330
1F
100
AcDbEntity
  8
0
  6
CENTERX2
 62
     7
100
AcDbLine
 10
44.8100845747
 20
23.5101813867
 30
0.0
 11
44.1730806339
 21
23.6320430102
 31
0.0
  0
LINE
  5
EE
330
1F
100
AcDbEntity
  8
0
  6
CENTERX2
 62
     7
100
AcDbLine
 10
44.1730806339
 20
23.6320430102
 30
0.0
 11
43.3092445563
 21
23.7754835943
 31
0.0
  0
LINE
  5
EF
330
1F
100
AcDbEntity
  8
0
  6
CENTERX2
 62
     7
100
AcDbLine
 10
43.3092445563
 20
23.7754835943
 30
0.0
 11
42.4688715096
 21
23.8814765912
 31
0.0
  0
LINE
  5
F0
330
1F
100
AcDbEntity
  8
0
  6
CENTERX2
 62
     7
100
AcDbLine
 10
42.4688715096
 20
23.8814765912
 30
0.0
 11
41.4638710479
 21
23.9664605987
 31
0.0
  0
LINE
  5
F1
330
1F
100
AcDbEntity
  8
0
  6
CENTERX2
 62
     7
100
AcDbLine
 10
41.4638710479
 20
23.9664605987
 30
0.0
 11
40.7277957393
 21
24.0023667113
 31
0.0
  0
LINE
  5
F2
330
1F
100
AcDbEntity
  8
0
  6
CENTERX2
 62
     7
100
AcDbLine
 10
40.7277957393
 20
24.0023667113
 30
0.0
 11
38.3997926526
 21
24.1123103402
 31
0.0
  0
LINE
  5
F3
330
1F
100
AcDbEntity
  8
0
  6
CENTERX2
 62
     7
100
AcDbLine
 10
38.3997926526
 20
24.1123103402
 30
0.0
 11
36.0776467106
 21
24.2875666377
 31
0.0
  0
LINE
  5
F4
330
1F
100
AcDbEntity
  8
0
  6
CENTERX2
 62
     7
100
AcDbLine
 10
36.0776467106
 20
24.2875666377
 30
0.0
 11
34.7261686723
 21
24.4545977408
 31
0.0
  0
LINE
  5
F5
330
1F
100
AcDbEntity
  8
0
  6
CENTERX2
 62
     7
100
AcDbLine
 10
34.7261686723
 20
24.4545977408
 30
0.0
 11
33.6297587501
 21
24.6948223867
 31
0.0
  0
LINE
  5
F6
330
1F
100
AcDbEntity
  8
0
  6
CENTERX2
 62
     7
100
AcDbLine
 10
33.6297587501
 20
24.6948223867
 30
0.0
 11
32.4224759144
 21
25.0274411271
 31
0.0
  0
LINE
  5
F7
330
1F
100
AcDbEntity
  8
0
  6
CENTERX2
 62
     7
100
AcDbLine
 10
32.4224759144
 20
25.0274411271
 30
0.0
 11
31.0571267059
 21
25.4470158962
 31
0.0
  0
LINE
  5
F8
330
1F
100
AcDbEntity
  8
0
  6
CENTERX2
 62
     7
100
AcDbLine
 10
31.0571267059
 20
25.4470158962
 30
0.0
 11
30.6383222036
 21
25.5943195487
 31
0.0
  0
LINE
  5
F9
330
1F
100
AcDbEntity
  8
0
  6
CENTERX2
 62
     7
100
AcDbLine
 10
30.6383222036
 20
25.5943195487
 30
0.0
 11
30.3090552156
 21
25.7011869045
 31
0.0
  0
LINE
  5
FA
330
1F
100
AcDbEntity
  8
0
  6
CENTERX2
 62
     7
100
AcDbLine
 10
30.3090552156
 20
25.7011869045
 30
0.0
 11
30.2166293944
 21
25.7560647358
 31
0.0
  0
LINE
  5
FB
330
1F
100
AcDbEntity
  8
0
  6
CENTERX2
 62
     7
100
AcDbLine
 10
30.2166293944
 20
25.7560647358
 30
0.0
 11
30.5574496101
 21
25.7040752114
 31
0.0
  0
LINE
  5
FC
330
1F
100
AcDbEntity
  8
0
  6
CENTERX2
 62
     7
100
AcDbLine
 10
30.5574496101
 20
25.7040752114
 30
0.0
 11
30.7798492423
 21
25.6636389146
 31
0.0
  0
LINE
  5
FD
330
1F
100
AcDbEntity
  8
0
  6
CENTERX2
 62
     7
100
AcDbLine
 10
30.7798492423
 20
25.6636389146
 30
0.0
 11
31.4557130598
 21
25.5625481727
 31
0.0
  0
LINE
  5
FE
330
1F
100
AcDbEntity
  8
0
  6
CENTERX2
 62
     7
100
AcDbLine
 10
31.4557130598
 20
25.5625481727
 30
0.0
 11
31.8745175621
 21
25.5278884898
 31
0.0
  0
LINE
  5
FF
330
1F
100
AcDbEntity
  8
0
  6
CENTERX2
 62
     7
100
AcDbLine
 10
31.8745175621
 20
25.5278884898
 30
0.0
 11
32.9547443473
 21
25.4787872722
 31
0.0
  0
LINE
  5
100
330
1F
100
AcDbEntity
  8
0
  6
CENTERX2
 62
     7
100
AcDbLine
 10
32.9547443473
 20
25.4787872722
 30
0.0
 11
34.1600565957
 21
25.4787872722
 31
0.0
  0
LINE
  5
101
330
1F
100
AcDbEntity
  8
0
  6
CENTERX2
 62
     7
100
AcDbLine
 10
34.1600565957
 20
25.4787872722
 30
0.0
 11
35.6741590157
 21
25.5898839066
 31
0.0
  0
LINE
  5
102
330
1F
100
AcDbEntity
  8
0
  6
CENTERX2
 62
     7
100
AcDbLine
 10
35.6741590157
 20
25.5898839066
 30
0.0
 11
37.6052441277
 21
25.7986517842
 31
0.0
  0
LINE
  5
103
330
1F
100
AcDbEntity
  8
0
  6
CENTERX2
 62
     7
100
AcDbLine
 10
37.6052441277
 20
25.7986517842
 30
0.0
 11
38.7133788445
 21
25.963693125
 31
0.0
  0
LINE
  5
104
330
1F
100
AcDbEntity
  8
0
  6
CENTERX2
 62
     7
100
AcDbLine
 10
38.7133788445
 20
25.963693125
 30
0.0
 11
39.4886206309
 21
26.1286553747
 31
0.0
  0
LINE
  5
105
330
1F
100
AcDbEntity
  8
0
  6
CENTERX2
 62
     7
100
AcDbLine
 10
39.4886206309
 20
26.1286553747
 30
0.0
 11
40.0704697971
 21
26.3020911839
 31
0.0
  0
LINE
  5
106
330
1F
100
AcDbEntity
  8
0
  6
CENTERX2
 62
     7
100
AcDbLine
 10
40.0704697971
 20
26.3020911839
 30
0.0
 11
40.5683984105
 21
26.4923111036
 31
0.0
  0
LINE
  5
107
330
1F
100
AcDbEntity
  8
0
  6
CENTERX2
 62
     7
100
AcDbLine
 10
40.5683984105
 20
26.4923111036
 30
0.0
 11
41.1880218959
 21
26.783088546
 31
0.0
  0
LINE
  5
108
330
1F
100
AcDbEntity
  8
0
  6
CENTERX2
 62
     7
100
AcDbLine
 10
41.1880218959
 20
26.783088546
 30
0.0
 11
41.6905934895
 21
27.0475594836
 31
0.0
  0
LINE
  5
109
330
1F
100
AcDbEntity
  8
0
  6
CENTERX2
 62
     7
100
AcDbLine
 10
41.6905934895
 20
27.0475594836
 30
0.0
 11
42.2053186405
 21
27.3591036539
 31
0.0
  0
LINE
  5
10A
330
1F
100
AcDbEntity
  8
0
  6
CENTERX2
 62
     7
100
AcDbLine
 10
42.2053186405
 20
27.3591036539
 30
0.0
 11
42.4401055515
 21
27.5035879068
 31
0.0
  0
LINE
  5
10B
330
1F
100
AcDbEntity
  8
0
  6
CENTERX2
 62
     7
100
AcDbLine
 10
42.4401055515
 20
27.5035879068
 30
0.0
 11
42.792285918
 21
27.729344552
 31
0.0
  0
LINE
  5
10C
330
1F
100
AcDbEntity
  8
0
  6
CENTERX2
 62
     7
100
AcDbLine
 10
42.792285918
 20
27.729344552
 30
0.0
 11
43.9142446193
 21
28.4063510604
 31
0.0
  0
LINE
  5
10D
330
1F
100
AcDbEntity
  8
0
  6
CENTERX2
 62
     7
100
AcDbLine
 10
43.9142446193
 20
28.4063510604
 30
0.0
 11
44.9688646744
 21
28.9684581964
 31
0.0
  0
LINE
  5
10E
330
1F
100
AcDbEntity
  8
0
  6
CENTERX2
 62
     7
100
AcDbLine
 10
44.9688646744
 20
28.9684581964
 30
0.0
 11
46.4633383607
 21
29.5515423896
 31
0.0
  0
LINE
  5
10F
330
1F
100
AcDbEntity
  8
0
  6
CENTERX2
 62
     7
100
AcDbLine
 10
46.4633383607
 20
29.5515423896
 30
0.0
 11
47.5230279827
 21
29.9642508558
 31
0.0
  0
LINE
  5
110
330
1F
100
AcDbEntity
  8
0
  6
CENTERX2
 62
     7
100
AcDbLine
 10
47.5230279827
 20
29.9642508558
 30
0.0
 11
48.3006861928
 21
30.3844371467
 31
0.0
  0
LINE
  5
111
330
1F
100
AcDbEntity
  8
0
  6
CENTERX2
 62
     7
100
AcDbLine
 10
48.3006861928
 20
30.3844371467
 30
0.0
 11
48.7710439811
 21
30.71055188
 31
0.0
  0
LINE
  5
112
330
1F
100
AcDbEntity
  8
0
  6
CENTERX2
 62
     7
100
AcDbLine
 10
48.7710439811
 20
30.71055188
 30
0.0
 11
49.3767849207
 21
31.2167970734
 31
0.0
  0
LINE
  5
113
330
1F
100
AcDbEntity
  8
0
  6
CENTERX2
 62
     7
100
AcDbLine
 10
49.3767849207
 20
31.2167970734
 30
0.0
 11
49.7981455987
 21
31.6753366349
 31
0.0
  0
LINE
  5
114
330
1F
100
AcDbEntity
  8
0
  6
CENTERX2
 62
     7
100
AcDbLine
 10
49.7981455987
 20
31.6753366349
 30
0.0
 11
49.9468611322
 21
32.0037501045
 31
0.0
  0
LINE
  5
115
330
1F
100
AcDbEntity
  8
0
  6
CENTERX2
 62
     7
100
AcDbLine
 10
49.9468611322
 20
32.0037501045
 30
0.0
 11
50.005366624
 21
32.3730732124
 31
0.0
  0
LINE
  5
116
330
1F
100
AcDbEntity
  8
0
  6
CENTERX2
 62
     7
100
AcDbLine
 10
50.005366624
 20
32.3730732124
 30
0.0
 11
49.9697953648
 21
32.6830513282
 31
0.0
  0
LINE
  5
117
330
1F
100
AcDbEntity
  8
0
  6
CENTERX2
 62
     7
100
AcDbLine
 10
49.9697953648
 20
32.6830513282
 30
0.0
 11
49.8376735449
 21
32.9777846187
 31
0.0
  0
LINE
  5
118
330
1F
100
AcDbEntity
  8
0
  6
CENTERX2
 62
     7
100
AcDbLine
 10
49.8376735449
 20
32.9777846187
 30
0.0
 11
49.5298355572
 21
33.3619207094
 31
0.0
  0
LINE
  5
119
330
1F
100
AcDbEntity
  8
0
  6
CENTERX2
 62
     7
100
AcDbLine
 10
49.5298355572
 20
33.3619207094
 30
0.0
 11
49.1864078613
 21
33.6390728851
 31
0.0
  0
LINE
  5
11A
330
1F
100
AcDbEntity
  8
0
  6
CENTERX2
 62
     7
100
AcDbLine
 10
49.1864078613
 20
33.6390728851
 30
0.0
 11
48.5477528478
 21
33.982500581
 31
0.0
  0
LINE
  5
11B
330
1F
100
AcDbEntity
  8
0
  6
CENTERX2
 62
     7
100
AcDbLine
 10
48.5477528478
 20
33.982500581
 30
0.0
 11
47.6138705168
 21
34.2295275202
 31
0.0
  0
LINE
  5
11C
330
1F
100
AcDbEntity
  8
0
  6
CENTERX2
 62
     7
100
AcDbLine
 10
47.6138705168
 20
34.2295275202
 30
0.0
 11
45.9508719102
 21
34.2295275202
 31
0.0
  0
LINE
  5
11D
330
1F
100
AcDbEntity
  8
0
  6
CENTERX2
 62
     7
100
AcDbLine
 10
45.9508719102
 20
34.2295275202
 30
0.0
 11
44.4649942379
 21
33.9522398417
 31
0.0
  0
LINE
  5
11E
330
1F
100
AcDbEntity
  8
0
  6
CENTERX2
 62
     7
100
AcDbLine
 10
44.4649942379
 20
33.9522398417
 30
0.0
 11
43.5077461221
 21
33.6950687061
 31
0.0
  0
LINE
  5
11F
330
1F
100
AcDbEntity
  8
0
  6
CENTERX2
 62
     7
100
AcDbLine
 10
43.5077461221
 20
33.6950687061
 30
0.0
 11
41.5562439947
 21
33.0781334333
 31
0.0
  0
LINE
  5
120
330
1F
100
AcDbEntity
  8
0
  6
CENTERX2
 62
     7
100
AcDbLine
 10
41.5562439947
 20
33.0781334333
 30
0.0
 11
39.3820614493
 21
32.3085581717
 31
0.0
  0
LINE
  5
121
330
1F
100
AcDbEntity
  8
0
  6
CENTERX2
 62
     7
100
AcDbLine
 10
39.3820614493
 20
32.3085581717
 30
0.0
 11
36.8079479935
 21
31.6089187437
 31
0.0
  0
LINE
  5
122
330
1F
100
AcDbEntity
  8
0
  6
CENTERX2
 62
     7
100
AcDbLine
 10
36.8079479935
 20
31.6089187437
 30
0.0
 11
35.7540795476
 21
31.513622129
 31
0.0
  0
LINE
  5
123
330
1F
100
AcDbEntity
  8
0
  6
CENTERX2
 62
     7
100
AcDbLine
 10
35.7540795476
 20
31.513622129
 30
0.0
 11
34.8011133998
 21
31.4743823464
 31
0.0
  0
LINE
  5
124
330
1F
100
AcDbEntity
  8
0
  6
CENTERX2
 62
     7
100
AcDbLine
 10
34.8011133998
 20
31.4743823464
 30
0.0
 11
32.6581477622
 21
31.3576064791
 31
0.0
  0
LINE
  5
125
330
1F
100
AcDbEntity
  8
0
  6
CENTERX2
 62
     7
100
AcDbLine
 10
32.6581477622
 20
31.3576064791
 30
0.0
 11
30.7952262964
 21
31.1211951256
 31
0.0
  0
LINE
  5
126
330
1F
100
AcDbEntity
  8
0
  6
CENTERX2
 62
     7
100
AcDbLine
 10
30.7952262964
 20
31.1211951256
 30
0.0
 11
29.4618662624
 21
30.8185885931
 31
0.0
  0
LINE
  5
127
330
1F
100
AcDbEntity
  8
0
  6
CENTERX2
 62
     7
100
AcDbLine
 10
29.4618662624
 20
30.8185885931
 30
0.0
 11
28.4783950318
 21
30.411961065
 31
0.0
  0
LINE
  5
128
330
1F
100
AcDbEntity
  8
0
  6
CENTERX2
 62
     7
100
AcDbLine
 10
28.4783950318
 20
30.411961065
 30
0.0
 11
27.6367706132
 21
29.9864206287
 31
0.0
  0
LINE
  5
129
330
1F
100
AcDbEntity
  8
0
  6
CENTERX2
 62
     7
100
AcDbLine
 10
27.6367706132
 20
29.9864206287
 30
0.0
 11
27.4570979845
 21
29.8823996331
 31
0.0
  0
LINE
  5
12A
330
1F
100
AcDbEntity
  8
0
  6
CENTERX2
 62
     7
100
AcDbLine
 10
27.4570979845
 20
29.8823996331
 30
0.0
 11
27.3719898972
 21
29.8540302707
 31
0.0
  0
LINE
  5
12B
330
1F
100
AcDbEntity
  8
0
  6
CENTERX2
 62
     7
100
AcDbLine
 10
27.3719898972
 20
29.8540302707
 30
0.0
 11
27.3719898972
 21
30.1282674408
 31
0.0
  0
LINE
  5
12C
330
1F
100
AcDbEntity
  8
0
  6
CENTERX2
 62
     7
100
AcDbLine
 10
27.3719898972
 20
30.1282674408
 30
0.0
 11
27.3719898972
 21
30.5538078771
 31
0.0
  0
LINE
  5
12D
330
1F
100
AcDbEntity
  8
0
  6
CENTERX2
 62
     7
100
AcDbLine
 10
27.3719898972
 20
30.5538078771
 30
0.0
 11
27.2492960757
 21
31.0101892959
 31
0.0
  0
LINE
  5
12E
330
1F
100
AcDbEntity
  8
0
  6
CENTERX2
 62
     7
100
AcDbLine
 10
27.2492960757
 20
31.0101892959
 30
0.0
 11
27.1550507141
 21
31.1897042704
 31
0.0
  0
LINE
  5
12F
330
1F
100
AcDbEntity
  8
0
  6
CENTERX2
 62
     7
100
AcDbLine
 10
27.1550507141
 20
31.1897042704
 30
0.0
 11
27.1146598448
 21
31.297413255
 31
0.0
  0
LINE
  5
130
330
1F
100
AcDbEntity
  8
0
  6
CENTERX2
 62
     7
100
AcDbLine
 10
27.1146598448
 20
31.297413255
 30
0.0
 11
27.2941748193
 21
31.297413255
 31
0.0
  0
LINE
  5
131
330
1F
100
AcDbEntity
  8
0
  6
CENTERX2
 62
     7
100
AcDbLine
 10
27.2941748193
 20
31.297413255
 30
0.0
 11
27.8855765103
 21
31.9007475469
 31
0.0
  0
LINE
  5
132
330
1F
100
AcDbEntity
  8
0
  6
CENTERX2
 62
     7
100
AcDbLine
 10
27.8855765103
 20
31.9007475469
 30
0.0
 11
28.1272472841
 21
32.1932963784
 31
0.0
  0
LINE
  5
133
330
1F
100
AcDbEntity
  8
0
  6
CENTERX2
 62
     7
100
AcDbLine
 10
28.1272472841
 20
32.1932963784
 30
0.0
 11
28.4359643766
 21
32.9976561554
 31
0.0
  0
LINE
  5
134
330
1F
100
AcDbEntity
  8
0
  6
CENTERX2
 62
     7
100
AcDbLine
 10
28.4359643766
 20
32.9976561554
 30
0.0
 11
28.4359643766
 21
33.3872546279
 31
0.0
  0
LINE
  5
135
330
1F
100
AcDbEntity
  8
0
  6
CENTERX2
 62
     7
100
AcDbLine
 10
28.4359643766
 20
33.3872546279
 30
0.0
 11
28.3361896343
 21
33.6803622108
 31
0.0
  0
LINE
  5
136
330
1F
100
AcDbEntity
  8
0
  6
CENTERX2
 62
     7
100
AcDbLine
 10
28.3361896343
 20
33.6803622108
 30
0.0
 11
28.054005616
 21
34.0668316272
 31
0.0
  0
LINE
  5
137
330
1F
100
AcDbEntity
  8
0
  6
CENTERX2
 62
     7
100
AcDbLine
 10
28.054005616
 20
34.0668316272
 30
0.0
 11
27.7043428106
 21
34.2999401641
 31
0.0
  0
LINE
  5
138
330
1F
100
AcDbEntity
  8
0
  6
CENTERX2
 62
     7
100
AcDbLine
 10
27.7043428106
 20
34.2999401641
 30
0.0
 11
27.1890502554
 21
34.5269142658
 31
0.0
  0
LINE
  5
139
330
1F
100
AcDbEntity
  8
0
  6
CENTERX2
 62
     7
100
AcDbLine
 10
27.1890502554
 20
34.5269142658
 30
0.0
 11
26.6798921354
 21
34.5269142658
 31
0.0
  0
LINE
  5
13A
330
1F
100
AcDbEntity
  8
0
  6
CENTERX2
 62
     7
100
AcDbLine
 10
26.6798921354
 20
34.5269142658
 30
0.0
 11
26.2934227189
 21
34.4471666084
 31
0.0
  0
LINE
  5
13B
330
1F
100
AcDbEntity
  8
0
  6
CENTERX2
 62
     7
100
AcDbLine
 10
26.2934227189
 20
34.4471666084
 30
0.0
 11
26.2014061912
 21
34.4471666084
 31
0.0
  0
LINE
  5
13C
330
1F
100
AcDbEntity
  8
0
  6
CENTERX2
 62
     7
100
AcDbLine
 10
26.2014061912
 20
34.4471666084
 30
0.0
 11
26.1143943996
 21
34.5877697867
 31
0.0
  0
LINE
  5
13D
330
1F
100
AcDbEntity
  8
0
  6
CENTERX2
 62
     7
100
AcDbLine
 10
26.1143943996
 20
34.5877697867
 30
0.0
 11
26.0032409679
 21
34.6965068395
 31
0.0
  0
LINE
  5
13E
330
1F
100
AcDbEntity
  8
0
  6
CENTERX2
 62
     7
100
AcDbLine
 10
26.0032409679
 20
34.6965068395
 30
0.0
 11
25.8945039151
 21
34.7738309659
 31
0.0
  0
LINE
  5
13F
330
1F
100
AcDbEntity
  8
0
  6
CENTERX2
 62
     7
100
AcDbLine
 10
25.8945039151
 20
34.7738309659
 30
0.0
 11
25.6963608412
 21
34.8729025029
 31
0.0
  0
LINE
  5
140
330
1F
100
AcDbEntity
  8
0
  6
CENTERX2
 62
     7
100
AcDbLine
 10
25.6963608412
 20
34.8729025029
 30
0.0
 11
25.4909686304
 21
34.9260628398
 31
0.0
  0
LINE
  5
141
330
1F
100
AcDbEntity
  8
0
  6
CENTERX2
 62
     7
100
AcDbLine
 10
25.4909686304
 20
34.9260628398
 30
0.0
 11
25.3266548618
 21
34.9260628398
 31
0.0
  0
LINE
  5
142
330
1F
100
AcDbEntity
  8
0
  6
CENTERX2
 62
     7
100
AcDbLine
 10
25.3266548618
 20
34.9260628398
 30
0.0
 11
25.1566833892
 21
34.9260628398
 31
0.0
  0
LINE
  5
143
330
1F
100
AcDbEntity
  8
0
  6
CENTERX2
 62
     7
100
AcDbLine
 10
25.1566833892
 20
34.9260628398
 30
0.0
 11
24.4742348286
 21
0.0
 31
0.0
  0
LINE
  5
144
330
1F
100
AcDbEntity
  8
0
  6
CENTERX2
 62
     7
100
AcDbLine
 10
24.4742348286
 20
0.0
 30
0.0
 11
24.7945289572
 21
-0.0004413035
 31
0.0
  0
LINE
  5
145
330
1F
100
AcDbEntity
  8
0
  6
CENTERX2
 62
     7
100
AcDbLine
 10
24.7945289572
 20
-0.0004413035
 30
0.0
 11
24.8663622432
 21
0.1275238799
 31
0.0
  0
LINE
  5
146
330
1F
100
AcDbEntity
  8
0
  6
CENTERX2
 62
     7
100
AcDbLine
 10
24.0873884137
 20
0.1427448789
 30
0.0
 11
24.11331226
 21
0.0927985017
 31
0.0
  0
LINE
  5
147
330
1F
100
AcDbEntity
  8
0
  6
CENTERX2
 62
     7
100
AcDbLine
 10
24.11331226
 20
0.0927985017
 30
0.0
 11
23.628304436
 21
1.012967718
 31
0.0
  0
LINE
  5
148
330
1F
100
AcDbEntity
  8
0
  6
CENTERX2
 62
     7
100
AcDbLine
 10
23.628304436
 20
1.012967718
 30
0.0
 11
23.6692515447
 21
1.6405128034
 31
0.0
  0
LINE
  5
149
330
1F
100
AcDbEntity
  8
0
  6
CENTERX2
 62
     7
100
AcDbLine
 10
23.6692515447
 20
1.6405128034
 30
0.0
 11
23.6899183687
 21
2.5568804557
 31
0.0
  0
LINE
  5
14A
330
1F
100
AcDbEntity
  8
0
  6
CENTERX2
 62
     7
100
AcDbLine
 10
23.6899183687
 20
2.5568804557
 30
0.0
 11
23.7967044777
 21
4.0260749792
 31
0.0
  0
LINE
  5
14B
330
1F
100
AcDbEntity
  8
0
  6
CENTERX2
 62
     7
100
AcDbLine
 10
23.7967044777
 20
4.0260749792
 30
0.0
 11
23.8392206582
 21
5.1135971232
 31
0.0
  0
LINE
  5
14C
330
1F
100
AcDbEntity
  8
0
  6
CENTERX2
 62
     7
100
AcDbLine
 10
23.8392206582
 20
5.1135971232
 30
0.0
 11
23.8555105715
 21
6.259992074
 31
0.0
  0
LINE
  5
14D
330
1F
100
AcDbEntity
  8
0
  6
CENTERX2
 62
     7
100
AcDbLine
 10
23.8555105715
 20
6.259992074
 30
0.0
 11
23.8433612606
 21
7.7240063667
 31
0.0
  0
LINE
  5
14E
330
1F
100
AcDbEntity
  8
0
  6
CENTERX2
 62
     7
100
AcDbLine
 10
23.8433612606
 20
7.7240063667
 30
0.0
 11
23.7905408777
 21
8.6065829925
 31
0.0
  0
LINE
  5
14F
330
1F
100
AcDbEntity
  8
0
  6
CENTERX2
 62
     7
100
AcDbLine
 10
23.7905408777
 20
8.6065829925
 30
0.0
 11
23.725037131
 21
9.6943675041
 31
0.0
  0
LINE
  5
150
330
1F
100
AcDbEntity
  8
0
  6
CENTERX2
 62
     7
100
AcDbLine
 10
23.725037131
 20
9.6943675041
 30
0.0
 11
23.7080268023
 21
10.4084970031
 31
0.0
  0
LINE
  5
151
330
1F
100
AcDbEntity
  8
0
  6
CENTERX2
 62
     7
100
AcDbLine
 10
23.7080268023
 20
10.4084970031
 30
0.0
 11
23.7080538397
 21
10.9338034286
 31
0.0
  0
LINE
  5
152
330
1F
100
AcDbEntity
  8
0
  6
CENTERX2
 62
     7
100
AcDbLine
 10
23.7080538397
 20
10.9338034286
 30
0.0
 11
23.7510359678
 21
11.4517447542
 31
0.0
  0
LINE
  5
153
330
1F
100
AcDbEntity
  8
0
  6
CENTERX2
 62
     7
100
AcDbLine
 10
23.7510359678
 20
11.4517447542
 30
0.0
 11
23.8341936553
 21
12.2593982077
 31
0.0
  0
LINE
  5
154
330
1F
100
AcDbEntity
  8
0
  6
CENTERX2
 62
     7
100
AcDbLine
 10
23.8341936553
 20
12.2593982077
 30
0.0
 11
23.8632103687
 21
13.0016172399
 31
0.0
  0
LINE
  5
155
330
1F
100
AcDbEntity
  8
0
  6
CENTERX2
 62
     7
100
AcDbLine
 10
23.8632103687
 20
13.0016172399
 30
0.0
 11
23.8235147179
 21
13.8444384283
 31
0.0
  0
LINE
  5
156
330
1F
100
AcDbEntity
  8
0
  6
CENTERX2
 62
     7
100
AcDbLine
 10
23.8235147179
 20
13.8444384283
 30
0.0
 11
23.8154913371
 21
14.6973273009
 31
0.0
  0
LINE
  5
157
330
1F
100
AcDbEntity
  8
0
  6
CENTERX2
 62
     7
100
AcDbLine
 10
23.8154913371
 20
14.6973273009
 30
0.0
 11
23.8297018633
 21
15.0608186069
 31
0.0
  0
LINE
  5
158
330
1F
100
AcDbEntity
  8
0
  6
CENTERX2
 62
     7
100
AcDbLine
 10
23.8297018633
 20
15.0608186069
 30
0.0
 11
23.8694524438
 21
15.3136452154
 31
0.0
  0
LINE
  5
159
330
1F
100
AcDbEntity
  8
0
  6
CENTERX2
 62
     7
100
AcDbLine
 10
23.8694524438
 20
15.3136452154
 30
0.0
 11
23.9111924559
 21
15.5573298659
 31
0.0
  0
LINE
  5
15A
330
1F
100
AcDbEntity
  8
0
  6
CENTERX2
 62
     7
100
AcDbLine
 10
23.9111924559
 20
15.5573298659
 30
0.0
 11
23.9582829842
 21
15.6843419719
 31
0.0
  0
LINE
  5
15B
330
1F
100
AcDbEntity
  8
0
  6
CENTERX2
 62
     7
100
AcDbLine
 10
23.9582829842
 20
15.6843419719
 30
0.0
 11
23.9818486084
 21
15.7800605011
 31
0.0
  0
LINE
  5
15C
330
1F
100
AcDbEntity
  8
0
  6
CENTERX2
 62
     7
100
AcDbLine
 10
23.9818486084
 20
15.7800605011
 30
0.0
 11
23.983976586
 21
15.834492077
 31
0.0
  0
LINE
  5
15D
330
1F
100
AcDbEntity
  8
0
  6
CENTERX2
 62
     7
100
AcDbLine
 10
23.983976586
 20
15.834492077
 30
0.0
 11
23.9020797633
 21
15.8946865081
 31
0.0
  0
LINE
  5
15E
330
1F
100
AcDbEntity
  8
0
  6
CENTERX2
 62
     7
100
AcDbLine
 10
23.9020797633
 20
15.8946865081
 30
0.0
 11
23.8258099272
 21
15.9870552856
 31
0.0
  0
LINE
  5
15F
330
1F
100
AcDbEntity
  8
0
  6
CENTERX2
 62
     7
100
AcDbLine
 10
23.8258099272
 20
15.9870552856
 30
0.0
 11
23.7996838229
 21
16.0953477912
 31
0.0
  0
LINE
  5
160
330
1F
100
AcDbEntity
  8
0
  6
CENTERX2
 62
     7
100
AcDbLine
 10
23.7996838229
 20
16.0953477912
 30
0.0
 11
23.8081928713
 21
16.3130008935
 31
0.0
  0
LINE
  5
161
330
1F
100
AcDbEntity
  8
0
  6
CENTERX2
 62
     7
100
AcDbLine
 10
23.8081928713
 20
16.3130008935
 30
0.0
 11
23.831042493
 21
16.897471776
 31
0.0
  0
LINE
  5
162
330
1F
100
AcDbEntity
  8
0
  6
CENTERX2
 62
     7
100
AcDbLine
 10
23.831042493
 20
16.897471776
 30
0.0
 11
23.8615546047
 21
17.2404259468
 31
0.0
  0
LINE
  5
163
330
1F
100
AcDbEntity
  8
0
  6
CENTERX2
 62
     7
100
AcDbLine
 10
23.8615546047
 20
17.2404259468
 30
0.0
 11
23.8937274574
 21
17.6059981947
 31
0.0
  0
LINE
  5
164
330
1F
100
AcDbEntity
  8
0
  6
CENTERX2
 62
     7
100
AcDbLine
 10
23.8937274574
 20
17.6059981947
 30
0.0
 11
23.9254735929
 21
17.7075310829
 31
0.0
  0
LINE
  5
165
330
1F
100
AcDbEntity
  8
0
  6
CENTERX2
 62
     7
100
AcDbLine
 10
23.9254735929
 20
17.7075310829
 30
0.0
 11
23.9504801669
 21
17.7787730221
 31
0.0
  0
LINE
  5
166
330
1F
100
AcDbEntity
  8
0
  6
CENTERX2
 62
     7
100
AcDbLine
 10
23.9504801669
 20
17.7787730221
 30
0.0
 11
23.9870141919
 21
17.8606750024
 31
0.0
  0
LINE
  5
167
330
1F
100
AcDbEntity
  8
0
  6
CENTERX2
 62
     7
100
AcDbLine
 10
23.9870141919
 20
17.8606750024
 30
0.0
 11
24.0080606297
 21
17.9409917509
 31
0.0
  0
LINE
  5
168
330
1F
100
AcDbEntity
  8
0
  6
CENTERX2
 62
     7
100
AcDbLine
 10
24.0080606297
 20
17.9409917509
 30
0.0
 11
24.0210497945
 21
18.2732418314
 31
0.0
  0
LINE
  5
169
330
1F
100
AcDbEntity
  8
0
  6
CENTERX2
 62
     7
100
AcDbLine
 10
24.0210497945
 20
18.2732418314
 30
0.0
 11
23.9487857038
 21
18.3592564345
 31
0.0
  0
LINE
  5
16A
330
1F
100
AcDbEntity
  8
0
  6
CENTERX2
 62
     7
100
AcDbLine
 10
23.9487857038
 20
18.3592564345
 30
0.0
 11
23.8991322949
 21
18.4916538285
 31
0.0
  0
LINE
  5
16B
330
1F
100
AcDbEntity
  8
0
  6
CENTERX2
 62
     7
100
AcDbLine
 10
23.8991322949
 20
18.4916538285
 30
0.0
 11
23.8802881279
 21
18.5984482756
 31
0.0
  0
LINE
  5
16C
330
1F
100
AcDbEntity
  8
0
  6
CENTERX2
 62
     7
100
AcDbLine
 10
23.8802881279
 20
18.5984482756
 30
0.0
 11
23.8650119293
 21
18.9915258249
 31
0.0
  0
LINE
  5
16D
330
1F
100
AcDbEntity
  8
0
  6
CENTERX2
 62
     7
100
AcDbLine
 10
23.8650119293
 20
18.9915258249
 30
0.0
 11
23.9010718492
 21
19.2614150617
 31
0.0
  0
LINE
  5
16E
330
1F
100
AcDbEntity
  8
0
  6
CENTERX2
 62
     7
100
AcDbLine
 10
23.9010718492
 20
19.2614150617
 30
0.0
 11
23.9402202212
 21
19.4364811126
 31
0.0
  0
LINE
  5
16F
330
1F
100
AcDbEntity
  8
0
  6
CENTERX2
 62
     7
100
AcDbLine
 10
23.9402202212
 20
19.4364811126
 30
0.0
 11
24.0306696682
 21
19.752981551
 31
0.0
  0
LINE
  5
170
330
1F
100
AcDbEntity
  8
0
  6
CENTERX2
 62
     7
100
AcDbLine
 10
24.0306696682
 20
19.752981551
 30
0.0
 11
24.1145729566
 21
20.009340516
 31
0.0
  0
LINE
  5
171
330
1F
100
AcDbEntity
  8
0
  6
CENTERX2
 62
     7
100
AcDbLine
 10
24.1145729566
 20
20.009340516
 30
0.0
 11
24.188742476
 21
20.3233752881
 31
0.0
  0
LINE
  5
172
330
1F
100
AcDbEntity
  8
0
  6
CENTERX2
 62
     7
100
AcDbLine
 10
24.188742476
 20
20.3233752881
 30
0.0
 11
24.2302807557
 21
20.5734133097
 31
0.0
  0
LINE
  5
173
330
1F
100
AcDbEntity
  8
0
  6
CENTERX2
 62
     7
100
AcDbLine
 10
24.2302807557
 20
20.5734133097
 30
0.0
 11
24.2414395957
 21
20.8588454791
 31
0.0
  0
LINE
  5
174
330
1F
100
AcDbEntity
  8
0
  6
CENTERX2
 62
     7
100
AcDbLine
 10
24.2414395957
 20
20.8588454791
 30
0.0
 11
24.2128572027
 21
21.0652017597
 31
0.0
  0
LINE
  5
175
330
1F
100
AcDbEntity
  8
0
  6
CENTERX2
 62
     7
100
AcDbLine
 10
24.2128572027
 20
21.0652017597
 30
0.0
 11
24.1690800875
 21
21.2618998754
 31
0.0
  0
LINE
  5
176
330
1F
100
AcDbEntity
  8
0
  6
CENTERX2
 62
     7
100
AcDbLine
 10
24.1690800875
 20
21.2618998754
 30
0.0
 11
24.0994686483
 21
21.4289261131
 31
0.0
  0
LINE
  5
177
330
1F
100
AcDbEntity
  8
0
  6
CENTERX2
 62
     7
100
AcDbLine
 10
24.0994686483
 20
21.4289261131
 30
0.0
 11
24.0474391425
 21
21.53314976
 31
0.0
  0
LINE
  5
178
330
1F
100
AcDbEntity
  8
0
  6
CENTERX2
 62
     7
100
AcDbLine
 10
24.0474391425
 20
21.53314976
 30
0.0
 11
23.9076990376
 21
21.848155549
 31
0.0
  0
LINE
  5
179
330
1F
100
AcDbEntity
  8
0
  6
CENTERX2
 62
     7
100
AcDbLine
 10
23.9076990376
 20
21.848155549
 30
0.0
 11
23.7365836682
 21
22.1937121598
 31
0.0
  0
LINE
  5
17A
330
1F
100
AcDbEntity
  8
0
  6
CENTERX2
 62
     7
100
AcDbLine
 10
23.7365836682
 20
22.1937121598
 30
0.0
 11
23.6182215012
 21
22.5403621771
 31
0.0
  0
LINE
  5
17B
330
1F
100
AcDbEntity
  8
0
  6
CENTERX2
 62
     7
100
AcDbLine
 10
23.6182215012
 20
22.5403621771
 30
0.0
 11
23.5952474684
 21
22.6689594071
 31
0.0
  0
LINE
  5
17C
330
1F
100
AcDbEntity
  8
0
  6
CENTERX2
 62
     7
100
AcDbLine
 10
23.5952474684
 20
22.6689594071
 30
0.0
 11
23.5741868732
 21
22.8253168419
 31
0.0
  0
LINE
  5
17D
330
1F
100
AcDbEntity
  8
0
  6
CENTERX2
 62
     7
100
AcDbLine
 10
23.5741868732
 20
22.8253168419
 30
0.0
 11
23.5867961942
 21
23.14785089
 31
0.0
  0
LINE
  5
17E
330
1F
100
AcDbEntity
  8
0
  6
CENTERX2
 62
     7
100
AcDbLine
 10
23.5867961942
 20
23.14785089
 30
0.0
 11
23.5413650202
 21
23.2257593407
 31
0.0
  0
LINE
  5
17F
330
1F
100
AcDbEntity
  8
0
  6
CENTERX2
 62
     7
100
AcDbLine
 10
23.5413650202
 20
23.2257593407
 30
0.0
 11
23.4877827822
 21
23.3018112438
 31
0.0
  0
LINE
  5
180
330
1F
100
AcDbEntity
  8
0
  6
CENTERX2
 62
     7
100
AcDbLine
 10
23.4877827822
 20
23.3018112438
 30
0.0
 11
23.3731060533
 21
23.595597369
 31
0.0
  0
LINE
  5
181
330
1F
100
AcDbEntity
  8
0
  6
CENTERX2
 62
     7
100
AcDbLine
 10
23.3731060533
 20
23.595597369
 30
0.0
 11
23.3875357119
 21
23.9646938646
 31
0.0
  0
LINE
  5
182
330
1F
100
AcDbEntity
  8
0
  6
CENTERX2
 62
     7
100
AcDbLine
 10
23.3875357119
 20
23.9646938646
 30
0.0
 11
23.4172908452
 21
24.1126257036
 31
0.0
  0
LINE
  5
183
330
1F
100
AcDbEntity
  8
0
  6
CENTERX2
 62
     7
100
AcDbLine
 10
23.4172908452
 20
24.1126257036
 30
0.0
 11
23.4501374465
 21
24.237230188
 31
0.0
  0
LINE
  5
184
330
1F
100
AcDbEntity
  8
0
  6
CENTERX2
 62
     7
100
AcDbLine
 10
23.4501374465
 20
24.237230188
 30
0.0
 11
23.5640990071
 21
24.6307975833
 31
0.0
  0
LINE
  5
185
330
1F
100
AcDbEntity
  8
0
  6
CENTERX2
 62
     7
100
AcDbLine
 10
23.5640990071
 20
24.6307975833
 30
0.0
 11
23.6393925476
 21
24.8662089647
 31
0.0
  0
LINE
  5
186
330
1F
100
AcDbEntity
  8
0
  6
CENTERX2
 62
     7
100
AcDbLine
 10
23.6393925476
 20
24.8662089647
 30
0.0
 11
23.6513511297
 21
25.172097749
 31
0.0
  0
LINE
  5
187
330
1F
100
AcDbEntity
  8
0
  6
CENTERX2
 62
     7
100
AcDbLine
 10
23.6513511297
 20
25.172097749
 30
0.0
 11
23.6433673153
 21
25.2442581975
 31
0.0
  0
LINE
  5
188
330
1F
100
AcDbEntity
  8
0
  6
CENTERX2
 62
     7
100
AcDbLine
 10
23.6433673153
 20
25.2442581975
 30
0.0
 11
23.5689215146
 21
25.2471686221
 31
0.0
  0
LINE
  5
189
330
1F
100
AcDbEntity
  8
0
  6
CENTERX2
 62
     7
100
AcDbLine
 10
23.5689215146
 20
25.2471686221
 30
0.0
 11
23.4592246851
 21
25.0765810578
 31
0.0
  0
LINE
  5
18A
330
1F
100
AcDbEntity
  8
0
  6
CENTERX2
 62
     7
100
AcDbLine
 10
23.4592246851
 20
25.0765810578
 30
0.0
 11
23.2269462821
 21
24.6082787552
 31
0.0
  0
LINE
  5
18B
330
1F
100
AcDbEntity
  8
0
  6
CENTERX2
 62
     7
100
AcDbLine
 10
23.2269462821
 20
24.6082787552
 30
0.0
 11
23.1518698021
 21
24.4025059129
 31
0.0
  0
LINE
  5
18C
330
1F
100
AcDbEntity
  8
0
  6
CENTERX2
 62
     7
100
AcDbLine
 10
23.1518698021
 20
24.4025059129
 30
0.0
 11
23.1087071349
 21
24.1569957051
 31
0.0
  0
LINE
  5
18D
330
1F
100
AcDbEntity
  8
0
  6
CENTERX2
 62
     7
100
AcDbLine
 10
23.1087071349
 20
24.1569957051
 30
0.0
 11
23.0958329652
 21
23.8276870877
 31
0.0
  0
LINE
  5
18E
330
1F
100
AcDbEntity
  8
0
  6
CENTERX2
 62
     7
100
AcDbLine
 10
23.0958329652
 20
23.8276870877
 30
0.0
 11
23.1223560155
 21
23.3268077571
 31
0.0
  0
LINE
  5
18F
330
1F
100
AcDbEntity
  8
0
  6
CENTERX2
 62
     7
100
AcDbLine
 10
23.1223560155
 20
23.3268077571
 30
0.0
 11
23.2350645788
 21
22.6786868411
 31
0.0
  0
LINE
  5
190
330
1F
100
AcDbEntity
  8
0
  6
CENTERX2
 62
     7
100
AcDbLine
 10
23.2350645788
 20
22.6786868411
 30
0.0
 11
23.3215956184
 21
22.2795268909
 31
0.0
  0
LINE
  5
191
330
1F
100
AcDbEntity
  8
0
  6
CENTERX2
 62
     7
100
AcDbLine
 10
23.3215956184
 20
22.2795268909
 30
0.0
 11
23.4700372243
 21
21.4679098588
 31
0.0
  0
LINE
  5
192
330
1F
100
AcDbEntity
  8
0
  6
CENTERX2
 62
     7
100
AcDbLine
 10
23.4700372243
 20
21.4679098588
 30
0.0
 11
23.4879524067
 21
20.7998021322
 31
0.0
  0
LINE
  5
193
330
1F
100
AcDbEntity
  8
0
  6
CENTERX2
 62
     7
100
AcDbLine
 10
23.4879524067
 20
20.7998021322
 30
0.0
 11
23.4420981815
 21
20.4568492433
 31
0.0
  0
LINE
  5
194
330
1F
100
AcDbEntity
  8
0
  6
CENTERX2
 62
     7
100
AcDbLine
 10
23.4420981815
 20
20.4568492433
 30
0.0
 11
23.2966778024
 21
20.0569513995
 31
0.0
  0
LINE
  5
195
330
1F
100
AcDbEntity
  8
0
  6
CENTERX2
 62
     7
100
AcDbLine
 10
23.2966778024
 20
20.0569513995
 30
0.0
 11
23.1889457183
 21
19.8948741113
 31
0.0
  0
LINE
  5
196
330
1F
100
AcDbEntity
  8
0
  6
CENTERX2
 62
     7
100
AcDbLine
 10
23.1889457183
 20
19.8948741113
 30
0.0
 11
23.04034064
 21
19.7190398983
 31
0.0
  0
LINE
  5
197
330
1F
100
AcDbEntity
  8
0
  6
CENTERX2
 62
     7
100
AcDbLine
 10
23.04034064
 20
19.7190398983
 30
0.0
 11
22.8703029597
 21
19.5753600539
 31
0.0
  0
LINE
  5
198
330
1F
100
AcDbEntity
  8
0
  6
CENTERX2
 62
     7
100
AcDbLine
 10
22.8703029597
 20
19.5753600539
 30
0.0
 11
22.0764289927
 21
19.1088393449
 31
0.0
  0
LINE
  5
199
330
1F
100
AcDbEntity
  8
0
  6
CENTERX2
 62
     7
100
AcDbLine
 10
22.0764289927
 20
19.1088393449
 30
0.0
 11
20.9986738483
 21
18.6116157927
 31
0.0
  0
LINE
  5
19A
330
1F
100
AcDbEntity
  8
0
  6
CENTERX2
 62
     7
100
AcDbLine
 10
20.9986738483
 20
18.6116157927
 30
0.0
 11
19.8767307208
 21
18.2273153007
 31
0.0
  0
LINE
  5
19B
330
1F
100
AcDbEntity
  8
0
  6
CENTERX2
 62
     7
100
AcDbLine
 10
19.8767307208
 20
18.2273153007
 30
0.0
 11
18.594286028
 21
17.9232360391
 31
0.0
  0
LINE
  5
19C
330
1F
100
AcDbEntity
  8
0
  6
CENTERX2
 62
     7
100
AcDbLine
 10
18.594286028
 20
17.9232360391
 30
0.0
 11
16.8724066833
 21
17.6467003931
 31
0.0
  0
LINE
  5
19D
330
1F
100
AcDbEntity
  8
0
  6
CENTERX2
 62
     7
100
AcDbLine
 10
16.8724066833
 20
17.6467003931
 30
0.0
 11
15.2969677056
 21
17.4947905891
 31
0.0
  0
LINE
  5
19E
330
1F
100
AcDbEntity
  8
0
  6
CENTERX2
 62
     7
100
AcDbLine
 10
15.2969677056
 20
17.4947905891
 30
0.0
 11
13.6223093531
 21
17.405781897
 31
0.0
  0
LINE
  5
19F
330
1F
100
AcDbEntity
  8
0
  6
CENTERX2
 62
     7
100
AcDbLine
 10
13.6223093531
 20
17.405781897
 30
0.0
 11
11.6738374143
 21
17.396559472
 31
0.0
  0
LINE
  5
1A0
330
1F
100
AcDbEntity
  8
0
  6
CENTERX2
 62
     7
100
AcDbLine
 10
11.6738374143
 20
17.396559472
 30
0.0
 11
11.0856645889
 21
17.4457517336
 31
0.0
  0
LINE
  5
1A1
330
1F
100
AcDbEntity
  8
0
  6
CENTERX2
 62
     7
100
AcDbLine
 10
11.0856645889
 20
17.4457517336
 30
0.0
 11
10.4481847453
 21
17.5983446655
 31
0.0
  0
LINE
  5
1A2
330
1F
100
AcDbEntity
  8
0
  6
CENTERX2
 62
     7
100
AcDbLine
 10
10.4481847453
 20
17.5983446655
 30
0.0
 11
9.9891533887
 21
17.7534769298
 31
0.0
  0
LINE
  5
1A3
330
1F
100
AcDbEntity
  8
0
  6
CENTERX2
 62
     7
100
AcDbLine
 10
9.9891533887
 20
17.7534769298
 30
0.0
 11
9.4769294881
 21
17.9650635265
 31
0.0
  0
LINE
  5
1A4
330
1F
100
AcDbEntity
  8
0
  6
CENTERX2
 62
     7
100
AcDbLine
 10
9.4769294881
 20
17.9650635265
 30
0.0
 11
8.8041756642
 21
18.2423898614
 31
0.0
  0
LINE
  5
1A5
330
1F
100
AcDbEntity
  8
0
  6
CENTERX2
 62
     7
100
AcDbLine
 10
8.8041756642
 20
18.2423898614
 30
0.0
 11
8.0686675547
 21
18.5430465128
 31
0.0
  0
LINE
  5
1A6
330
1F
100
AcDbEntity
  8
0
  6
CENTERX2
 62
     7
100
AcDbLine
 10
8.0686675547
 20
18.5430465128
 30
0.0
 11
7.5833851086
 21
18.6843245289
 31
0.0
  0
LINE
  5
1A7
330
1F
100
AcDbEntity
  8
0
  6
CENTERX2
 62
     7
100
AcDbLine
 10
7.5833851086
 20
18.6843245289
 30
0.0
 11
7.0542056621
 21
18.8079547672
 31
0.0
  0
LINE
  5
1A8
330
1F
100
AcDbEntity
  8
0
  6
CENTERX2
 62
     7
100
AcDbLine
 10
7.0542056621
 20
18.8079547672
 30
0.0
 11
6.5630731884
 21
18.8806108572
 31
0.0
  0
LINE
  5
1A9
330
1F
100
AcDbEntity
  8
0
  6
CENTERX2
 62
     7
100
AcDbLine
 10
6.5630731884
 20
18.8806108572
 30
0.0
 11
6.1630914871
 21
18.9193708229
 31
0.0
  0
LINE
  5
1AA
330
1F
100
AcDbEntity
  8
0
  6
CENTERX2
 62
     7
100
AcDbLine
 10
6.1630914871
 20
18.9193708229
 30
0.0
 11
5.3669983187
 21
19.0057131454
 31
0.0
  0
LINE
  5
1AB
330
1F
100
AcDbEntity
  8
0
  6
CENTERX2
 62
     7
100
AcDbLine
 10
5.3669983187
 20
19.0057131454
 30
0.0
 11
3.8955838161
 21
19.111562357
 31
0.0
  0
LINE
  5
1AC
330
1F
100
AcDbEntity
  8
0
  6
CENTERX2
 62
     7
100
AcDbLine
 10
3.8955838161
 20
19.111562357
 30
0.0
 11
3.240381004
 21
19.1833320799
 31
0.0
  0
LINE
  5
1AD
330
1F
100
AcDbEntity
  8
0
  6
CENTERX2
 62
     7
100
AcDbLine
 10
3.240381004
 20
19.1833320799
 30
0.0
 11
2.3924108543
 21
19.3826505438
 31
0.0
  0
LINE
  5
1AE
330
1F
100
AcDbEntity
  8
0
  6
CENTERX2
 62
     7
100
AcDbLine
 10
2.3924108543
 20
19.3826505438
 30
0.0
 11
1.5365846787
 21
19.7353761289
 31
0.0
  0
LINE
  5
1AF
330
1F
100
AcDbEntity
  8
0
  6
CENTERX2
 62
     7
100
AcDbLine
 10
1.5365846787
 20
19.7353761289
 30
0.0
 11
1.0381353312
 21
20.0397076424
 31
0.0
  0
LINE
  5
1B0
330
1F
100
AcDbEntity
  8
0
  6
CENTERX2
 62
     7
100
AcDbLine
 10
1.0381353312
 20
20.0397076424
 30
0.0
 11
0.8090027281
 21
20.250430589
 31
0.0
  0
LINE
  5
1B1
330
1F
100
AcDbEntity
  8
0
  6
CENTERX2
 62
     7
100
AcDbLine
 10
0.8090027281
 20
20.250430589
 30
0.0
 11
0.6749051606
 21
20.4633724523
 31
0.0
  0
LINE
  5
1B2
330
1F
100
AcDbEntity
  8
0
  6
CENTERX2
 62
     7
100
AcDbLine
 10
0.6749051606
 20
20.4633724523
 30
0.0
 11
0.5515462694
 21
20.7504410587
 31
0.0
  0
LINE
  5
1B3
330
1F
100
AcDbEntity
  8
0
  6
CENTERX2
 62
     7
100
AcDbLine
 10
0.5515462694
 20
20.7504410587
 30
0.0
 11
0.5090942154
 21
21.0283857985
 31
0.0
  0
LINE
  5
1B4
330
1F
100
AcDbEntity
  8
0
  6
CENTERX2
 62
     7
100
AcDbLine
 10
0.5090942154
 20
21.0283857985
 30
0.0
 11
0.5160948465
 21
21.2074550692
 31
0.0
  0
LINE
  5
1B5
330
1F
100
AcDbEntity
  8
0
  6
CENTERX2
 62
     7
100
AcDbLine
 10
0.5160948465
 20
21.2074550692
 30
0.0
 11
0.5990968405
 21
21.4708010265
 31
0.0
  0
LINE
  5
1B6
330
1F
100
AcDbEntity
  8
0
  6
CENTERX2
 62
     7
100
AcDbLine
 10
0.5990968405
 20
21.4708010265
 30
0.0
 11
0.7396497728
 21
21.7346065209
 31
0.0
  0
LINE
  5
1B7
330
1F
100
AcDbEntity
  8
0
  6
CENTERX2
 62
     7
100
AcDbLine
 10
0.7396497728
 20
21.7346065209
 30
0.0
 11
0.9327366272
 21
22.0371090047
 31
0.0
  0
LINE
  5
1B8
330
1F
100
AcDbEntity
  8
0
  6
CENTERX2
 62
     7
100
AcDbLine
 10
0.9327366272
 20
22.0371090047
 30
0.0
 11
1.1589764508
 21
22.3335453709
 31
0.0
  0
LINE
  5
1B9
330
1F
100
AcDbEntity
  8
0
  6
CENTERX2
 62
     7
100
AcDbLine
 10
1.1589764508
 20
22.3335453709
 30
0.0
 11
1.4330298517
 21
22.6328825045
 31
0.0
  0
LINE
  5
1BA
330
1F
100
AcDbEntity
  8
0
  6
CENTERX2
 62
     7
100
AcDbLine
 10
1.4330298517
 20
22.6328825045
 30
0.0
 11
1.6963052617
 21
22.8558263781
 31
0.0
  0
LINE
  5
1BB
330
1F
100
AcDbEntity
  8
0
  6
CENTERX2
 62
     7
100
AcDbLine
 10
1.6963052617
 20
22.8558263781
 30
0.0
 11
2.5244205041
 21
23.4258679891
 31
0.0
  0
LINE
  5
1BC
330
1F
100
AcDbEntity
  8
0
  6
CENTERX2
 62
     7
100
AcDbLine
 10
2.5244205041
 20
23.4258679891
 30
0.0
 11
3.3342079063
 21
23.7836306938
 31
0.0
  0
LINE
  5
1BD
330
1F
100
AcDbEntity
  8
0
  6
CENTERX2
 62
     7
100
AcDbLine
 10
3.3342079063
 20
23.7836306938
 30
0.0
 11
4.0032518765
 21
24.0235577373
 31
0.0
  0
LINE
  5
1BE
330
1F
100
AcDbEntity
  8
0
  6
CENTERX2
 62
     7
100
AcDbLine
 10
4.0032518765
 20
24.0235577373
 30
0.0
 11
4.7706263901
 21
24.2263802168
 31
0.0
  0
LINE
  5
1BF
330
1F
100
AcDbEntity
  8
0
  6
CENTERX2
 62
     7
100
AcDbLine
 10
4.7706263901
 20
24.2263802168
 30
0.0
 11
5.0723259802
 21
24.2866495583
 31
0.0
  0
LINE
  5
1C0
330
1F
100
AcDbEntity
  8
0
  6
CENTERX2
 62
     7
100
AcDbLine
 10
5.0723259802
 20
24.2866495583
 30
0.0
 11
5.7136041731
 21
24.3835337944
 31
0.0
  0
LINE
  5
1C1
330
1F
100
AcDbEntity
  8
0
  6
CENTERX2
 62
     7
100
AcDbLine
 10
5.7136041731
 20
24.3835337944
 30
0.0
 11
6.5823843336
 21
24.4931193899
 31
0.0
  0
LINE
  5
1C2
330
1F
100
AcDbEntity
  8
0
  6
CENTERX2
 62
     7
100
AcDbLine
 10
6.5823843336
 20
24.4931193899
 30
0.0
 11
7.4262564942
 21
24.5662025589
 31
0.0
  0
LINE
  5
1C3
330
1F
100
AcDbEntity
  8
0
  6
CENTERX2
 62
     7
100
AcDbLine
 10
7.4262564942
 20
24.5662025589
 30
0.0
 11
8.4338096971
 21
24.6118616544
 31
0.0
  0
LINE
  5
1C4
330
1F
100
AcDbEntity
  8
0
  6
CENTERX2
 62
     7
100
AcDbLine
 10
8.4338096971
 20
24.6118616544
 30
0.0
 11
9.1707258086
 21
24.6189857975
 31
0.0
  0
LINE
  5
1C5
330
1F
100
AcDbEntity
  8
0
  6
CENTERX2
 62
     7
100
AcDbLine
 10
9.1707258086
 20
24.6189857975
 30
0.0
 11
11.5012468065
 21
24.6379027604
 31
0.0
  0
LINE
  5
1C6
330
1F
100
AcDbEntity
  8
0
  6
CENTERX2
 62
     7
100
AcDbLine
 10
11.5012468065
 20
24.6379027604
 30
0.0
 11
13.8284665504
 21
24.7223113453
 31
0.0
  0
LINE
  5
1C7
330
1F
100
AcDbEntity
  8
0
  6
CENTERX2
 62
     7
100
AcDbLine
 10
13.8284665504
 20
24.7223113453
 30
0.0
 11
15.185438003
 21
24.8364198654
 31
0.0
  0
LINE
  5
1C8
330
1F
100
AcDbEntity
  8
0
  6
CENTERX2
 62
     7
100
AcDbLine
 10
15.185438003
 20
24.8364198654
 30
0.0
 11
16.2903953211
 21
25.0336302182
 31
0.0
  0
LINE
  5
1C9
330
1F
100
AcDbEntity
  8
0
  6
CENTERX2
 62
     7
100
AcDbLine
 10
16.2903953211
 20
25.0336302182
 30
0.0
 11
17.5097502692
 21
25.3188329224
 31
0.0
  0
LINE
  5
1CA
330
1F
100
AcDbEntity
  8
0
  6
CENTERX2
 62
     7
100
AcDbLine
 10
17.5097502692
 20
25.3188329224
 30
0.0
 11
18.8904478465
 21
25.6847504646
 31
0.0
  0
LINE
  5
1CB
330
1F
100
AcDbEntity
  8
0
  6
CENTERX2
 62
     7
100
AcDbLine
 10
18.8904478465
 20
25.6847504646
 30
0.0
 11
19.3146870415
 21
25.8155812052
 31
0.0
  0
LINE
  5
1CC
330
1F
100
AcDbEntity
  8
0
  6
CENTERX2
 62
     7
100
AcDbLine
 10
19.3146870415
 20
25.8155812052
 30
0.0
 11
19.6478774357
 21
25.9095042709
 31
0.0
  0
LINE
  5
1CD
330
1F
100
AcDbEntity
  8
0
  6
CENTERX2
 62
     7
100
AcDbLine
 10
19.6478774357
 20
25.9095042709
 30
0.0
 11
19.7423764928
 21
25.960729626
 31
0.0
  0
LINE
  5
1CE
330
1F
100
AcDbEntity
  8
0
  6
CENTERX2
 62
     7
100
AcDbLine
 10
19.7423764928
 20
25.960729626
 30
0.0
 11
19.3997854757
 21
25.9220938259
 31
0.0
  0
LINE
  5
1CF
330
1F
100
AcDbEntity
  8
0
  6
CENTERX2
 62
     7
100
AcDbLine
 10
19.3997854757
 20
25.9220938259
 30
0.0
 11
19.175975973
 21
25.8903763699
 31
0.0
  0
LINE
  5
1D0
330
1F
100
AcDbEntity
  8
0
  6
CENTERX2
 62
     7
100
AcDbLine
 10
19.175975973
 20
25.8903763699
 30
0.0
 11
18.4966789741
 21
25.8157652101
 31
0.0
  0
LINE
  5
1D1
330
1F
100
AcDbEntity
  8
0
  6
CENTERX2
 62
     7
100
AcDbLine
 10
18.4966789741
 20
25.8157652101
 30
0.0
 11
18.0768401821
 21
25.797492456
 31
0.0
  0
LINE
  5
1D2
330
1F
100
AcDbEntity
  8
0
  6
CENTERX2
 62
     7
100
AcDbLine
 10
18.0768401821
 20
25.797492456
 30
0.0
 11
16.9955198278
 21
25.7906274545
 31
0.0
  0
LINE
  5
1D3
330
1F
100
AcDbEntity
  8
0
  6
CENTERX2
 62
     7
100
AcDbLine
 10
16.9955198278
 20
25.7906274545
 30
0.0
 11
15.7911276144
 21
25.8377126169
 31
0.0
  0
LINE
  5
1D4
330
1F
100
AcDbEntity
  8
0
  6
CENTERX2
 62
     7
100
AcDbLine
 10
15.7911276144
 20
25.8377126169
 30
0.0
 11
14.2825208909
 21
26.0078724075
 31
0.0
  0
LINE
  5
1D5
330
1F
100
AcDbEntity
  8
0
  6
CENTERX2
 62
     7
100
AcDbLine
 10
14.2825208909
 20
26.0078724075
 30
0.0
 11
12.3610652632
 21
26.2919181913
 31
0.0
  0
LINE
  5
1D6
330
1F
100
AcDbEntity
  8
0
  6
CENTERX2
 62
     7
100
AcDbLine
 10
12.3610652632
 20
26.2919181913
 30
0.0
 11
11.2602236949
 21
26.5001225045
 31
0.0
  0
LINE
  5
1D7
330
1F
100
AcDbEntity
  8
0
  6
CENTERX2
 62
     7
100
AcDbLine
 10
11.2602236949
 20
26.5001225045
 30
0.0
 11
10.4920178644
 21
26.6952434242
 31
0.0
  0
LINE
  5
1D8
330
1F
100
AcDbEntity
  8
0
  6
CENTERX2
 62
     7
100
AcDbLine
 10
10.4920178644
 20
26.6952434242
 30
0.0
 11
9.9173880515
 21
26.8912766105
 31
0.0
  0
LINE
  5
1D9
330
1F
100
AcDbEntity
  8
0
  6
CENTERX2
 62
     7
100
AcDbLine
 10
9.9173880515
 20
26.8912766105
 30
0.0
 11
9.4272703996
 21
27.1008027645
 31
0.0
  0
LINE
  5
1DA
330
1F
100
AcDbEntity
  8
0
  6
CENTERX2
 62
     7
100
AcDbLine
 10
9.4272703996
 20
27.1008027645
 30
0.0
 11
8.819479017
 21
27.4155636577
 31
0.0
  0
LINE
  5
1DB
330
1F
100
AcDbEntity
  8
0
  6
CENTERX2
 62
     7
100
AcDbLine
 10
8.819479017
 20
27.4155636577
 30
0.0
 11
8.3276225227
 21
27.6994655292
 31
0.0
  0
LINE
  5
1DC
330
1F
100
AcDbEntity
  8
0
  6
CENTERX2
 62
     7
100
AcDbLine
 10
8.3276225227
 20
27.6994655292
 30
0.0
 11
7.8254606499
 21
28.0308794767
 31
0.0
  0
LINE
  5
1DD
330
1F
100
AcDbEntity
  8
0
  6
CENTERX2
 62
     7
100
AcDbLine
 10
7.8254606499
 20
28.0308794767
 30
0.0
 11
7.5964971898
 21
28.1844253228
 31
0.0
  0
LINE
  5
1DE
330
1F
100
AcDbEntity
  8
0
  6
CENTERX2
 62
     7
100
AcDbLine
 10
7.5964971898
 20
28.1844253228
 30
0.0
 11
7.2534047643
 21
28.4237674648
 31
0.0
  0
LINE
  5
1DF
330
1F
100
AcDbEntity
  8
0
  6
CENTERX2
 62
     7
100
AcDbLine
 10
7.2534047643
 20
28.4237674648
 30
0.0
 11
6.1587495296
 21
29.1440861838
 31
0.0
  0
LINE
  5
1E0
330
1F
100
AcDbEntity
  8
0
  6
CENTERX2
 62
     7
100
AcDbLine
 10
6.1587495296
 20
29.1440861838
 30
0.0
 11
5.1268930307
 21
29.746962671
 31
0.0
  0
LINE
  5
1E1
330
1F
100
AcDbEntity
  8
0
  6
CENTERX2
 62
     7
100
AcDbLine
 10
5.1268930307
 20
29.746962671
 30
0.0
 11
3.6563381108
 21
30.3879829537
 31
0.0
  0
LINE
  5
1E2
330
1F
100
AcDbEntity
  8
0
  6
CENTERX2
 62
     7
100
AcDbLine
 10
3.6563381108
 20
30.3879829537
 30
0.0
 11
2.6135797005
 21
30.8417728507
 31
0.0
  0
LINE
  5
1E3
330
1F
100
AcDbEntity
  8
0
  6
CENTERX2
 62
     7
100
AcDbLine
 10
2.6135797005
 20
30.8417728507
 30
0.0
 11
1.8529295416
 21
31.2920173918
 31
0.0
  0
LINE
  5
1E4
330
1F
100
AcDbEntity
  8
0
  6
CENTERX2
 62
     7
100
AcDbLine
 10
1.8529295416
 20
31.2920173918
 30
0.0
 11
1.3956703597
 21
31.6362575825
 31
0.0
  0
LINE
  5
1E5
330
1F
100
AcDbEntity
  8
0
  6
CENTERX2
 62
     7
100
AcDbLine
 10
1.3956703597
 20
31.6362575825
 30
0.0
 11
0.8101681095
 21
32.1657794391
 31
0.0
  0
LINE
  5
1E6
330
1F
100
AcDbEntity
  8
0
  6
CENTERX2
 62
     7
100
AcDbLine
 10
0.8101681095
 20
32.1657794391
 30
0.0
 11
0.4070417739
 21
32.6404293184
 31
0.0
  0
LINE
  5
1E7
330
1F
100
AcDbEntity
  8
0
  6
CENTERX2
 62
     7
100
AcDbLine
 10
0.4070417739
 20
32.6404293184
 30
0.0
 11
0.2712691314
 21
32.9744016324
 31
0.0
  0
LINE
  5
1E8
330
1F
100
AcDbEntity
  8
0
  6
CENTERX2
 62
     7
100
AcDbLine
 10
0.2712691314
 20
32.9744016324
 30
0.0
 11
0.2272357945
 21
33.3457283292
 31
0.0
  0
LINE
  5
1E9
330
1F
100
AcDbEntity
  8
0
  6
CENTERX2
 62
     7
100
AcDbLine
 10
0.2272357945
 20
33.3457283292
 30
0.0
 11
0.274889104
 21
33.654080253
 31
0.0
  0
LINE
  5
1EA
330
1F
100
AcDbEntity
  8
0
  6
CENTERX2
 62
     7
100
AcDbLine
 10
0.274889104
 20
33.654080253
 30
0.0
 11
0.4184237409
 21
33.9434272693
 31
0.0
  0
LINE
  5
1EB
330
1F
100
AcDbEntity
  8
0
  6
CENTERX2
 62
     7
100
AcDbLine
 10
0.4184237409
 20
33.9434272693
 30
0.0
 11
0.7410329122
 21
34.3152445436
 31
0.0
  0
LINE
  5
1EC
330
1F
100
AcDbEntity
  8
0
  6
CENTERX2
 62
     7
100
AcDbLine
 10
0.7410329122
 20
34.3152445436
 30
0.0
 11
1.0950253308
 21
34.5787692642
 31
0.0
  0
LINE
  5
1ED
330
1F
100
AcDbEntity
  8
0
  6
CENTERX2
 62
     7
100
AcDbLine
 10
1.0950253308
 20
34.5787692642
 30
0.0
 11
1.7466087484
 21
34.8969859489
 31
0.0
  0
LINE
  5
1EE
330
1F
100
AcDbEntity
  8
0
  6
CENTERX2
 62
     7
100
AcDbLine
 10
1.7466087484
 20
34.8969859489
 30
0.0
 11
2.6894282649
 21
35.1073424944
 31
0.0
  0
LINE
  5
1EF
330
1F
100
AcDbEntity
  8
0
  6
CENTERX2
 62
     7
100
AcDbLine
 10
2.6894282649
 20
35.1073424944
 30
0.0
 11
4.3511574768
 21
35.0423779513
 31
0.0
  0
LINE
  5
1F0
330
1F
100
AcDbEntity
  8
0
  6
CENTERX2
 62
     7
100
AcDbLine
 10
4.3511574768
 20
35.0423779513
 30
0.0
 11
5.8250687936
 21
34.7072565644
 31
0.0
  0
LINE
  5
1F1
330
1F
100
AcDbEntity
  8
0
  6
CENTERX2
 62
     7
100
AcDbLine
 10
5.8250687936
 20
34.7072565644
 30
0.0
 11
6.7715399123
 21
34.4128871205
 31
0.0
  0
LINE
  5
1F2
330
1F
100
AcDbEntity
  8
0
  6
CENTERX2
 62
     7
100
AcDbLine
 10
6.7715399123
 20
34.4128871205
 30
0.0
 11
8.6974520336
 21
33.7201879179
 31
0.0
  0
LINE
  5
1F3
330
1F
100
AcDbEntity
  8
0
  6
CENTERX2
 62
     7
100
AcDbLine
 10
8.6974520336
 20
33.7201879179
 30
0.0
 11
10.8399117617
 21
32.8662662953
 31
0.0
  0
LINE
  5
1F4
330
1F
100
AcDbEntity
  8
0
  6
CENTERX2
 62
     7
100
AcDbLine
 10
10.8399117617
 20
32.8662662953
 30
0.0
 11
13.3847291486
 21
32.0666039417
 31
0.0
  0
LINE
  5
1F5
330
1F
100
AcDbEntity
  8
0
  6
CENTERX2
 62
     7
100
AcDbLine
 10
13.3847291486
 20
32.0666039417
 30
0.0
 11
14.4340704253
 21
31.9302110129
 31
0.0
  0
LINE
  5
1F6
330
1F
100
AcDbEntity
  8
0
  6
CENTERX2
 62
     7
100
AcDbLine
 10
14.4340704253
 20
31.9302110129
 30
0.0
 11
15.3847762677
 21
31.8537738452
 31
0.0
  0
LINE
  5
1F7
330
1F
100
AcDbEntity
  8
0
  6
CENTERX2
 62
     7
100
AcDbLine
 10
15.3847762677
 20
31.8537738452
 30
0.0
 11
17.5215443294
 21
31.6533728033
 31
0.0
  0
LINE
  5
1F8
330
1F
100
AcDbEntity
  8
0
  6
CENTERX2
 62
     7
100
AcDbLine
 10
17.5215443294
 20
31.6533728033
 30
0.0
 11
19.3738084573
 21
31.3443674368
 31
0.0
  0
LINE
  5
1F9
330
1F
100
AcDbEntity
  8
0
  6
CENTERX2
 62
     7
100
AcDbLine
 10
19.3738084573
 20
31.3443674368
 30
0.0
 11
20.6943294815
 21
30.989904578
 31
0.0
  0
LINE
  5
1FA
330
1F
100
AcDbEntity
  8
0
  6
CENTERX2
 62
     7
100
AcDbLine
 10
20.6943294815
 20
30.989904578
 30
0.0
 11
21.6611652294
 21
30.5451684262
 31
0.0
  0
LINE
  5
1FB
330
1F
100
AcDbEntity
  8
0
  6
CENTERX2
 62
     7
100
AcDbLine
 10
21.6611652294
 20
30.5451684262
 30
0.0
 11
22.4855236121
 21
30.0870750058
 31
0.0
  0
LINE
  5
1FC
330
1F
100
AcDbEntity
  8
0
  6
CENTERX2
 62
     7
100
AcDbLine
 10
22.4855236121
 20
30.0870750058
 30
0.0
 11
22.6609955446
 21
29.9761145537
 31
0.0
  0
LINE
  5
1FD
330
1F
100
AcDbEntity
  8
0
  6
CENTERX2
 62
     7
100
AcDbLine
 10
22.6609955446
 20
29.9761145537
 30
0.0
 11
22.7449304268
 21
29.9444421241
 31
0.0
  0
LINE
  5
1FE
330
1F
100
AcDbEntity
  8
0
  6
CENTERX2
 62
     7
100
AcDbLine
 10
22.7449304268
 20
29.9444421241
 30
0.0
 11
22.7556434198
 21
30.2184699644
 31
0.0
  0
LINE
  5
1FF
330
1F
100
AcDbEntity
  8
0
  6
CENTERX2
 62
     7
100
AcDbLine
 10
22.7556434198
 20
30.2184699644
 30
0.0
 11
22.7722670296
 21
30.6436855786
 31
0.0
  0
LINE
  5
200
330
1F
100
AcDbEntity
  8
0
  6
CENTERX2
 62
     7
100
AcDbLine
 10
22.7722670296
 20
30.6436855786
 30
0.0
 11
22.9126956005
 21
31.0949256364
 31
0.0
  0
LINE
  5
201
330
1F
100
AcDbEntity
  8
0
  6
CENTERX2
 62
     7
100
AcDbLine
 10
22.9126956005
 20
31.0949256364
 30
0.0
 11
23.0138817218
 21
31.2706219172
 31
0.0
  0
LINE
  5
202
330
1F
100
AcDbEntity
  8
0
  6
CENTERX2
 62
     7
100
AcDbLine
 10
23.0138817218
 20
31.2706219172
 30
0.0
 11
23.0584493793
 21
31.3766708286
 31
0.0
  0
LINE
  5
203
330
1F
100
AcDbEntity
  8
0
  6
CENTERX2
 62
     7
100
AcDbLine
 10
23.0584493793
 20
31.3766708286
 30
0.0
 11
22.8790714317
 21
31.3836835273
 31
0.0
  0
LINE
  5
204
330
1F
100
AcDbEntity
  8
0
  6
CENTERX2
 62
     7
100
AcDbLine
 10
22.8790714317
 20
31.3836835273
 30
0.0
 11
22.3116902411
 21
32.0096602142
 31
0.0
  0
LINE
  5
205
330
1F
100
AcDbEntity
  8
0
  6
CENTERX2
 62
     7
100
AcDbLine
 10
22.3116902411
 20
32.0096602142
 30
0.0
 11
22.0816322712
 21
32.3114265347
 31
0.0
  0
LINE
  5
206
330
1F
100
AcDbEntity
  8
0
  6
CENTERX2
 62
     7
100
AcDbLine
 10
22.0816322712
 20
32.3114265347
 30
0.0
 11
21.8045729017
 21
33.1272322713
 31
0.0
  0
LINE
  5
207
330
1F
100
AcDbEntity
  8
0
  6
CENTERX2
 62
     7
100
AcDbLine
 10
21.8045729017
 20
33.1272322713
 30
0.0
 11
21.8197924495
 21
33.5165333568
 31
0.0
  0
LINE
  5
208
330
1F
100
AcDbEntity
  8
0
  6
CENTERX2
 62
     7
100
AcDbLine
 10
21.8197924495
 20
33.5165333568
 30
0.0
 11
21.9309411921
 21
33.8055195352
 31
0.0
  0
LINE
  5
209
330
1F
100
AcDbEntity
  8
0
  6
CENTERX2
 62
     7
100
AcDbLine
 10
21.9309411921
 20
33.8055195352
 30
0.0
 11
22.2280071268
 21
34.1806705188
 31
0.0
  0
LINE
  5
20A
330
1F
100
AcDbEntity
  8
0
  6
CENTERX2
 62
     7
100
AcDbLine
 10
22.2280071268
 20
34.1806705188
 30
0.0
 11
22.5865093439
 21
34.3999416472
 31
0.0
  0
LINE
  5
20B
330
1F
100
AcDbEntity
  8
0
  6
CENTERX2
 62
     7
100
AcDbLine
 10
22.5865093439
 20
34.3999416472
 30
0.0
 11
23.1102752431
 21
34.6066127462
 31
0.0
  0
LINE
  5
20C
330
1F
100
AcDbEntity
  8
0
  6
CENTERX2
 62
     7
100
AcDbLine
 10
23.1102752431
 20
34.6066127462
 30
0.0
 11
23.6190447142
 21
34.5867226366
 31
0.0
  0
LINE
  5
20D
330
1F
100
AcDbEntity
  8
0
  6
CENTERX2
 62
     7
100
AcDbLine
 10
23.6190447142
 20
34.5867226366
 30
0.0
 11
24.0021038137
 21
34.4919385398
 31
0.0
  0
LINE
  5
20E
330
1F
100
AcDbEntity
  8
0
  6
CENTERX2
 62
     7
100
AcDbLine
 10
24.0021038137
 20
34.4919385398
 30
0.0
 11
24.0940501036
 21
34.4883439417
 31
0.0
  0
LINE
  5
20F
330
1F
100
AcDbEntity
  8
0
  6
CENTERX2
 62
     7
100
AcDbLine
 10
24.0940501036
 20
34.4883439417
 30
0.0
 11
24.1864880988
 21
34.6254407056
 31
0.0
  0
LINE
  5
210
330
1F
100
AcDbEntity
  8
0
  6
CENTERX2
 62
     7
100
AcDbLine
 10
24.1864880988
 20
34.6254407056
 30
0.0
 11
24.3018044657
 21
34.729752582
 31
0.0
  0
LINE
  5
211
330
1F
100
AcDbEntity
  8
0
  6
CENTERX2
 62
     7
100
AcDbLine
 10
24.3018044657
 20
34.729752582
 30
0.0
 11
24.4134791615
 21
34.8027699052
 31
0.0
  0
LINE
  5
212
330
1F
100
AcDbEntity
  8
0
  6
CENTERX2
 62
     7
100
AcDbLine
 10
24.4134791615
 20
34.8027699052
 30
0.0
 11
24.6153411894
 21
34.8940254193
 31
0.0
  0
LINE
  5
213
330
1F
100
AcDbEntity
  8
0
  6
CENTERX2
 62
     7
100
AcDbLine
 10
24.6153411894
 20
34.8940254193
 30
0.0
 11
24.8226533135
 21
34.9391215927
 31
0.0
  0
LINE
  5
214
330
1F
100
AcDbEntity
  8
0
  6
CENTERX2
 62
     7
100
AcDbLine
 10
24.8226533135
 20
34.9391215927
 30
0.0
 11
24.9868416587
 21
34.9327027245
 31
0.0
  0
LINE
  5
215
330
1F
100
AcDbEntity
  8
0
  6
CENTERX2
 62
     7
100
AcDbLine
 10
24.9868416587
 20
34.9327027245
 30
0.0
 11
25.1566833892
 21
34.9260628398
 31
0.0
  0
LINE
  5
216
330
1F
100
AcDbEntity
  8
0
  6
CENTERX2
 62
     7
100
AcDbLine
 10
24.4742348286
 20
0.0
 30
0.0
 11
24.1541679465
 21
0.0120712277
 31
0.0
  0
LINE
  5
217
330
1F
100
AcDbEntity
  8
0
  6
CENTERX2
 62
     7
100
AcDbLine
 10
24.1541679465
 20
0.0120712277
 30
0.0
 11
24.0873884137
 21
0.1427448789
 31
0.0
  0
LWPOLYLINE
  5
218
330
1F
100
AcDbEntity
  8
0
  6
Continuous
 62
     7
100
AcDbPolyline
 90
      106
 70
   128
 43
0.0
 10
24.8663574457
 20
0.1275238799
 10
24.8649426251
 20
0.1250208462
 10
24.8647384845
 20
0.1246552277
 10
24.8647497808
 20
0.124670711
 10
24.8662553516
 20
0.1273335131
 10
24.8741043891
 20
0.1414780166
 10
24.900852551
 20
0.1911153273
 10
24.9723245798
 20
0.3318927921
 10
25.1138707381
 20
0.6527175987
 10
25.2787285305
 20
1.2120980595
 10
25.3431821399
 20
2.0647109705
 10
25.3281194639
 20
3.563985094
 10
25.3495345459
 20
6.2969716912
 10
25.636576638
 20
10.3011180132
 10
25.6133565464
 20
12.9814253361
 10
25.6757730074
 20
15.2648014961
 10
25.6310469667
 20
15.8333686253
 10
25.77426799
 20
16.6682072682
 10
25.7148311948
 20
17.6602041203
 10
25.7600177656
 20
18.449908334
 10
25.7917293877
 20
19.2249195825
 10
25.6473218887
 20
19.8763528187
 10
25.5649162527
 20
21.0375347132
 10
25.9002927369
 20
21.8152078365
 10
26.2574173779
 20
22.7999504434
 10
26.4711065367
 20
24.0337800766
 10
26.3261136799
 20
24.6688412158
 10
26.2912494474
 20
25.1158827653
 10
26.3049912208
 20
25.1567181002
 10
26.3224751581
 20
25.1681788029
 10
26.3463144213
 20
25.1615132078
 10
26.3696818535
 20
25.1421636771
 10
26.4919314406
 20
24.94371121
 10
26.6140989772
 20
24.6766784555
 10
26.7490066656
 20
24.2568163135
 10
26.717720054
 20
23.2673425928
 10
26.3651017443
 20
21.5162137405
 10
26.418461835
 20
20.0913382972
 10
26.6795422278
 20
19.6680570479
 10
27.6212482026
 20
19.0342297662
 10
30.5502688202
 20
17.8456657641
 10
34.7229305126
 20
17.1050919662
 10
38.9981953092
 20
17.015015422
 10
41.0788104908
 20
17.6974391075
 10
43.029669479
 20
18.1514908353
 10
44.6052862824
 20
18.2489033579
 10
46.7597557647
 20
18.4240985584
 10
48.8478791342
 20
19.2816045413
 10
49.2034529216
 20
19.9342343319
 10
49.0114926439
 20
20.8238776522
 10
48.1492595119
 20
21.9040433212
 10
46.362841114
 20
22.9885760366
 10
44.7571626622
 20
23.5128803445
 10
42.8055961585
 20
23.8309868812
 10
39.9034673304
 20
24.0439678481
 10
35.4296952147
 20
24.3900636866
 10
32.5229451031
 20
25.0119389208
 10
30.7147075916
 20
25.5675153408
 10
30.4191235697
 20
25.6709227689
 10
30.3511677828
 20
25.6997623884
 10
30.334669938
 20
25.709150162
 10
30.3278728894
 20
25.7150199641
 10
30.326505326
 20
25.7176183043
 10
30.3267470389
 20
25.7198203931
 10
30.330748992
 20
25.7226287604
 10
30.3369950695
 20
25.7240600075
 10
30.3608057037
 20
25.7248713045
 10
30.8696225488
 20
25.6528559538
 10
32.3067839475
 20
25.5146019777
 10
35.2417727823
 20
25.5740586413
 10
38.6249235129
 20
25.9681209958
 10
40.7028142261
 20
26.5660767318
 10
42.2547862828
 20
27.3911408573
 10
44.4802306097
 20
28.6788884363
 10
47.2988573408
 20
29.9033918563
 10
48.9250344872
 20
30.8585667838
 10
49.8538768419
 20
31.8675486071
 10
49.9385372965
 20
32.6696101774
 10
49.5195469442
 20
33.3240590466
 10
48.468793788
 20
33.9406792249
 10
46.2286011423
 20
34.1609476954
 10
43.6370647765
 20
33.706326296
 10
41.0533710133
 20
32.8951007899
 10
37.8494700871
 20
31.9323425716
 10
35.2607088156
 20
31.4991966114
 10
32.369510905
 20
31.2849733128
 10
29.6410489194
 20
30.8053356352
 10
28.0532956161
 20
30.1882318451
 10
27.5126332836
 20
29.923175631
 10
27.4407093156
 20
29.9068513827
 10
27.4017033778
 20
29.9385871337
 10
27.3764692269
 20
30.085145979
 10
27.3659358371
 20
30.2741981455
 10
27.231498739
 20
31.0058128003
 10
27.1702934326
 20
31.1806489009
 10
27.1744947699
 20
31.2610420736
 10
27.2559523072
 20
31.3374484594
 10
27.3875019407
 20
31.4416970806
 10
27.7235906851
 20
31.7580037853
 10
28.2271247166
 20
32.5314769932
 10
28.3239447742
 20
33.613989877
 10
27.8485510078
 20
34.1714891952
 10
27.0470839868
 20
34.4856364856
 10
26.118857539
 20
34.5681940704
 10
25.6414287612
 20
34.8743487666
 10
25.1566833892
 20
34.9260628398
  0
LWPOLYLINE
  5
219
330
1F
100
AcDbEntity
  8
0
  6
Continuous
 62
     7
100
AcDbPolyline
 90
        3
 70
   128
 43
0.0
 10
24.4742333889
 20
0.0
 10
24.7550469324
 20
0.0397740144
 10
24.8663622432
 20
0.1275238799
  0
LWPOLYLINE
  5
21A
330
1F
100
AcDbEntity
  8
0
  6
Continuous
 62
     7
100
AcDbPolyline
 90
      106
 70
   128
 43
0.0
 10
24.0873843431
 20
0.1427448789
 10
24.0887091679
 20
0.1401882988
 10
24.0888988699
 20
0.1398149848
 10
24.0888881871
 20
0.1398308975
 10
24.0874877871
 20
0.1425504818
 10
24.0801972917
 20
0.1569908088
 10
24.0554086137
 20
0.2076351395
 10
23.9894905703
 20
0.3510971799
 10
23.8605853817
 20
0.6772065539
 10
23.7177054584
 20
1.2426001505
 10
23.6866081157
 20
2.0970801088
 10
23.7602279893
 20
3.5946213924
 10
23.8455925577
 20
6.3263584288
 10
23.7151903478
 20
10.3386615324
 10
23.8430981189
 20
13.0160158458
 10
23.869928708
 20
15.3000873469
 10
23.9368315134
 20
15.8664732699
 10
23.826332535
 20
16.7062695529
 10
23.9244760214
 20
17.6951873166
 10
23.9101735011
 20
18.4860539357
 10
23.9087616676
 20
19.2617124101
 10
24.0785069824
 20
19.9070071606
 10
24.2062109402
 20
21.0640835541
 10
23.9014700224
 20
21.8542644485
 10
23.583086656
 20
22.8522063521
 10
23.4177597952
 20
24.0934418856
 10
23.58745045
 20
24.7223541694
 10
23.6397516144
 20
25.1676925237
 10
23.6276155504
 20
25.2090335067
 10
23.6105926679
 20
25.221168466
 10
23.5865112121
 20
25.2154392325
 10
23.562405733
 20
25.1970173134
 10
23.4324969748
 20
25.0034919719
 10
23.2999911361
 20
24.7414354863
 10
23.148784636
 20
24.3271639605
 10
23.1413938711
 20
23.3372233196
 10
23.4253356965
 20
21.5736562045
 10
23.3163540036
 20
20.1519528885
 10
23.0389375425
 20
19.7391937643
 10
22.0731901144
 20
19.1426377557
 10
19.0999743701
 20
18.0694023188
 10
14.9015674465
 20
17.492397594
 10
10.6260472179
 20
17.569401747
 10
8.5736788818
 20
18.3325831368
 10
6.6420464119
 20
18.8624980021
 10
5.0714376942
 20
19.0213871671
 10
2.9254567026
 20
19.280612344
 10
0.8724254474
 20
20.219035693
 10
0.542617863
 20
20.885057704
 10
0.7691852643
 20
21.7665230739
 10
1.6729565881
 20
22.8121813549
 10
3.500378329
 20
23.826100328
 10
5.1253129305
 20
24.2872790772
 10
7.0878165075
 20
24.5289054362
 10
9.9960501297
 20
24.6283530367
 10
14.4799274706
 20
24.7994181251
 10
17.4087521812
 20
25.3072673479
 10
19.2373128614
 20
25.7917814297
 10
19.5367108392
 20
25.8835630238
 10
19.6057413655
 20
25.909725957
 10
19.6225933478
 20
25.9184620814
 10
19.6296145101
 20
25.9240618783
 10
19.631082533
 20
25.9266048117
 10
19.6309270286
 20
25.9288146621
 10
19.6270378382
 20
25.9317772207
 10
19.6208524398
 20
25.9334513766
 10
19.5970916736
 20
25.9351922096
 10
19.0858499589
 20
25.8831086072
 10
17.6443847194
 20
25.8011024428
 10
14.7139588674
 20
25.975168183
 10
11.3487844804
 20
26.5010915143
 10
9.295838818
 20
27.1797629998
 10
7.7772822908
 20
28.0648246641
 10
5.6038421568
 20
29.4385256008
 10
2.8352017905
 20
30.7722031469
 10
1.2475795552
 20
31.7901750971
 10
0.3588617745
 20
32.8346716964
 10
0.3055982379
 20
33.6394282749
 10
0.7498346172
 20
34.2770098596
 10
1.8238737987
 20
34.8521120037
 10
4.0709611897
 20
34.984699884
 10
6.6427597434
 20
34.4291879119
 10
9.1927910482
 20
33.5176504038
 10
12.3566365213
 20
32.4304676438
 10
14.9265010306
 20
31.8965231265
 10
17.8071234724
 20
31.5695195666
 10
20.5147658749
 20
30.9836614532
 10
22.0772002445
 20
30.305003601
 10
22.6070955387
 20
30.0190288965
 10
22.678326904
 20
29.9999074205
 10
22.7185428155
 20
30.0300951917
 10
22.7494829822
 20
30.1755564016
 10
22.767393598
 20
30.3640527777
 10
22.9303083857
 20
31.0898572338
 10
22.9982968931
 20
31.2621689121
 10
22.9972392979
 20
31.3426648433
 10
22.9188287311
 20
31.4221950212
 10
22.7914519529
 20
31.5315030147
 10
22.4679761775
 20
31.8606974835
 10
21.9950420014
 20
32.6532506926
 10
21.9405838901
 20
33.7387195228
 10
22.4373933246
 20
34.2772221771
 10
23.2505206423
 20
34.5598206042
 10
24.1812636467
 20
34.606054283
 10
24.6702878367
 20
34.8933246738
 10
25.1566833892
 20
34.9260628398
  0
LWPOLYLINE
  5
21B
330
1F
100
AcDbEntity
  8
0
  6
Continuous
 62
     7
100
AcDbPolyline
 90
        3
 70
   128
 43
0.0
 10
24.4742333889
 20
0.0
 10
24.1951908334
 20
0.050713495
 10
24.0873884137
 20
0.1427448789
  0
ENDSEC
  0
SECTION
  2
OBJECTS
  0
DICTIONARY
  5
C
330
0
100
AcDbDictionary
281
     1
  3
ACAD_GROUP
350
D
  3
ACAD_LAYOUT
350
1A
  3
ACAD_MLINESTYLE
350
17
  3
ACAD_PLOTSETTINGS
350
19
  3
ACAD_PLOTSTYLENAME
350
E
  3
ACAD_SCALELIST
350
47
  0
DICTIONARY
  5
D
102
{ACAD_REACTORS
330
C
102
}
330
C
100
AcDbDictionary
281
     1
  0
DICTIONARY
  5
1A
102
{ACAD_REACTORS
330
C
102
}
330
C
100
AcDbDictionary
281
     1
  3
Layout1
350
1E
  3
Layout2
350
26
  3
Model
350
22
  0
DICTIONARY
  5
17
102
{ACAD_REACTORS
330
C
102
}
330
C
100
AcDbDictionary
281
     1
  3
Standard
350
18
  0
DICTIONARY
  5
19
102
{ACAD_REACTORS
330
C
102
}
330
C
100
AcDbDictionary
281
     1
  0
ACDBDICTIONARYWDFLT
  5
E
102
{ACAD_REACTORS
330
C
102
}
330
C
100
AcDbDictionary
281
     1
  3
Normal
350
F
100
AcDbDictionaryWithDefault
340
F
  0
DICTIONARY
  5
47
102
{ACAD_REACTORS
330
C
102
}
330
C
100
AcDbDictionary
281
     1
  3
A0
350
48
  3
A1
350
49
  3
A2
350
4A
  3
A3
350
4B
  3
A4
350
4C
  3
A5
350
4D
  3
A6
350
4E
  3
A7
350
4F
  3
A8
350
50
  3
A9
350
51
  3
B0
350
52
  3
B1
350
53
  3
B2
350
54
  3
B3
350
55
  3
B4
350
56
  3
B5
350
57
  3
B6
350
58
  3
B7
350
59
  3
B8
350
5A
  3
B9
350
5B
  3
C0
350
5C
  3
C1
350
5D
  3
C2
350
5E
  3
C3
350
5F
  3
C4
350
60
  3
C5
350
61
  3
C6
350
62
  3
C7
350
63
  3
C8
350
64
  3
C9
350
65
  3
D0
350
66
  3
D1
350
67
  3
D2
350
68
  0
LAYOUT
  5
1E
102
{ACAD_REACTORS
330
1A
102
}
330
1A
100
AcDbPlotSettings
  1

  2
none_device
  4

  6

 40
0.0
 41
0.0
 42
0.0
 43
0.0
 44
0.0
 45
0.0
 46
0.0
 47
0.0
 48
0.0
 49
0.0
140
0.0
141
0.0
142
1.0
143
1.0
 70
   688
 72
     1
 73
     0
 74
     5
  7

 75
    16
147
1.0
148
0.0
149
0.0
100
AcDbLayout
  1
Layout1
 70
     1
 71
     1
 10
0.0
 20
0.0
 11
420.0
 21
297.0
 12
0.0
 22
0.0
 32
0.0
 14
1.0000000000E+20
 24
1.0000000000E+20
 34
1.0000000000E+20
 15
-1.0000000000E+20
 25
-1.0000000000E+20
 35
-1.0000000000E+20
146
0.0
 13
0.0
 23
0.0
 33
0.0
 16
1.0
 26
0.0
 36
0.0
 17
0.0
 27
1.0
 37
0.0
 76
     0
330
1B
  0
LAYOUT
  5
26
102
{ACAD_REACTORS
330
1A
102
}
330
1A
100
AcDbPlotSettings
  1

  2
none_device
  4

  6

 40
0.0
 41
0.0
 42
0.0
 43
0.0
 44
0.0
 45
0.0
 46
0.0
 47
0.0
 48
0.0
 49
0.0
140
0.0
141
0.0
142
1.0
143
1.0
 70
   688
 72
     1
 73
     0
 74
     5
  7

 75
    16
147
1.0
148
0.0
149
0.0
100
AcDbLayout
  1
Layout2
 70
     1
 71
     2
 10
0.0
 20
0.0
 11
0.0
 21
0.0
 12
0.0
 22
0.0
 32
0.0
 14
0.0
 24
0.0
 34
0.0
 15
0.0
 25
0.0
 35
0.0
146
0.0
 13
0.0
 23
0.0
 33
0.0
 16
1.0
 26
0.0
 36
0.0
 17
0.0
 27
1.0
 37
0.0
 76
     0
330
23
  0
LAYOUT
  5
22
102
{ACAD_REACTORS
330
1A
102
}
330
1A
100
AcDbPlotSettings
  1

  2
none_device
  4
ANSI_A_(11.00_x_8.50_Inches)
  6

 40
6.35
 41
19.05
 42
6.35000508
 43
19.05000254
 44
279.4
 45
215.9
 46
-6.2157013022
 47
-8.6406215083
 48
0.0
 49
0.0
140
0.0
141
0.0
142
0.2187707698
143
1.0
 70
  1696
 72
     0
 73
     0
 74
     0
  7

 75
     0
147
0.0179189148
148
-1300.4909072572
149
0.0
100
AcDbLayout
  1
Model
 70
     1
 71
     0
 10
0.0
 20
0.0
 11
420.0
 21
297.0
 12
0.0
 22
0.0
 32
0.0
 14
0.2272357945
 24
-0.0004413035
 34
0.0
 15
50.005366624
 25
35.1073424944
 35
0.0
146
0.0
 13
0.0
 23
0.0
 33
0.0
 16
1.0
 26
0.0
 36
0.0
 17
0.0
 27
1.0
 37
0.0
 76
     0
330
1F
331
29
  0
MLINESTYLE
  5
18
102
{ACAD_REACTORS
330
17
102
}
330
17
100
AcDbMlineStyle
  2
Standard
 70
     0
  3

 62
   256
 51
90.0
 52
90.0
 71
     2
 49
0.5
 62
   256
  6
BYLAYER
 49
-0.5
 62
   256
  6
BYLAYER
  0
ACDBPLACEHOLDER
  5
F
102
{ACAD_REACTORS
330
E
102
}
330
E
  0
SCALE
  5
48
102
{ACAD_REACTORS
330
47
102
}
330
47
100
AcDbScale
 70
     0
300
1:1
140
1.0
141
1.0
290
     1
  0
SCALE
  5
49
102
{ACAD_REACTORS
330
47
102
}
330
47
100
AcDbScale
 70
     0
300
1:2
140
1.0
141
2.0
290
     0
  0
SCALE
  5
4A
102
{ACAD_REACTORS
330
47
102
}
330
47
100
AcDbScale
 70
     0
300
1:4
140
1.0
141
4.0
290
     0
  0
SCALE
  5
4B
102
{ACAD_REACTORS
330
47
102
}
330
47
100
AcDbScale
 70
     0
300
1:5
140
1.0
141
5.0
290
     0
  0
SCALE
  5
4C
102
{ACAD_REACTORS
330
47
102
}
330
47
100
AcDbScale
 70
     0
300
1:8
140
1.0
141
8.0
290
     0
  0
SCALE
  5
4D
102
{ACAD_REACTORS
330
47
102
}
330
47
100
AcDbScale
 70
     0
300
1:10
140
1.0
141
10.0
290
     0
  0
SCALE
  5
4E
102
{ACAD_REACTORS
330
47
102
}
330
47
100
AcDbScale
 70
     0
300
1:16
140
1.0
141
16.0
290
     0
  0
SCALE
  5
4F
102
{ACAD_REACTORS
330
47
102
}
330
47
100
AcDbScale
 70
     0
300
1:20
140
1.0
141
20.0
290
     0
  0
SCALE
  5
50
102
{ACAD_REACTORS
330
47
102
}
330
47
100
AcDbScale
 70
     0
300
1:30
140
1.0
141
30.0
290
     0
  0
SCALE
  5
51
102
{ACAD_REACTORS
330
47
102
}
330
47
100
AcDbScale
 70
     0
300
1:40
140
1.0
141
40.0
290
     0
  0
SCALE
  5
52
102
{ACAD_REACTORS
330
47
102
}
330
47
100
AcDbScale
 70
     0
300
1:50
140
1.0
141
50.0
290
     0
  0
SCALE
  5
53
102
{ACAD_REACTORS
330
47
102
}
330
47
100
AcDbScale
 70
     0
300
1:100
140
1.0
141
100.0
290
     0
  0
SCALE
  5
54
102
{ACAD_REACTORS
330
47
102
}
330
47
100
AcDbScale
 70
     0
300
2:1
140
2.0
141
1.0
290
     0
  0
SCALE
  5
55
102
{ACAD_REACTORS
330
47
102
}
330
47
100
AcDbScale
 70
     0
300
4:1
140
4.0
141
1.0
290
     0
  0
SCALE
  5
56
102
{ACAD_REACTORS
330
47
102
}
330
47
100
AcDbScale
 70
     0
300
8:1
140
8.0
141
1.0
290
     0
  0
SCALE
  5
57
102
{ACAD_REACTORS
330
47
102
}
330
47
100
AcDbScale
 70
     0
300
10:1
140
10.0
141
1.0
290
     0
  0
SCALE
  5
58
102
{ACAD_REACTORS
330
47
102
}
330
47
100
AcDbScale
 70
     0
300
100:1
140
100.0
141
1.0
290
     0
  0
SCALE
  5
59
102
{ACAD_REACTORS
330
47
102
}
330
47
100
AcDbScale
 70
     0
300
1/128" = 1'-0"
140
0.0078125
141
12.0
290
     0
  0
SCALE
  5
5A
102
{ACAD_REACTORS
330
47
102
}
330
47
100
AcDbScale
 70
     0
300
1/64" = 1'-0"
140
0.015625
141
12.0
290
     0
  0
SCALE
  5
5B
102
{ACAD_REACTORS
330
47
102
}
330
47
100
AcDbScale
 70
     0
300
1/32" = 1'-0"
140
0.03125
141
12.0
290
     0
  0
SCALE
  5
5C
102
{ACAD_REACTORS
330
47
102
}
330
47
100
AcDbScale
 70
     0
300
1/16" = 1'-0"
140
0.0625
141
12.0
290
     0
  0
SCALE
  5
5D
102
{ACAD_REACTORS
330
47
102
}
330
47
100
AcDbScale
 70
     0
300
3/32" = 1'-0"
140
0.09375
141
12.0
290
     0
  0
SCALE
  5
5E
102
{ACAD_REACTORS
330
47
102
}
330
47
100
AcDbScale
 70
     0
300
1/8" = 1'-0"
140
0.125
141
12.0
290
     0
  0
SCALE
  5
5F
102
{ACAD_REACTORS
330
47
102
}
330
47
100
AcDbScale
 70
     0
300
3/16" = 1'-0"
140
0.1875
141
12.0
290
     0
  0
SCALE
  5
60
102
{ACAD_REACTORS
330
47
102
}
330
47
100
AcDbScale
 70
     0
300
1/4" = 1'-0"
140
0.25
141
12.0
290
     0
  0
SCALE
  5
61
102
{ACAD_REACTORS
330
47
102
}
330
47
100
AcDbScale
 70
     0
300
3/8" = 1'-0"
140
0.375
141
12.0
290
     0
  0
SCALE
  5
62
102
{ACAD_REACTORS
330
47
102
}
330
47
100
AcDbScale
 70
     0
300
1/2" = 1'-0"
140
0.5
141
12.0
290
     0
  0
SCALE
  5
63
102
{ACAD_REACTORS
330
47
102
}
330
47
100
AcDbScale
 70
     0
300
3/4" = 1'-0"
140
0.75
141
12.0
290
     0
  0
SCALE
  5
64
102
{ACAD_REACTORS
330
47
102
}
330
47
100
AcDbScale
 70
     0
300
1" = 1'-0"
140
1.0
141
12.0
290
     0
  0
SCALE
  5
65
102
{ACAD_REACTORS
330
47
102
}
330
47
100
AcDbScale
 70
     0
300
1-1/2" = 1'-0"
140
1.5
141
12.0
290
     0
  0
SCALE
  5
66
102
{ACAD_REACTORS
330
47
102
}
330
47
100
AcDbScale
 70
     0
300
3" = 1'-0"
140
3.0
141
12.0
290
     0
  0
SCALE
  5
67
102
{ACAD_REACTORS
330
47
102
}
330
47
100
AcDbScale
 70
     0
300
6" = 1'-0"
140
6.0
141
12.0
290
     0
  0
SCALE
  5
68
102
{ACAD_REACTORS
330
47
102
}
330
47
100
AcDbScale
 70
     0
300
1'-0" = 1'-0"
140
12.0
141
12.0
290
     0
  0
ENDSEC
  0
EOF
